<svg xmlns="http://www.w3.org/2000/svg" viewBox="0 0 477 541"><defs><style>.cls-1{fill:#3273dc;}</style></defs><title>digitalassist</title><g id="Ebene_2" data-name="Ebene 2"><g id="Ebene_1-2" data-name="Ebene 1"><path class="cls-1" d="M466.86,1A9.15,9.15,0,0,1,476,10.14V530.86a9.15,9.15,0,0,1-9.14,9.14H10.14A9.15,9.15,0,0,1,1,530.86V10.14A9.15,9.15,0,0,1,10.14,1H466.86m0-1H10.14A10.14,10.14,0,0,0,0,10.14V530.86A10.14,10.14,0,0,0,10.14,541H466.86A10.14,10.14,0,0,0,477,530.86V10.14A10.14,10.14,0,0,0,466.86,0Z"/><path class="cls-1" d="M421,45a30,30,0,0,1,0,60H46A30,30,0,0,1,16,75V45H421m0-1H15V75a31,31,0,0,0,31,31H421a31,31,0,0,0,31-31h0a31,31,0,0,0-31-31Z"/><path class="cls-1" d="M46,183.5a30.5,30.5,0,0,1,0-61H451.5V153A30.53,30.53,0,0,1,421,183.5Z"/><path class="cls-1" d="M451,123v30a30,30,0,0,1-30,30H46a30,30,0,0,1,0-60H451m1-1H46a31,31,0,0,0-31,31h0a31,31,0,0,0,31,31H421a31,31,0,0,0,31-31V122Z"/><path class="cls-1" d="M46,263.5a30.5,30.5,0,0,1,0-61H451.5V233A30.53,30.53,0,0,1,421,263.5Z"/><path class="cls-1" d="M451,203v30a30,30,0,0,1-30,30H46a30,30,0,0,1,0-60H451m1-1H46a31,31,0,0,0-31,31h0a31,31,0,0,0,31,31H421a31,31,0,0,0,31-31V202Z"/><path class="cls-1" d="M46,343.5a30.5,30.5,0,0,1,0-61H451.5V313A30.53,30.53,0,0,1,421,343.5Z"/><path class="cls-1" d="M451,283v30a30,30,0,0,1-30,30H46a30,30,0,0,1,0-60H451m1-1H46a31,31,0,0,0-31,31h0a31,31,0,0,0,31,31H421a31,31,0,0,0,31-31V282Z"/><path class="cls-1" d="M46,423.5a30.5,30.5,0,0,1,0-61H451.5V393A30.53,30.53,0,0,1,421,423.5Z"/><path class="cls-1" d="M451,363v30a30,30,0,0,1-30,30H46a30,30,0,0,1,0-60H451m1-1H46a31,31,0,0,0-31,31h0a31,31,0,0,0,31,31H421a31,31,0,0,0,31-31V362Z"/><path class="cls-1" d="M46,503.5a30.5,30.5,0,0,1,0-61H451.5V473A30.53,30.53,0,0,1,421,503.5Z"/><path class="cls-1" d="M451,443v30a30,30,0,0,1-30,30H46a30,30,0,0,1,0-60H451m1-1H46a31,31,0,0,0-31,31h0a31,31,0,0,0,31,31H421a31,31,0,0,0,31-31V442Z"/></g></g></svg>