<svg xmlns="http://www.w3.org/2000/svg" xmlns:xlink="http://www.w3.org/1999/xlink" viewBox="0 0 166.21 174.39"><defs><style>.cls-1{isolation:isolate;}.cls-2{fill:url(#linear-gradient);}.cls-3{opacity:0.7;}.cls-10,.cls-100,.cls-101,.cls-102,.cls-103,.cls-104,.cls-105,.cls-106,.cls-107,.cls-108,.cls-109,.cls-11,.cls-110,.cls-111,.cls-112,.cls-113,.cls-114,.cls-115,.cls-116,.cls-117,.cls-118,.cls-119,.cls-12,.cls-120,.cls-121,.cls-122,.cls-123,.cls-124,.cls-125,.cls-126,.cls-127,.cls-128,.cls-129,.cls-13,.cls-14,.cls-15,.cls-16,.cls-17,.cls-18,.cls-19,.cls-20,.cls-21,.cls-22,.cls-23,.cls-24,.cls-25,.cls-26,.cls-27,.cls-28,.cls-29,.cls-30,.cls-31,.cls-32,.cls-33,.cls-34,.cls-35,.cls-36,.cls-37,.cls-38,.cls-39,.cls-4,.cls-40,.cls-41,.cls-42,.cls-43,.cls-44,.cls-45,.cls-5,.cls-6,.cls-7,.cls-8,.cls-80,.cls-81,.cls-82,.cls-83,.cls-84,.cls-85,.cls-86,.cls-87,.cls-88,.cls-89,.cls-9,.cls-90,.cls-91,.cls-92,.cls-93,.cls-94,.cls-95,.cls-96,.cls-97,.cls-98,.cls-99{fill:#3c5185;}.cls-4{opacity:0;}.cls-5{opacity:0.02;}.cls-6{opacity:0.05;}.cls-7{opacity:0.07;}.cls-8{opacity:0.1;}.cls-9{opacity:0.12;}.cls-10{opacity:0.15;}.cls-11{opacity:0.17;}.cls-12{opacity:0.2;}.cls-13{opacity:0.22;}.cls-14{opacity:0.24;}.cls-15{opacity:0.27;}.cls-16{opacity:0.29;}.cls-17{opacity:0.32;}.cls-18{opacity:0.34;}.cls-19{opacity:0.37;}.cls-20{opacity:0.39;}.cls-21{opacity:0.41;}.cls-22{opacity:0.44;}.cls-23{opacity:0.46;}.cls-24{opacity:0.49;}.cls-25{opacity:0.51;}.cls-26{opacity:0.54;}.cls-27{opacity:0.56;}.cls-28{opacity:0.59;}.cls-29{opacity:0.61;}.cls-30{opacity:0.63;}.cls-31{opacity:0.66;}.cls-32{opacity:0.68;}.cls-33{opacity:0.71;}.cls-34{opacity:0.73;}.cls-35{opacity:0.76;}.cls-36{opacity:0.78;}.cls-37{opacity:0.8;}.cls-38{opacity:0.83;}.cls-39{opacity:0.85;}.cls-40{opacity:0.88;}.cls-41{opacity:0.9;}.cls-42{opacity:0.93;}.cls-43{opacity:0.95;}.cls-44{opacity:0.98;}.cls-46{fill:url(#linear-gradient-2);}.cls-47{fill:#edf3fa;}.cls-48{fill:url(#linear-gradient-3);}.cls-49{fill:#fff;}.cls-50{fill:#d1e1f2;}.cls-51{fill:url(#linear-gradient-4);}.cls-52{fill:url(#linear-gradient-5);}.cls-53,.cls-59,.cls-66{fill:#a5cbef;}.cls-53{opacity:0.5;}.cls-54{fill:url(#linear-gradient-6);}.cls-55{fill:#f6f9fc;}.cls-56{fill:url(#linear-gradient-7);}.cls-57{fill:#4a65a3;}.cls-58{fill:url(#linear-gradient-8);}.cls-60{fill:url(#linear-gradient-9);}.cls-61{fill:url(#linear-gradient-10);}.cls-62{fill:#f2b1b5;}.cls-63{fill:url(#linear-gradient-11);}.cls-64{fill:url(#linear-gradient-12);}.cls-65{fill:url(#linear-gradient-13);}.cls-66,.cls-79{opacity:0.3;}.cls-67{fill:url(#linear-gradient-14);}.cls-68{fill:url(#linear-gradient-15);}.cls-69{fill:url(#linear-gradient-16);}.cls-70{fill:url(#linear-gradient-17);}.cls-71{fill:url(#linear-gradient-18);}.cls-72{fill:url(#linear-gradient-19);}.cls-73{fill:url(#linear-gradient-20);}.cls-74{fill:url(#linear-gradient-21);}.cls-75{fill:url(#linear-gradient-22);}.cls-76{fill:url(#linear-gradient-23);}.cls-77{fill:url(#linear-gradient-24);}.cls-78{fill:url(#linear-gradient-25);}.cls-80{opacity:0.02;}.cls-81{opacity:0.04;}.cls-82{opacity:0.06;}.cls-83{opacity:0.08;}.cls-84{opacity:0.1;}.cls-85{opacity:0.12;}.cls-86{opacity:0.14;}.cls-87{opacity:0.16;}.cls-88{opacity:0.18;}.cls-89{opacity:0.2;}.cls-90{opacity:0.22;}.cls-91{opacity:0.24;}.cls-92{opacity:0.25;}.cls-93{opacity:0.27;}.cls-94{opacity:0.29;}.cls-95{opacity:0.31;}.cls-96{opacity:0.33;}.cls-97{opacity:0.35;}.cls-98{opacity:0.37;}.cls-99{opacity:0.39;}.cls-100{opacity:0.41;}.cls-101{opacity:0.43;}.cls-102{opacity:0.45;}.cls-103{opacity:0.47;}.cls-104{opacity:0.49;}.cls-105{opacity:0.51;}.cls-106{opacity:0.53;}.cls-107{opacity:0.55;}.cls-108{opacity:0.57;}.cls-109{opacity:0.59;}.cls-110{opacity:0.61;}.cls-111{opacity:0.63;}.cls-112{opacity:0.65;}.cls-113{opacity:0.67;}.cls-114{opacity:0.69;}.cls-115{opacity:0.71;}.cls-116{opacity:0.73;}.cls-117{opacity:0.75;}.cls-118{opacity:0.76;}.cls-119{opacity:0.78;}.cls-120{opacity:0.8;}.cls-121{opacity:0.82;}.cls-122{opacity:0.84;}.cls-123{opacity:0.86;}.cls-124{opacity:0.88;}.cls-125{opacity:0.9;}.cls-126{opacity:0.92;}.cls-127{opacity:0.94;}.cls-128{opacity:0.96;}.cls-129{opacity:0.98;}.cls-130{fill:url(#linear-gradient-26);}.cls-131{fill:url(#linear-gradient-27);}.cls-132{mix-blend-mode:multiply;fill:url(#radial-gradient);}.cls-133{fill:url(#linear-gradient-28);}.cls-134{fill:url(#linear-gradient-29);}</style><linearGradient id="linear-gradient" x1="24.2" y1="179.76" x2="153.56" y2="9.25" gradientUnits="userSpaceOnUse"><stop offset="0.1" stop-color="#fff"/><stop offset="0.43" stop-color="#f8fbfd"/><stop offset="0.89" stop-color="#e6eef8"/><stop offset="1" stop-color="#e1ebf7"/></linearGradient><linearGradient id="linear-gradient-2" x1="79.07" y1="68.7" x2="146" y2="68.7" gradientUnits="userSpaceOnUse"><stop offset="0" stop-color="#fff"/><stop offset="0.4" stop-color="#d5e7f8"/><stop offset="0.79" stop-color="#b2d3f1"/><stop offset="1" stop-color="#a5cbef"/></linearGradient><linearGradient id="linear-gradient-3" x1="34.91" y1="109.54" x2="144.17" y2="109.54" gradientUnits="userSpaceOnUse"><stop offset="0" stop-color="#a5cbef"/><stop offset="0.21" stop-color="#b2d3f1"/><stop offset="0.6" stop-color="#d5e7f8"/><stop offset="1" stop-color="#fff"/></linearGradient><linearGradient id="linear-gradient-4" x1="83.62" y1="54.02" x2="140.13" y2="54.02" xlink:href="#linear-gradient-2"/><linearGradient id="linear-gradient-5" x1="83.18" y1="19" x2="139.3" y2="19" gradientUnits="userSpaceOnUse"><stop offset="0" stop-color="#3c5185"/><stop offset="0.6" stop-color="#445c95"/><stop offset="1" stop-color="#4a65a3"/></linearGradient><linearGradient id="linear-gradient-6" x1="736.12" y1="66.5" x2="785.53" y2="66.5" gradientTransform="translate(-624.57)" gradientUnits="userSpaceOnUse"><stop offset="0" stop-color="#fff"/><stop offset="0.24" stop-color="#eef5fc"/><stop offset="0.72" stop-color="#c1dbf4"/><stop offset="1" stop-color="#a5cbef"/></linearGradient><linearGradient id="linear-gradient-7" x1="111.56" y1="47.33" x2="159.58" y2="47.33" gradientUnits="userSpaceOnUse"><stop offset="0" stop-color="#3c5185"/><stop offset="0.13" stop-color="#41588e"/><stop offset="0.69" stop-color="#5573b1"/><stop offset="1" stop-color="#5d7dbe"/></linearGradient><linearGradient id="linear-gradient-8" x1="76.02" y1="135.91" x2="80.83" y2="135.91" gradientUnits="userSpaceOnUse"><stop offset="0.15" stop-color="#ff9800"/><stop offset="1" stop-color="#ffc107"/></linearGradient><linearGradient id="linear-gradient-9" x1="76.06" y1="100.07" x2="80.83" y2="100.07" gradientUnits="userSpaceOnUse"><stop offset="0" stop-color="#a8d9fb"/><stop offset="0.09" stop-color="#b3defb"/><stop offset="0.49" stop-color="#dcf0fd"/><stop offset="0.81" stop-color="#f6fbff"/><stop offset="1" stop-color="#fff"/></linearGradient><linearGradient id="linear-gradient-10" x1="59.71" y1="151.31" x2="65.58" y2="151.31" gradientUnits="userSpaceOnUse"><stop offset="0" stop-color="#4a65a3"/><stop offset="0.4" stop-color="#445c95"/><stop offset="1" stop-color="#3c5185"/></linearGradient><linearGradient id="linear-gradient-11" x1="57.65" y1="121.33" x2="64.39" y2="121.33" xlink:href="#linear-gradient-9"/><linearGradient id="linear-gradient-12" x1="59.71" y1="148.21" x2="70.9" y2="148.21" xlink:href="#linear-gradient-10"/><linearGradient id="linear-gradient-13" x1="59.67" y1="129.38" x2="71.32" y2="129.38" xlink:href="#linear-gradient-9"/><linearGradient id="linear-gradient-14" x1="63.05" y1="119.77" x2="71.07" y2="127.11" xlink:href="#linear-gradient-9"/><linearGradient id="linear-gradient-15" x1="753.13" y1="120.09" x2="764.39" y2="120.09" gradientTransform="matrix(-1, 0, 0, 1, 793.88, 0)" xlink:href="#linear-gradient-10"/><linearGradient id="linear-gradient-16" x1="754.07" y1="121.48" x2="763.66" y2="121.48" gradientTransform="matrix(-1, 0, 0, 1, 793.88, 0)" xlink:href="#linear-gradient-8"/><linearGradient id="linear-gradient-17" x1="753.57" y1="109.05" x2="761.06" y2="109.05" gradientTransform="matrix(-1, 0, 0, 1, 793.88, 0)" xlink:href="#linear-gradient-10"/><linearGradient id="linear-gradient-18" x1="27.63" y1="101.95" x2="36.51" y2="101.95" xlink:href="#linear-gradient-8"/><linearGradient id="linear-gradient-19" x1="828.43" y1="90.88" x2="812.44" y2="71.65" gradientTransform="matrix(-1, 0, 0, 1, 836.51, 0)" xlink:href="#linear-gradient-7"/><linearGradient id="linear-gradient-20" x1="824.6" y1="62.3" x2="803.92" y2="97.46" gradientTransform="matrix(-1, 0, 0, 1, 836.51, 0)" gradientUnits="userSpaceOnUse"><stop offset="0" stop-color="#5d7dbe"/><stop offset="0.31" stop-color="#5573b1"/><stop offset="0.87" stop-color="#41588e"/><stop offset="1" stop-color="#3c5185"/></linearGradient><linearGradient id="linear-gradient-21" x1="46.24" y1="44.39" x2="52.1" y2="44.39" gradientUnits="userSpaceOnUse"><stop offset="0" stop-color="#a8d9fb"/><stop offset="1" stop-color="#fff"/></linearGradient><linearGradient id="linear-gradient-22" x1="49.68" y1="64.55" x2="67.51" y2="64.55" gradientUnits="userSpaceOnUse"><stop offset="0" stop-color="#3c5185"/><stop offset="0.4" stop-color="#4d68a3"/><stop offset="0.76" stop-color="#5977b7"/><stop offset="1" stop-color="#5d7dbe"/></linearGradient><linearGradient id="linear-gradient-23" x1="49.36" y1="44.25" x2="68.44" y2="44.25" gradientUnits="userSpaceOnUse"><stop offset="0" stop-color="#a8d9fb"/><stop offset="0.05" stop-color="#b3defc"/><stop offset="0.19" stop-color="#cfeafd"/><stop offset="0.34" stop-color="#e4f3fe"/><stop offset="0.51" stop-color="#f3fafe"/><stop offset="0.71" stop-color="#fcfeff"/><stop offset="1" stop-color="#fff"/></linearGradient><linearGradient id="linear-gradient-24" x1="-619.39" y1="39.67" x2="-617.21" y2="39.67" gradientTransform="matrix(-1, 0, 0, 1, -564.57, 0)" xlink:href="#linear-gradient-8"/><linearGradient id="linear-gradient-25" x1="-618.56" y1="46.47" x2="-616.75" y2="46.47" gradientTransform="matrix(-1, 0, 0, 1, -564.57, 0)" xlink:href="#linear-gradient-8"/><linearGradient id="linear-gradient-26" x1="91.66" y1="157.7" x2="123.32" y2="157.7" xlink:href="#linear-gradient-5"/><linearGradient id="linear-gradient-27" x1="103.15" y1="151.67" x2="123.36" y2="151.67" xlink:href="#linear-gradient-10"/><radialGradient id="radial-gradient" cx="134.5" cy="7931.18" r="13.93" gradientTransform="translate(0 -3960.01) scale(1 0.52)" gradientUnits="userSpaceOnUse"><stop offset="0.53" stop-color="#3c5185"/><stop offset="0.57" stop-color="#66769f"/><stop offset="0.61" stop-color="#8e9ab8"/><stop offset="0.66" stop-color="#b1bace"/><stop offset="0.72" stop-color="#ced3e0"/><stop offset="0.77" stop-color="#e3e6ee"/><stop offset="0.83" stop-color="#f3f4f7"/><stop offset="0.9" stop-color="#fcfcfd"/><stop offset="1" stop-color="#fff"/></radialGradient><linearGradient id="linear-gradient-28" x1="124.46" y1="140.5" x2="144.18" y2="140.5" gradientUnits="userSpaceOnUse"><stop offset="0" stop-color="#7ea7df"/><stop offset="1" stop-color="#fff"/></linearGradient><linearGradient id="linear-gradient-29" x1="124.46" y1="137.87" x2="144.18" y2="137.87" gradientUnits="userSpaceOnUse"><stop offset="0" stop-color="#ecf2fa"/><stop offset="1" stop-color="#7ea7df"/></linearGradient></defs><title>marketing</title><g class="cls-1"><g id="Ebene_2" data-name="Ebene 2"><g id="Online_Testing" data-name="Online Testing"><path class="cls-2" d="M166.21,102c0,42.45-41.91,72.35-84.36,72.35S0,144.49,0,102,59.41,7.19,101.85,7.19,166.21,59.6,166.21,102Z"/><g class="cls-3"><path class="cls-4" d="M74.63,78.93,32.52,103a1.37,1.37,0,0,0,0,2.37l65.57,37.86a5.44,5.44,0,0,0,5.41,0l42.12-24.07a1.37,1.37,0,0,0,0-2.37L80,78.94A5.42,5.42,0,0,0,74.63,78.93Z"/><path class="cls-5" d="M74.67,79l-42,24a1.36,1.36,0,0,0,0,2.36l65.37,37.74a5.42,5.42,0,0,0,5.4,0l42-24a1.36,1.36,0,0,0,0-2.36L80.07,79A5.42,5.42,0,0,0,74.67,79Z"/><path class="cls-6" d="M74.72,79,32.86,102.93a1.36,1.36,0,0,0,0,2.36L98,142.91a5.39,5.39,0,0,0,5.38,0L145.26,119a1.36,1.36,0,0,0,0-2.36L80.1,79A5.39,5.39,0,0,0,74.72,79Z"/><path class="cls-7" d="M74.76,79.05,33,102.9a1.36,1.36,0,0,0,0,2.35l65,37.51a5.37,5.37,0,0,0,5.36,0l41.73-23.85a1.36,1.36,0,0,0,0-2.35l-65-37.51A5.39,5.39,0,0,0,74.76,79.05Z"/><path class="cls-8" d="M74.81,79.09l-41.6,23.78a1.35,1.35,0,0,0,0,2.34L98,142.6a5.35,5.35,0,0,0,5.35,0l41.6-23.78a1.35,1.35,0,0,0,0-2.34L80.15,79.1A5.33,5.33,0,0,0,74.81,79.09Z"/><path class="cls-9" d="M74.85,79.12,33.38,102.83a1.35,1.35,0,0,0,0,2.34l64.57,37.28a5.36,5.36,0,0,0,5.33,0l41.48-23.71a1.34,1.34,0,0,0,0-2.33L80.18,79.14A5.34,5.34,0,0,0,74.85,79.12Z"/><path class="cls-10" d="M74.89,79.16,33.55,102.8a1.34,1.34,0,0,0,0,2.32l64.38,37.17a5.33,5.33,0,0,0,5.31,0l41.34-23.63a1.34,1.34,0,0,0,0-2.33L80.21,79.17A5.37,5.37,0,0,0,74.89,79.16Z"/><path class="cls-11" d="M74.94,79.2,33.72,102.76a1.34,1.34,0,0,0,0,2.32l64.17,37.05a5.31,5.31,0,0,0,5.3,0l41.21-23.56a1.34,1.34,0,0,0,0-2.32L80.24,79.21A5.33,5.33,0,0,0,74.94,79.2Z"/><path class="cls-12" d="M75,79.24,33.89,102.73a1.33,1.33,0,0,0,0,2.31l64,36.94a5.32,5.32,0,0,0,5.28,0l41.09-23.49a1.33,1.33,0,0,0,0-2.31l-64-36.94A5.32,5.32,0,0,0,75,79.24Z"/><path class="cls-13" d="M75,79.28l-41,23.41a1.33,1.33,0,0,0,0,2.31l63.77,36.82a5.3,5.3,0,0,0,5.27,0l41-23.41a1.33,1.33,0,0,0,0-2.31L80.29,79.29A5.28,5.28,0,0,0,75,79.28Z"/><path class="cls-14" d="M75.07,79.32,34.24,102.66a1.33,1.33,0,0,0,0,2.3l63.58,36.7a5.25,5.25,0,0,0,5.24,0l40.84-23.34a1.33,1.33,0,0,0,0-2.3L80.32,79.33A5.26,5.26,0,0,0,75.07,79.32Z"/><path class="cls-15" d="M75.11,79.36l-40.7,23.27a1.32,1.32,0,0,0,0,2.29l63.37,36.59a5.28,5.28,0,0,0,5.23,0l40.7-23.27a1.32,1.32,0,0,0,0-2.29L80.35,79.37A5.27,5.27,0,0,0,75.11,79.36Z"/><path class="cls-16" d="M75.16,79.4,34.58,102.59a1.32,1.32,0,0,0,0,2.29l63.17,36.47a5.26,5.26,0,0,0,5.22,0l40.57-23.19a1.32,1.32,0,0,0,0-2.29L80.37,79.41A5.21,5.21,0,0,0,75.16,79.4Z"/><path class="cls-17" d="M75.2,79.44,34.75,102.56a1.31,1.31,0,0,0,0,2.27l63,36.36a5.19,5.19,0,0,0,5.2,0l40.45-23.12a1.31,1.31,0,0,0,0-2.27l-63-36.36A5.22,5.22,0,0,0,75.2,79.44Z"/><path class="cls-18" d="M75.25,79.48l-40.32,23a1.31,1.31,0,0,0,0,2.27L97.7,141a5.21,5.21,0,0,0,5.18,0L143.2,118a1.31,1.31,0,0,0,0-2.27L80.43,79.49A5.18,5.18,0,0,0,75.25,79.48Z"/><path class="cls-19" d="M75.29,79.51l-40.19,23a1.3,1.3,0,0,0,0,2.26l62.58,36.13a5.19,5.19,0,0,0,5.17,0l40.19-23a1.31,1.31,0,0,0,0-2.27L80.45,79.53A5.17,5.17,0,0,0,75.29,79.51Z"/><path class="cls-20" d="M75.33,79.55,35.27,102.46a1.3,1.3,0,0,0,0,2.25l62.37,36a5.15,5.15,0,0,0,5.15,0l40.06-22.9a1.29,1.29,0,0,0,0-2.25l-62.38-36A5.2,5.2,0,0,0,75.33,79.55Z"/><path class="cls-21" d="M75.38,79.59,35.44,102.42a1.3,1.3,0,0,0,0,2.25l62.17,35.9a5.18,5.18,0,0,0,5.14,0l39.93-22.83a1.3,1.3,0,0,0,0-2.25L80.51,79.6A5.16,5.16,0,0,0,75.38,79.59Z"/><path class="cls-22" d="M75.42,79.63,35.61,102.39a1.29,1.29,0,0,0,0,2.24l62,35.78a5.12,5.12,0,0,0,5.11,0l39.81-22.75a1.29,1.29,0,0,0,0-2.24l-62-35.79A5.17,5.17,0,0,0,75.42,79.63Z"/><path class="cls-23" d="M75.46,79.67,35.79,102.35a1.29,1.29,0,0,0,0,2.24l61.78,35.66a5.11,5.11,0,0,0,5.1,0l39.68-22.68a1.29,1.29,0,0,0,0-2.23L80.56,79.68A5.13,5.13,0,0,0,75.46,79.67Z"/><path class="cls-24" d="M75.51,79.71,36,102.32a1.28,1.28,0,0,0,0,2.22L97.53,140.1a5.14,5.14,0,0,0,5.09,0l39.55-22.61a1.29,1.29,0,0,0,0-2.23L80.59,79.72A5.09,5.09,0,0,0,75.51,79.71Z"/><path class="cls-25" d="M75.55,79.75,36.13,102.28a1.28,1.28,0,0,0,0,2.22L97.5,139.94a5.1,5.1,0,0,0,5.07,0L142,117.42a1.28,1.28,0,0,0,0-2.22L80.62,79.76A5.07,5.07,0,0,0,75.55,79.75Z"/><path class="cls-26" d="M75.6,79.79,36.3,102.25a1.28,1.28,0,0,0,0,2.21l61.18,35.32a5,5,0,0,0,5,0l39.29-22.46a1.27,1.27,0,0,0,0-2.21L80.65,79.8A5.06,5.06,0,0,0,75.6,79.79Z"/><path class="cls-27" d="M75.64,79.83,36.47,102.22a1.27,1.27,0,0,0,0,2.2l61,35.21a5,5,0,0,0,5,0l39.17-22.39a1.28,1.28,0,0,0,0-2.21l-61-35.2A5,5,0,0,0,75.64,79.83Z"/><path class="cls-28" d="M75.68,79.87l-39,22.31a1.27,1.27,0,0,0,0,2.2l60.78,35.09a5,5,0,0,0,5,0l39-22.31a1.27,1.27,0,0,0,0-2.2L80.7,79.88A5,5,0,0,0,75.68,79.87Z"/><path class="cls-29" d="M75.73,79.9,36.82,102.15a1.26,1.26,0,0,0,0,2.19l60.58,35a5,5,0,0,0,5,0l38.91-22.24a1.27,1.27,0,0,0,0-2.19l-60.58-35A5,5,0,0,0,75.73,79.9Z"/><path class="cls-30" d="M75.77,79.94,37,102.11a1.26,1.26,0,0,0,0,2.19l60.38,34.86a5,5,0,0,0,5,0L141.13,117a1.25,1.25,0,0,0,0-2.18L80.76,80A5,5,0,0,0,75.77,79.94Z"/><path class="cls-31" d="M75.82,80l-38.66,22.1a1.25,1.25,0,0,0,0,2.17L97.34,139a5,5,0,0,0,5,0L141,116.92a1.26,1.26,0,0,0,0-2.18L80.78,80A5,5,0,0,0,75.82,80Z"/><path class="cls-32" d="M75.86,80,37.33,102a1.25,1.25,0,0,0,0,2.17l60,34.63a5,5,0,0,0,5,0l38.53-22a1.25,1.25,0,0,0,0-2.17L80.81,80A5,5,0,0,0,75.86,80Z"/><path class="cls-33" d="M75.9,80.06,37.51,102a1.24,1.24,0,0,0,0,2.16l59.79,34.52a5,5,0,0,0,4.93,0l38.4-21.95a1.24,1.24,0,0,0,0-2.16L80.84,80.07A5,5,0,0,0,75.9,80.06Z"/><path class="cls-34" d="M76,80.1,37.68,102a1.24,1.24,0,0,0,0,2.15l59.59,34.4a4.94,4.94,0,0,0,4.92,0l38.27-21.87a1.25,1.25,0,0,0,0-2.16L80.87,80.11A4.94,4.94,0,0,0,76,80.1Z"/><path class="cls-35" d="M76,80.14l-38.14,21.8a1.24,1.24,0,0,0,0,2.15l59.38,34.28a4.93,4.93,0,0,0,4.9,0l38.14-21.81a1.23,1.23,0,0,0,0-2.14L80.89,80.15A4.9,4.9,0,0,0,76,80.14Z"/><path class="cls-36" d="M76,80.18,38,101.91a1.23,1.23,0,0,0,0,2.14L97.2,138.22a4.93,4.93,0,0,0,4.89,0l38-21.73a1.23,1.23,0,0,0,0-2.14L80.92,80.19A4.89,4.89,0,0,0,76,80.18Z"/><path class="cls-37" d="M76.08,80.22,38.19,101.87a1.24,1.24,0,0,0,0,2.14l59,34.05a4.88,4.88,0,0,0,4.86,0l37.89-21.65a1.23,1.23,0,0,0,0-2.14l-59-34A4.87,4.87,0,0,0,76.08,80.22Z"/><path class="cls-38" d="M76.12,80.26,38.37,101.84a1.22,1.22,0,0,0,0,2.12L97.15,137.9a4.86,4.86,0,0,0,4.85,0l37.76-21.59a1.22,1.22,0,0,0,0-2.12L81,80.27A4.88,4.88,0,0,0,76.12,80.26Z"/><path class="cls-39" d="M76.17,80.3,38.54,101.81a1.22,1.22,0,0,0,0,2.11l58.59,33.83a4.86,4.86,0,0,0,4.84,0l37.63-21.51a1.22,1.22,0,0,0,0-2.12L81,80.31A4.82,4.82,0,0,0,76.17,80.3Z"/><path class="cls-40" d="M76.21,80.33l-37.5,21.44a1.21,1.21,0,0,0,0,2.11l58.38,33.71a4.82,4.82,0,0,0,4.82,0l37.5-21.43a1.22,1.22,0,0,0,0-2.12L81,80.34A4.85,4.85,0,0,0,76.21,80.33Z"/><path class="cls-41" d="M76.25,80.37,38.88,101.74a1.21,1.21,0,0,0,0,2.1l58.19,33.6a4.84,4.84,0,0,0,4.8,0l37.37-21.37a1.21,1.21,0,0,0,0-2.1L81.06,80.38A4.86,4.86,0,0,0,76.25,80.37Z"/><path class="cls-42" d="M76.3,80.41,39.05,101.7a1.21,1.21,0,0,0,0,2.1l58,33.48a4.82,4.82,0,0,0,4.79,0L139.07,116a1.21,1.21,0,0,0,0-2.1l-58-33.48A4.82,4.82,0,0,0,76.3,80.41Z"/><path class="cls-43" d="M76.34,80.45,39.23,101.67a1.21,1.21,0,0,0,0,2.09L97,137.12a4.78,4.78,0,0,0,4.77,0l37.12-21.22a1.19,1.19,0,0,0,0-2.08L81.11,80.46A4.8,4.8,0,0,0,76.34,80.45Z"/><path class="cls-44" d="M76.39,80.49l-37,21.14a1.21,1.21,0,0,0,0,2.09L97,137a4.81,4.81,0,0,0,4.76,0l37-21.15a1.2,1.2,0,0,0,0-2.08L81.14,80.5A4.77,4.77,0,0,0,76.39,80.49Z"/><path class="cls-45" d="M76.43,80.53,39.57,101.6a1.19,1.19,0,0,0,0,2.07L97,136.81a4.75,4.75,0,0,0,4.73,0l36.86-21.07a1.2,1.2,0,0,0,0-2.08L81.17,80.54A4.75,4.75,0,0,0,76.43,80.53Z"/></g><path class="cls-46" d="M144.6,61.33,81,24.61a1.28,1.28,0,0,0-1.93,1.11V73.65a2.79,2.79,0,0,0,1.4,2.43l63.6,36.72a1.28,1.28,0,0,0,1.93-1.11V63.75A2.78,2.78,0,0,0,144.6,61.33Z"/><path class="cls-45" d="M143.78,61.87,80.18,25.15a1.3,1.3,0,0,0-1.94,1.12V74.2a2.81,2.81,0,0,0,1.41,2.43l63.6,36.72a1.28,1.28,0,0,0,1.93-1.12V64.3A2.8,2.8,0,0,0,143.78,61.87Z"/><polygon class="cls-47" points="141.41 64.9 81.56 30.15 81.56 74 141.41 108.75 141.41 64.9"/><path class="cls-48" d="M75.67,78.94,34.94,100.42s-.23,3.18.64,3.69l62.4,36a5.19,5.19,0,0,0,5.16,0l40.08-22.92c1.65-1,.65-3.69.65-3.69L80.82,79A5.17,5.17,0,0,0,75.67,78.94Z"/><path class="cls-49" d="M75.67,76.47,35.59,99.38a1.3,1.3,0,0,0,0,2.26l62.4,36a5.19,5.19,0,0,0,5.16,0l40.08-22.91a1.3,1.3,0,0,0,0-2.26l-62.4-36A5.17,5.17,0,0,0,75.67,76.47Z"/><path class="cls-50" d="M72.11,106.14l-10.56,6a.34.34,0,0,0,0,.59L78,122.27a1.37,1.37,0,0,0,1.36,0l10.57-6a.34.34,0,0,0,0-.59l-16.45-9.5A1.37,1.37,0,0,0,72.11,106.14Z"/><path class="cls-50" d="M80.09,80l3.45,2a.2.2,0,0,1,0,.35l-1.72,1a.43.43,0,0,1-.44,0l-3.45-2a.2.2,0,0,1,0-.35l1.71-1A.45.45,0,0,1,80.09,80Z"/><path class="cls-50" d="M85.14,83l3.46,2a.21.21,0,0,1,0,.36l-1.72,1a.43.43,0,0,1-.44,0l-3.46-2A.21.21,0,0,1,83,84l1.71-1A.43.43,0,0,1,85.14,83Z"/><path class="cls-50" d="M90.22,85.84l3.46,2a.21.21,0,0,1,0,.36l-1.72,1a.43.43,0,0,1-.44,0l-3.46-2a.21.21,0,0,1,0-.35l1.72-1A.43.43,0,0,1,90.22,85.84Z"/><path class="cls-50" d="M95.45,88.79l3.46,2a.21.21,0,0,1,0,.36l-1.72,1a.43.43,0,0,1-.44,0l-3.46-2a.21.21,0,0,1,0-.36l1.71-1A.43.43,0,0,1,95.45,88.79Z"/><path class="cls-50" d="M100.48,91.59l3.45,2a.21.21,0,0,1,0,.36l-1.71,1a.51.51,0,0,1-.45,0l-3.45-2a.21.21,0,0,1,0-.36l1.72-1A.43.43,0,0,1,100.48,91.59Z"/><path class="cls-50" d="M105.37,94.6l3.45,2a.2.2,0,0,1,0,.35l-1.72,1a.43.43,0,0,1-.44,0l-3.45-2a.21.21,0,0,1,0-.36l1.71-1A.45.45,0,0,1,105.37,94.6Z"/><path class="cls-50" d="M110.48,97.42l3.46,2a.21.21,0,0,1,0,.35l-1.72,1a.43.43,0,0,1-.44,0l-3.46-2a.21.21,0,0,1,0-.36l1.72-1A.43.43,0,0,1,110.48,97.42Z"/><path class="cls-50" d="M115.52,100.42l3.46,2a.21.21,0,0,1,0,.36l-1.71,1a.45.45,0,0,1-.45,0l-3.45-2a.21.21,0,0,1,0-.36l1.72-1A.49.49,0,0,1,115.52,100.42Z"/><path class="cls-50" d="M120.48,103.35l3.45,2a.21.21,0,0,1,0,.36l-1.71,1a.48.48,0,0,1-.45,0l-3.45-2a.21.21,0,0,1,0-.36l1.71-1A.45.45,0,0,1,120.48,103.35Z"/><path class="cls-50" d="M125.7,106.36l3.46,2a.21.21,0,0,1,0,.36l-1.71,1a.46.46,0,0,1-.44,0l-3.46-2a.21.21,0,0,1,0-.36l1.72-1A.43.43,0,0,1,125.7,106.36Z"/><path class="cls-50" d="M130.78,109.21l3.45,2a.21.21,0,0,1,0,.36l-1.72,1a.43.43,0,0,1-.44,0l-3.45-2a.21.21,0,0,1,0-.36l1.71-1A.45.45,0,0,1,130.78,109.21Z"/><path class="cls-50" d="M73.06,83.73l2.34-1.37a1,1,0,0,1,1,0l2.29,1.32a.48.48,0,0,1,0,.83l-2.27,1.4a1,1,0,0,1-1,0l-2.35-1.35A.49.49,0,0,1,73.06,83.73Z"/><path class="cls-50" d="M78.3,86.74l2.34-1.37a1,1,0,0,1,1,0l2.29,1.32a.49.49,0,0,1,0,.84l-2.27,1.39a1,1,0,0,1-1,0L78.3,87.59A.5.5,0,0,1,78.3,86.74Z"/><path class="cls-50" d="M83.39,89.6l2.33-1.37a1,1,0,0,1,1,0L89,89.54a.49.49,0,0,1,0,.84l-2.27,1.39a1,1,0,0,1-1,0l-2.34-1.35A.48.48,0,0,1,83.39,89.6Z"/><path class="cls-50" d="M88.8,92.54l2.34-1.37a1,1,0,0,1,1,0l2.28,1.32a.49.49,0,0,1,0,.84l-2.28,1.39a1,1,0,0,1-1,0L88.8,93.39A.49.49,0,0,1,88.8,92.54Z"/><path class="cls-50" d="M93.56,95.35,95.9,94a1,1,0,0,1,1,0l2.28,1.32a.49.49,0,0,1,0,.84l-2.27,1.39a1,1,0,0,1-1,0l-2.34-1.35A.48.48,0,0,1,93.56,95.35Z"/><path class="cls-50" d="M98.41,98.34,100.74,97a1,1,0,0,1,1,0L104,98.29a.49.49,0,0,1,0,.84l-2.27,1.39a1,1,0,0,1-1,0l-2.34-1.35A.49.49,0,0,1,98.41,98.34Z"/><path class="cls-50" d="M103.58,101.18l2.34-1.37a1,1,0,0,1,1,0l2.29,1.32a.48.48,0,0,1,0,.83l-2.27,1.4a1,1,0,0,1-1,0L103.58,102A.49.49,0,0,1,103.58,101.18Z"/><path class="cls-50" d="M108.65,104.05l2.33-1.37a1,1,0,0,1,1,0l2.28,1.32a.48.48,0,0,1,0,.83l-2.27,1.4a1,1,0,0,1-1,0l-2.34-1.35A.48.48,0,0,1,108.65,104.05Z"/><path class="cls-50" d="M113.62,107.11l2.34-1.37a1,1,0,0,1,1,0l2.28,1.32a.49.49,0,0,1,0,.84L117,109.28a1,1,0,0,1-1,0L113.63,108A.48.48,0,0,1,113.62,107.11Z"/><path class="cls-50" d="M119.05,110.3l2.34-1.37a1,1,0,0,1,1,0l2.29,1.32a.48.48,0,0,1,0,.83l-2.27,1.4a1,1,0,0,1-1,0l-2.35-1.35A.49.49,0,0,1,119.05,110.3Z"/><path class="cls-50" d="M124,113l2.34-1.37a1,1,0,0,1,1,0l2.28,1.32a.48.48,0,0,1,0,.83l-2.28,1.4a1,1,0,0,1-1,0L124,113.8A.48.48,0,0,1,124,113Z"/><path class="cls-50" d="M67.85,86.56l2.34-1.37a1,1,0,0,1,1,0l2.29,1.32a.49.49,0,0,1,0,.84L71.2,88.74a1,1,0,0,1-1,0l-2.35-1.35A.5.5,0,0,1,67.85,86.56Z"/><path class="cls-50" d="M73.09,89.58l2.34-1.37a1,1,0,0,1,1,0l2.29,1.31a.5.5,0,0,1,0,.84l-2.28,1.4a1,1,0,0,1-1,0l-2.34-1.35A.48.48,0,0,1,73.09,89.58Z"/><path class="cls-50" d="M78.17,92.43l2.34-1.37a1,1,0,0,1,1,0l2.28,1.32a.48.48,0,0,1,0,.83l-2.27,1.4a1,1,0,0,1-1,0l-2.34-1.35A.48.48,0,0,1,78.17,92.43Z"/><path class="cls-50" d="M83.58,95.38,85.92,94a1,1,0,0,1,1,0l2.28,1.32a.48.48,0,0,1,0,.83l-2.27,1.4a1,1,0,0,1-1,0l-2.34-1.35A.48.48,0,0,1,83.58,95.38Z"/><path class="cls-50" d="M88.35,98.18l2.34-1.37a1,1,0,0,1,1,0L94,98.13A.48.48,0,0,1,94,99l-2.27,1.4a1,1,0,0,1-1,0L88.35,99A.49.49,0,0,1,88.35,98.18Z"/><path class="cls-50" d="M93.19,101.18l2.34-1.37a1,1,0,0,1,1,0l2.28,1.32a.48.48,0,0,1,0,.83l-2.27,1.4a1,1,0,0,1-1,0L93.2,102A.48.48,0,0,1,93.19,101.18Z"/><path class="cls-50" d="M98.37,104l2.34-1.36a1,1,0,0,1,1,0L104,104a.49.49,0,0,1,0,.84l-2.27,1.39a1,1,0,0,1-1,0l-2.34-1.35A.5.5,0,0,1,98.37,104Z"/><path class="cls-50" d="M103.43,106.89l2.34-1.37a1,1,0,0,1,1,0l2.28,1.32a.49.49,0,0,1,0,.84l-2.27,1.39a1,1,0,0,1-1,0l-2.34-1.35A.48.48,0,0,1,103.43,106.89Z"/><path class="cls-50" d="M108.41,109.94l2.34-1.37a1,1,0,0,1,1,0l2.28,1.32a.48.48,0,0,1,0,.83l-2.27,1.4a1,1,0,0,1-1,0l-2.34-1.35A.48.48,0,0,1,108.41,109.94Z"/><path class="cls-50" d="M113.84,113.14l2.34-1.37a1,1,0,0,1,1,0l2.29,1.32a.49.49,0,0,1,0,.84l-2.28,1.39a1,1,0,0,1-1,0L113.84,114A.49.49,0,0,1,113.84,113.14Z"/><path class="cls-50" d="M118.74,115.8l2.34-1.37a1,1,0,0,1,1,0l2.28,1.32a.49.49,0,0,1,0,.84L122.09,118a1,1,0,0,1-1,0l-2.34-1.35A.48.48,0,0,1,118.74,115.8Z"/><path class="cls-50" d="M62.64,89.4,65,88a1,1,0,0,1,1,0l2.28,1.31a.49.49,0,0,1,0,.84L66,91.58a1,1,0,0,1-1,0l-2.34-1.35A.48.48,0,0,1,62.64,89.4Z"/><path class="cls-50" d="M67.87,92.41,70.21,91a1,1,0,0,1,1,0l2.28,1.32a.49.49,0,0,1,0,.84l-2.27,1.39a1,1,0,0,1-1,0l-2.34-1.35A.48.48,0,0,1,67.87,92.41Z"/><path class="cls-50" d="M73,95.27,75.3,93.9a1,1,0,0,1,1,0l2.29,1.32a.49.49,0,0,1,0,.84l-2.27,1.39a1,1,0,0,1-1,0L73,96.11A.49.49,0,0,1,73,95.27Z"/><path class="cls-50" d="M78.37,98.21l2.34-1.37a1,1,0,0,1,1,0L84,98.16A.49.49,0,0,1,84,99l-2.27,1.39a1,1,0,0,1-1,0l-2.35-1.35A.5.5,0,0,1,78.37,98.21Z"/><path class="cls-50" d="M83.14,101l2.34-1.37a1,1,0,0,1,1,0L88.75,101a.5.5,0,0,1,0,.84l-2.28,1.39a1,1,0,0,1-1,0l-2.34-1.35A.49.49,0,0,1,83.14,101Z"/><path class="cls-50" d="M88,104l2.34-1.37a1,1,0,0,1,1,0L93.59,104a.49.49,0,0,1,0,.84l-2.27,1.39a1,1,0,0,1-1,0L88,104.85A.49.49,0,0,1,88,104Z"/><path class="cls-50" d="M93.16,106.85l2.33-1.37a1,1,0,0,1,1,0l2.28,1.32a.48.48,0,0,1,0,.83L96.5,109a1,1,0,0,1-1,0l-2.34-1.35A.48.48,0,0,1,93.16,106.85Z"/><path class="cls-50" d="M98.22,109.72l2.34-1.37a1,1,0,0,1,1,0l2.29,1.32a.48.48,0,0,1,0,.83l-2.27,1.4a1,1,0,0,1-1,0l-2.35-1.35A.49.49,0,0,1,98.22,109.72Z"/><path class="cls-50" d="M103.2,112.77l2.34-1.37a1,1,0,0,1,1,0l2.29,1.32a.49.49,0,0,1,0,.84L106.55,115a1,1,0,0,1-1,0l-2.35-1.35A.5.5,0,0,1,103.2,112.77Z"/><path class="cls-50" d="M108.62,116,111,114.6a1,1,0,0,1,1,0l2.28,1.32a.48.48,0,0,1,0,.83l-2.27,1.4a1,1,0,0,1-1,0l-2.34-1.35A.48.48,0,0,1,108.62,116Z"/><path class="cls-50" d="M113.53,118.63l2.34-1.37a1,1,0,0,1,1,0l2.29,1.32a.48.48,0,0,1,0,.83l-2.27,1.4a1,1,0,0,1-1,0l-2.35-1.35A.49.49,0,0,1,113.53,118.63Z"/><path class="cls-50" d="M57.42,92.23l2.34-1.37a1,1,0,0,1,1,0L63,92.18A.49.49,0,0,1,63,93l-2.27,1.39a1,1,0,0,1-1,0l-2.34-1.35A.48.48,0,0,1,57.42,92.23Z"/><path class="cls-50" d="M62.66,95.25,65,93.88a1,1,0,0,1,1,0l2.29,1.32a.49.49,0,0,1,0,.84L66,97.42a1,1,0,0,1-1,0l-2.35-1.35A.49.49,0,0,1,62.66,95.25Z"/><path class="cls-50" d="M67.75,98.1l2.34-1.37a1,1,0,0,1,1,0l2.29,1.32a.48.48,0,0,1,0,.83l-2.28,1.4a1,1,0,0,1-1,0l-2.34-1.35A.48.48,0,0,1,67.75,98.1Z"/><path class="cls-50" d="M73.16,101.05l2.34-1.37a1,1,0,0,1,1,0L78.77,101a.49.49,0,0,1,0,.84l-2.28,1.4a1,1,0,0,1-1,0l-2.34-1.35A.49.49,0,0,1,73.16,101.05Z"/><path class="cls-50" d="M78.37,104.16l2.34-1.37a1,1,0,0,1,1,0l11.9,6.87a.48.48,0,0,1,0,.83l-2.27,1.4a1,1,0,0,1-1,0l-12-6.9A.49.49,0,0,1,78.37,104.16Z"/><path class="cls-50" d="M93,112.56l2.34-1.37a1,1,0,0,1,1,0l2.29,1.32a.49.49,0,0,1,0,.84l-2.28,1.39a1,1,0,0,1-1,0L93,113.4A.48.48,0,0,1,93,112.56Z"/><path class="cls-50" d="M98,115.61l2.34-1.37a1,1,0,0,1,1,0l2.29,1.32a.49.49,0,0,1,0,.83l-2.28,1.4a1,1,0,0,1-1,0L98,116.45A.48.48,0,0,1,98,115.61Z"/><path class="cls-50" d="M103.41,118.8l2.34-1.37a1,1,0,0,1,1,0l2.28,1.32a.49.49,0,0,1,0,.84L106.76,121a1,1,0,0,1-1,0l-2.34-1.35A.49.49,0,0,1,103.41,118.8Z"/><path class="cls-50" d="M108.32,121.47l2.34-1.37a1,1,0,0,1,1,0l2.29,1.32a.49.49,0,0,1,0,.84l-2.27,1.39a1,1,0,0,1-1,0l-2.34-1.35A.49.49,0,0,1,108.32,121.47Z"/><path class="cls-51" d="M140.13,33.42a3,3,0,0,0-1.34-2.33L85.45.14a1,1,0,0,0-1,0l-.83.42L84,73.15a3,3,0,0,0,1.34,2.32l54,32.08.83.48Z"/><path class="cls-49" d="M139.3,34A3,3,0,0,0,138,31.7L84.51.66c-.73-.42-1.33-.08-1.33.77V75l56.12,32.59Z"/><path class="cls-52" d="M138,31.7,84.51.66c-.73-.42-1.33-.08-1.33.77V4.92L139.3,37.51V34A3,3,0,0,0,138,31.7Z"/><path class="cls-49" d="M86.14,3.6c-.24-.14-.43,0-.43.25a1,1,0,0,0,.43.75c.24.14.44,0,.44-.25A.94.94,0,0,0,86.14,3.6Z"/><path class="cls-49" d="M88,4.72c-.24-.14-.43,0-.43.25a1,1,0,0,0,.43.76.27.27,0,0,0,.44-.25A1,1,0,0,0,88,4.72Z"/><path class="cls-49" d="M89.94,5.85c-.24-.14-.44,0-.44.25a.94.94,0,0,0,.44.75c.24.14.44,0,.44-.25A1,1,0,0,0,89.94,5.85Z"/><polygon class="cls-50" points="98.32 26.19 98.32 27.82 136.48 50.13 136.48 48.52 98.32 26.19"/><polygon class="cls-50" points="98.32 30.6 98.32 32.23 136.48 54.55 136.48 52.93 98.32 30.6"/><polygon class="cls-50" points="98.32 35.02 98.32 36.65 121.25 50.13 121.25 48.52 98.32 35.02"/><polygon class="cls-50" points="98.32 47.27 98.32 48.89 136.48 71.21 136.48 69.59 98.32 47.27"/><polygon class="cls-50" points="98.32 51.68 98.32 53.31 136.48 75.62 136.48 74 98.32 51.68"/><polygon class="cls-50" points="98.32 56.09 98.32 57.72 121.25 71.21 121.25 69.59 98.32 56.09"/><polygon class="cls-50" points="98.32 68.34 98.32 69.97 136.48 92.28 136.48 90.66 98.32 68.34"/><polygon class="cls-50" points="98.32 72.75 98.32 74.38 136.48 96.69 136.48 95.08 98.32 72.75"/><polygon class="cls-50" points="98.32 77.16 98.32 78.79 121.25 92.28 121.25 90.66 98.32 77.16"/><path class="cls-45" d="M91.82,23.29C89.5,22,87.61,23,87.61,25.72A9.34,9.34,0,0,0,91.82,33c2.31,1.34,4.21.25,4.21-2.43A9.35,9.35,0,0,0,91.82,23.29Z"/><path class="cls-49" d="M91.2,30.46l-1.5-1.82a.59.59,0,1,1,.9-.75l.77.94,1.89-1.49a.59.59,0,1,1,.73.92Z"/><path class="cls-45" d="M91.82,44.36c-2.32-1.34-4.21-.24-4.21,2.43a9.34,9.34,0,0,0,4.21,7.3c2.31,1.33,4.21.24,4.21-2.44A9.36,9.36,0,0,0,91.82,44.36Z"/><path class="cls-49" d="M91.2,51.53l-1.5-1.82a.58.58,0,0,1,.9-.74l.77.93,1.89-1.49a.59.59,0,1,1,.73.92Z"/><path class="cls-45" d="M91.82,65.44c-2.32-1.34-4.21-.25-4.21,2.43a9.34,9.34,0,0,0,4.21,7.29C94.13,76.5,96,75.4,96,72.73A9.33,9.33,0,0,0,91.82,65.44Z"/><path class="cls-49" d="M91.2,72.61l-1.5-1.82a.59.59,0,1,1,.9-.75l.77.93,1.89-1.49a.6.6,0,0,1,.83.1.59.59,0,0,1-.1.82Z"/><path class="cls-53" d="M140.16,47.48l-27-15.56a2.9,2.9,0,0,0-3.39.36,1.07,1.07,0,0,0-.15.22l0,0a1.22,1.22,0,0,0-.18.36,1.08,1.08,0,0,0-.07.31s0,.07,0,.1V75.88h0a3.77,3.77,0,0,0,1.7,3l6.27,3.61,22.89,13.19Z"/><path class="cls-54" d="M112,30.59h0a2.88,2.88,0,0,1,3.39-.37l43.86,25.26a3.79,3.79,0,0,1,1.7,3V100.9a2.3,2.3,0,0,1-1.69,2.21h0a1.53,1.53,0,0,1-1.18-.16L113.26,77.14a3.77,3.77,0,0,1-1.7-3V31.61A1.36,1.36,0,0,1,112,30.59Z"/><path class="cls-55" d="M111.56,31.74c0-1.08.76-1.53,1.7-1l44.62,25.71a3.77,3.77,0,0,1,1.7,2.95v42.45c0,1.08-.76,1.52-1.7,1L113.26,77.13a3.75,3.75,0,0,1-1.7-2.94Z"/><path class="cls-56" d="M157.88,56.46,113.26,30.75c-.94-.54-1.7-.09-1.7,1v4.71l48,27.68V59.41A3.77,3.77,0,0,0,157.88,56.46Z"/><polygon class="cls-50" points="113.97 40.72 113.97 50.51 122.59 55.44 122.59 45.65 113.97 40.72"/><polygon class="cls-50" points="113.97 53.58 113.97 63.37 122.59 68.29 122.59 58.5 113.97 53.58"/><polygon class="cls-50" points="113.97 66.43 113.97 76.22 122.59 81.15 122.59 71.36 113.97 66.43"/><path class="cls-49" d="M116.18,35c-.45-.26-.82,0-.82.47a1.82,1.82,0,0,0,.82,1.42c.45.26.82.05.82-.47A1.82,1.82,0,0,0,116.18,35Z"/><path class="cls-49" d="M119,36.66c-.45-.26-.82,0-.82.47a1.82,1.82,0,0,0,.82,1.42c.45.26.82.05.82-.47A1.82,1.82,0,0,0,119,36.66Z"/><path class="cls-49" d="M121.78,38.31c-.45-.26-.82-.05-.82.47a1.82,1.82,0,0,0,.82,1.42c.45.26.81,0,.81-.47A1.81,1.81,0,0,0,121.78,38.31Z"/><path class="cls-57" d="M129.47,57.65l-.58-1.92-2.33-1.26-.46,1.37-1.32-.71,2.13-6.35,1.2.65,2.68,8.93Zm-1.87-6.27L127,53.23l1.4.74Z"/><path class="cls-57" d="M128.06,68.43l-2.44-1.31-.27-7.64,2.17,1.16a4.83,4.83,0,0,1,1,.71,3.13,3.13,0,0,1,.63.84,3.7,3.7,0,0,1,.43,1.53c0,.6-.11,1-.38,1.11a.58.58,0,0,1-.19.08.81.81,0,0,1-.2,0,3.31,3.31,0,0,1,.85,1.09,3.27,3.27,0,0,1,.35,1.37,1.58,1.58,0,0,1-.35,1.19C129.35,68.89,128.82,68.84,128.06,68.43Zm-1.36-5.19.59.32a1.75,1.75,0,0,0,.76.26c.17,0,.24-.19.23-.53a1.29,1.29,0,0,0-.25-.8,2.73,2.73,0,0,0-.79-.58l-.6-.32Zm.11,3.1.85.46a1.46,1.46,0,0,0,.8.25c.17,0,.25-.21.24-.56a1.32,1.32,0,0,0-.31-.86,3.29,3.29,0,0,0-.91-.65l-.73-.4Z"/><path class="cls-57" d="M128.12,80.4a1,1,0,0,0,1.46-.19l.84,1.56a1.65,1.65,0,0,1-2.18.26,5.47,5.47,0,0,1-2.16-2.25,7.18,7.18,0,0,1-.93-3.27,2.84,2.84,0,0,1,.75-2.38,1.69,1.69,0,0,1,2,0,5.92,5.92,0,0,1,2.35,2.67l-.74.78a3.66,3.66,0,0,0-1.5-1.79,1,1,0,0,0-1.17,0,1.62,1.62,0,0,0-.44,1.43,4.22,4.22,0,0,0,.53,2A3.05,3.05,0,0,0,128.12,80.4Z"/><polygon class="cls-50" points="132.06 50.99 132.06 52.98 157.19 67.79 157.19 65.82 132.06 50.99"/><polygon class="cls-50" points="132.06 56.38 132.06 58.37 148 67.78 148 65.81 132.06 56.38"/><polygon class="cls-50" points="132.06 63.85 132.06 65.84 157.19 80.65 157.19 78.67 132.06 63.85"/><polygon class="cls-50" points="132.06 69.23 132.06 71.22 148 80.64 148 78.67 132.06 69.23"/><polygon class="cls-50" points="132.06 76.7 132.06 78.69 157.19 93.5 157.19 91.53 132.06 76.7"/><polygon class="cls-50" points="132.06 82.09 132.06 84.07 148 93.49 148 91.52 132.06 82.09"/><path class="cls-58" d="M78.41,168.89h0A2.39,2.39,0,0,1,76,166.5l0-63.56h4.77l0,63.56A2.39,2.39,0,0,1,78.41,168.89Z"/><path class="cls-59" d="M80.8,162.65H76v3.86a2.39,2.39,0,0,0,2.38,2.39h0a2.39,2.39,0,0,0,2.38-2.39Z"/><polygon class="cls-60" points="76.06 102.94 78.47 97.19 80.83 102.94 76.06 102.94"/><polygon class="cls-45" points="77.88 98.57 78.45 97.19 79.02 98.57 77.88 98.57"/><path class="cls-45" d="M80.8,162.8v-.61a10.3,10.3,0,0,1-4.78,0v.61a10.91,10.91,0,0,0,2.43.28A10.78,10.78,0,0,0,80.8,162.8Z"/><path class="cls-45" d="M76,160.68v.61a11.07,11.07,0,0,0,4.77,0v-.61A10.25,10.25,0,0,1,76,160.68Z"/><path class="cls-57" d="M59.88,166.35l-.64,2.23a1.56,1.56,0,0,0,.76,1.33l.3.21a4.31,4.31,0,0,0,4.22.07l3.91-2.12a.67.67,0,0,0,0-1.17h0a4.5,4.5,0,0,0-2.42-1,8.67,8.67,0,0,1-1.13.12l-1.81.25Z"/><path class="cls-61" d="M61.66,168.56a2.25,2.25,0,0,0,2.23-2.14l.64-14.72,1-15.4c0-1.23-2.78-2.31-4-2.24s-1.9,2.3-1.85,3.53l.34,14.11-.17,14.41c-.05,1.23.44,2.39,1.68,2.44Z"/><path class="cls-62" d="M62.85,139.36a1.4,1.4,0,0,0,.58-.21,1.3,1.3,0,0,0,.35-1.81l-4-6a5.81,5.81,0,0,1,.38-6.93l3.76-4.47a1.3,1.3,0,0,0-2-1.67l-3.75,4.46a8.43,8.43,0,0,0-.56,10.06l4,6A1.3,1.3,0,0,0,62.85,139.36Z"/><path class="cls-63" d="M59.31,125a1.43,1.43,0,0,0,1-.52L64,120.05a1.49,1.49,0,1,0-2.28-1.91L58,122.6a1.49,1.49,0,0,0,.18,2.1A1.45,1.45,0,0,0,59.31,125Z"/><path class="cls-57" d="M66.22,169.89l-.64,2.23a1.54,1.54,0,0,0,.77,1.33l.3.21a4.31,4.31,0,0,0,4.22.07l3.9-2.12a.67.67,0,0,0,0-1.17h0a4.53,4.53,0,0,0-2.43-1,8.52,8.52,0,0,1-1.12.12l-1.81.25Z"/><path class="cls-64" d="M69.69,138.38v-8.85c0-.85,1.77-.27,1-.69L63,124.39c-1.47-.85-2.41,7.11-2.41,8.8l-.9,6.7a2.35,2.35,0,0,0,1.19,2.05l3.78,2.12,1.72,11.18-.17,14.41c-.06,1.23.44,2.39,1.67,2.44H68A2.23,2.23,0,0,0,70.23,170l.64-14.72-.64-15.5A2.2,2.2,0,0,0,69.69,138.38Z"/><path class="cls-65" d="M59.88,121.32l.42,6.49c-.14,1.38-.09,2.76-.23,4.14a62.38,62.38,0,0,0-.36,6.67c.1.5,4.22,2,4.38,2.09,2.32,1,4.66,1.4,6.53.5l.1-6.7.39-4.95c.23-3.38.89-7.9-2.44-10l-.44-.25-3.54-1.94a2.71,2.71,0,0,0-2.7,0h0A4.24,4.24,0,0,0,59.88,121.32Z"/><path class="cls-62" d="M65.3,119.6a1.21,1.21,0,0,1-1.21-1.21v-4.73a1.21,1.21,0,0,1,2.41,0v4.73A1.21,1.21,0,0,1,65.3,119.6Z"/><path class="cls-62" d="M64.51,109.72h5.93a0,0,0,0,1,0,0v2.85a5.16,5.16,0,0,1-5.16,5.16h-.77a0,0,0,0,1,0,0v-8A0,0,0,0,1,64.51,109.72Z" transform="translate(12.63 -6.6) rotate(6.18)"/><path class="cls-45" d="M69,111.54c-.32.2-.46.5-.19,1,.11.2.33.67.14.88s-.47,0-.69-.08c-.51-.09-.36.51-.42.84-.22,1.31-1.53,2.9-3,2.82-.88,0-1.38-1-1.53-1.92a14.67,14.67,0,0,1,0-4,4.7,4.7,0,0,1,.67-2.37,3.22,3.22,0,0,1,2.1-1.18,9.14,9.14,0,0,1,2.45,0,9.38,9.38,0,0,1,2.47.35c.51.19,1.2.72,1.18,1.32A2.08,2.08,0,0,1,70.81,111,12.9,12.9,0,0,0,69,111.54Z"/><path class="cls-66" d="M67.82,122.91a1.31,1.31,0,0,1,1.62.89l1.66,5.78-.34,4.47a3.3,3.3,0,0,1-1.67-2l-2.16-7.49A1.31,1.31,0,0,1,67.82,122.91Z"/><path class="cls-62" d="M72.42,133a3.3,3.3,0,0,0,2.94-1.77l2.91-5.45a1.3,1.3,0,0,0-2.3-1.23L73.06,130a.75.75,0,0,1-1.36-.12l-2.46-7.39a1.31,1.31,0,1,0-2.48.82l2.47,7.4a3.29,3.29,0,0,0,2.89,2.27Z"/><path class="cls-67" d="M69.38,128.49a1.55,1.55,0,0,0,.47-.08,1.5,1.5,0,0,0,.94-1.89l-1.38-4.13a1.49,1.49,0,1,0-2.82.94L68,127.47A1.49,1.49,0,0,0,69.38,128.49Z"/><path class="cls-62" d="M75.21,127.83a.38.38,0,0,0,.32-.24l2.06-5.18a.37.37,0,1,0-.69-.28l-2.06,5.19a.37.37,0,0,0,.21.48A.45.45,0,0,0,75.21,127.83Z"/><path class="cls-62" d="M75.81,127.52a.37.37,0,0,0,.34-.21l2.44-5a.37.37,0,0,0-.17-.5.38.38,0,0,0-.5.17l-2.44,5a.37.37,0,0,0,.17.49A.32.32,0,0,0,75.81,127.52Z"/><path class="cls-62" d="M76,128.21a.37.37,0,0,0,.35-.19l2.72-4.87a.38.38,0,1,0-.66-.36l-2.71,4.87a.37.37,0,0,0,.14.51A.32.32,0,0,0,76,128.21Z"/><path class="cls-62" d="M75.62,128.88a.38.38,0,0,0,.37-.13l3.43-4.4a.37.37,0,0,0-.58-.46l-3.44,4.4a.37.37,0,0,0,.07.52A.26.26,0,0,0,75.62,128.88Z"/><path class="cls-62" d="M76.06,126.41a.39.39,0,0,0,.15-.37l-.37-2.34a.37.37,0,0,0-.74.11l.37,2.35a.39.39,0,0,0,.43.31A.44.44,0,0,0,76.06,126.41Z"/><path class="cls-45" d="M32.58,155.49l1.34-.79,1.39-.8,3.14-1.82a1.07,1.07,0,0,0-.17-1.93h0a2.36,2.36,0,0,0-1.84.1L34,151.42l-2.94,1.08a.61.61,0,0,0-.39.59l.05.79a1.71,1.71,0,0,0,1.7,1.61Z"/><path class="cls-62" d="M32.11,151.89l1.92-.47,1.42-.69a1.06,1.06,0,0,1,0,1.85l-2.12,1.21-.1.06a1.51,1.51,0,0,1-1.81-.23c-.36-.36-.66-.72-.55-.87l.83-.27A.61.61,0,0,1,32.11,151.89Z"/><path class="cls-62" d="M32.51,154.05c.91,0,1.32-.74,1.32-1.65L35,123.17c0-.92-1.94-2.86-2.85-2.86S30,130.88,30,131.8l.57,6.17.32,14.43A1.65,1.65,0,0,0,32.51,154.05Z"/><path class="cls-62" d="M33.14,124.49a1.31,1.31,0,0,0,.63-.16,1.33,1.33,0,0,0,.53-1.8l-4.35-8a2,2,0,0,1,.61-2.56l5.69-3.89a1.32,1.32,0,0,0-1.49-2.19l-5.69,3.89a4.59,4.59,0,0,0-1.45,6l4.35,8A1.34,1.34,0,0,0,33.14,124.49Z"/><path class="cls-45" d="M38.5,158.88l1.34-.78,1.39-.8,3.14-1.82a1.07,1.07,0,0,0-.17-1.93h0a2.35,2.35,0,0,0-1.84.1l-2.42,1.17L37,155.9a.59.59,0,0,0-.39.59l.05.78a1.69,1.69,0,0,0,1.7,1.61Z"/><path class="cls-62" d="M38,155.29l1.91-.47,1.43-.69a1.05,1.05,0,0,1,0,1.84l-2.12,1.22-.1.06a1.53,1.53,0,0,1-1.81-.23c-.36-.36-.67-.72-.55-.87l.83-.27A.58.58,0,0,1,38,155.29Z"/><path class="cls-62" d="M38.43,157.45c.91,0,1.32-.74,1.32-1.65V125.36a1.65,1.65,0,0,0-1.65-1.65c-.92,0-4.4,1.31-4.4,2.22L36,141.5l.77,14.3A1.65,1.65,0,0,0,38.43,157.45Z"/><path class="cls-68" d="M30,103.28a2.53,2.53,0,0,1,3.73-2.23l0,0a2.27,2.27,0,0,1,.75.73c2.5,4.1,5.69,5,5.69,9.24l-1,7.54L40.35,126l.4,12.82a4.58,4.58,0,0,1-2.76.65c-.1,0-1.23-.06-1.48-.11-2.82-.49-5.47-.67-6.54-2.79l-.42-5.37a31.75,31.75,0,0,1,1.21-10.88h0Z"/><path class="cls-62" d="M34.21,110.36a1.46,1.46,0,0,0,.22,0l1.35,0a17.72,17.72,0,0,0,14.95-7.25L52.3,101a1.32,1.32,0,0,0-2.14-1.56l-1.57,2.15a15,15,0,0,1-12.71,6.16l-1.36-.05a1.32,1.32,0,0,0-.31,2.62Z"/><path class="cls-62" d="M34.05,103.7h0a1,1,0,0,0,1-1V98.2h-2v4.52A1,1,0,0,0,34.05,103.7Z"/><path class="cls-62" d="M32.06,101.27l2,.26a2.29,2.29,0,0,0,2.62-2.44c0-.08,0-.16,0-.24l-1-4.62-4.84,1Z"/><path class="cls-69" d="M35,123.17a16,16,0,0,1-4.81-.73c.16-.73.33-1.45.54-2.17l0-.45a13.8,13.8,0,0,0,8.64,0l.42,2.65A15.7,15.7,0,0,1,35,123.17Z"/><path class="cls-62" d="M50,100.75h0a.35.35,0,0,0,.49-.1L52.26,98a.34.34,0,0,0-.09-.48h0a.35.35,0,0,0-.49.09l-1.77,2.64A.35.35,0,0,0,50,100.75Z"/><rect class="cls-62" x="49.59" y="98.91" width="0.78" height="1.88" rx="0.35" transform="translate(97.2 201.03) rotate(-178.43)"/><path class="cls-70" d="M34.14,110.69l.27,0,1.36,0a18,18,0,0,0,3.11-.16,1.65,1.65,0,1,0-.45-3.27,15.39,15.39,0,0,1-2.54.12l-1.36,0a1.66,1.66,0,0,0-.39,3.28Z"/><path class="cls-71" d="M28.18,106.52a3,3,0,0,0,.42-1c.08-.78-.57-1.45-.72-2.22-.23-1.14.56-2.18.51-3.32a10.19,10.19,0,0,1,0-3.57c.06-.19.12-.37.2-.56A4.87,4.87,0,0,1,32.5,93.1,7.83,7.83,0,0,1,34.66,93a3.45,3.45,0,0,1,1.23.33,1,1,0,0,1,.42.35,1.4,1.4,0,0,1,.19.8c-.06.64-.87.86-.94,1.46,0,.3.16.64.19.94a2.29,2.29,0,0,1-.2,1.18c-.31.69-1,1.27-.93,2a8.62,8.62,0,0,0,.22,1c.17,1.19-1.07,2.09-.75,3.29.21.77,1.09,1.33,1,2.12,0,.32-.22.61-.27.93-.11.65.36,1.35.07,2-1,2-4.41,1.69-6,.8a2.54,2.54,0,0,1-1-.88A2.92,2.92,0,0,1,28.18,106.52Z"/><path class="cls-72" d="M17.2,66.26c5.72,3.3,10.4,11.41,10.4,18a9,9,0,0,1-1.26,5l.39,2.58a.57.57,0,0,1-.8.6l-2.32-1c-1.77.59-4,.27-6.41-1.12C11.48,87,6.81,78.87,6.81,72.27S11.48,63,17.2,66.26Z"/><path class="cls-73" d="M24.88,90.36a9.07,9.07,0,0,0,1.27-5c0-6.61-4.68-14.71-10.4-18-2.74-1.58-5.22-1.78-7.08-.84,1.88-2,5-2.29,8.53-.26,5.72,3.3,10.4,11.41,10.4,18a9,9,0,0,1-1.26,5l.39,2.58a.57.57,0,0,1-.8.6l-.79-.35Z"/><path class="cls-49" d="M17.1,81.34l-1.3-.74v-1a2.24,2.24,0,0,1,.1-.9,1.56,1.56,0,0,1,.47-.55l.83-.7a1.1,1.1,0,0,0,.25-.84,2.48,2.48,0,0,0-.29-1.15,1.83,1.83,0,0,0-.72-.8.64.64,0,0,0-.73,0,1.06,1.06,0,0,0-.33.81l-1.4-.8a2.16,2.16,0,0,1,.78-1.78,1.62,1.62,0,0,1,1.71.16,4.51,4.51,0,0,1,1.68,1.73,5.17,5.17,0,0,1,.68,2.55,2.11,2.11,0,0,1-.37,1.4,2.34,2.34,0,0,1-.33.35l-.3.24-.32.25a2.09,2.09,0,0,0-.21.19,1.38,1.38,0,0,0-.19.88Zm-.59,3.22a1.78,1.78,0,0,1-.63-.71,2.05,2.05,0,0,1-.27-1,.79.79,0,0,1,.25-.69.51.51,0,0,1,.62,0,1.74,1.74,0,0,1,.63.7,2.22,2.22,0,0,1,.28,1,.85.85,0,0,1-.25.7A.52.52,0,0,1,16.51,84.56Z"/><path class="cls-74" d="M50.16,52.32A1.26,1.26,0,0,1,49,51.55l-2.26-5.5a6.67,6.67,0,0,1,1.19-7l2-2.23a1.25,1.25,0,0,1,1.76-.09,1.24,1.24,0,0,1,.09,1.75l-2,2.23A4.17,4.17,0,0,0,49,45.1l2.27,5.51a1.25,1.25,0,0,1-.68,1.62A1.35,1.35,0,0,1,50.16,52.32Z"/><path class="cls-45" d="M50,73.6l-1.14.83-3.35,1.35a.66.66,0,0,0-.42.63l-.07.77A.78.78,0,0,0,46,78l4.91-.73.48-.38.42-.07.41.45h.46a.77.77,0,0,0,.78-.78V75.45l-.76-1.85Z"/><path class="cls-57" d="M51.34,75.93c-1.07,0-1.52-.87-1.52-1.94l-.42-9.75,0-14.09a2.21,2.21,0,0,1,2-2.22A2.78,2.78,0,0,1,54,50l-.67,14.15L53,74A1.72,1.72,0,0,1,51.34,75.93Z"/><path class="cls-62" d="M67.24,42.88h0a.37.37,0,0,1-.38-.34l-.16-2.33a.37.37,0,0,1,.34-.39h0a.36.36,0,0,1,.38.34l.16,2.33A.37.37,0,0,1,67.24,42.88Z"/><path class="cls-62" d="M64.19,45.62A5.32,5.32,0,0,1,60.35,44l-3.21-3.29a1.17,1.17,0,1,1,1.68-1.64L62,42.36a3,3,0,0,0,2.16.91h0a3,3,0,0,0,2.16-.92L67.7,41a1.18,1.18,0,0,1,1.67,0,1.17,1.17,0,0,1,0,1.66L68,44a5.28,5.28,0,0,1-3.83,1.62Z"/><path class="cls-62" d="M67.49,42l0,0a.35.35,0,0,1-.12-.47l1.25-2a.34.34,0,0,1,.47-.11l0,0a.34.34,0,0,1,.12.47l-1.25,2A.34.34,0,0,1,67.49,42Z"/><rect class="cls-62" x="68.88" y="39.01" width="0.74" height="3.06" rx="0.34" transform="translate(38.71 -33.66) rotate(37.28)"/><rect class="cls-62" x="69.34" y="39.63" width="0.74" height="3.06" rx="0.34" transform="translate(53.43 -38.14) rotate(47.84)"/><path class="cls-62" d="M68.38,42.85v0a.36.36,0,0,1,.14-.49l2-1.14a.37.37,0,0,1,.49.14v0a.35.35,0,0,1-.14.49l-2,1.13A.36.36,0,0,1,68.38,42.85Z"/><path class="cls-45" d="M56.7,79.84l-1.4,4.61h0a1.25,1.25,0,0,0,.94,1.11l.35.08a1.21,1.21,0,0,0,1-.17h0a3.64,3.64,0,0,0,1.59-2.58l.38-3.14L59,78.64Z"/><path class="cls-75" d="M58,80.7c-1,0-1.55-.75-1.64-1.76L54.94,66.53l-2.45-12-2.81-4.85c-.08-1.07,4.81-1.19,5.87-1.26s3.06,2.84,3.13,3.9l.12,13.9.9,12.36a1.75,1.75,0,0,1-1.47,2.11Z"/><path class="cls-76" d="M68.06,42.27a1.23,1.23,0,0,0-1.75,0,2.92,2.92,0,0,1-2.12.9h0a2.94,2.94,0,0,1-2.11-.89l-2.8-2.87a4.34,4.34,0,0,0-1.54-1.81l-.24-.15-3.71-2.07A3,3,0,0,0,49.36,38V50.65c1.4,2,4.59,3.53,9.42,2.54l.31-4.78.36-5.23.85.87a5.37,5.37,0,0,0,3.89,1.64h0A5.39,5.39,0,0,0,68.09,44,1.24,1.24,0,0,0,68.06,42.27Z"/><path class="cls-49" d="M53.82,38.31l-1.74,1.28v-1a3.31,3.31,0,0,1,.26-1.35L53,35.73l.49.07Z"/><polygon class="cls-77" points="53.83 38.32 54.83 39.67 53.96 41.02 53.02 40.69 52.64 39.18 53.83 38.32"/><path class="cls-62" d="M53.41,34h2a0,0,0,0,1,0,0v3.61a1,1,0,0,1-1,1h-.14a1,1,0,0,1-1-1V34A0,0,0,0,1,53.41,34Z"/><path class="cls-62" d="M54.88,36.51H54c-2.32,0-3.3-1.87-3.3-4.19v-.94A1.29,1.29,0,0,1,52,30.09h2.19a1.66,1.66,0,0,1,1.66,1.66l1,3.57C56.81,35.84,55.41,36.51,54.88,36.51Z"/><path class="cls-45" d="M58.18,32.23a4.16,4.16,0,0,0-2.3-3,6.12,6.12,0,0,0-1.78-.49,5.2,5.2,0,0,0-2.9.25c-1,.46-1.52,1.37-.41,2.13a3.08,3.08,0,0,0,1.57.45,2.53,2.53,0,0,1,1.73.43c.59.56.35,1.56.71,2.29h.27a1.81,1.81,0,0,0,.06-.66c0-.23.23-.48.43-.38s.15.21.17.33a3.55,3.55,0,0,1-.07,1.38c-.11.42-.25.95.11,1.19.6.41,1.61-.73,1.87-1.17A4,4,0,0,0,58.18,32.23Z"/><path class="cls-49" d="M53.82,38.31l1.4,1.94.12-1.18a4.14,4.14,0,0,1,.8-2h0a.3.3,0,0,0-.11-.46l-.44-.21Z"/><path class="cls-45" d="M58.78,52.22c-4.83,1-8-.51-9.42-2.54v1c1.4,2,4.59,3.53,9.42,2.54Z"/><polygon class="cls-78" points="53.99 41.01 53.71 51.44 52.73 52.25 52.18 51.17 53.04 40.68 53.99 41.01"/><g class="cls-79"><path class="cls-4" d="M105.85,147.43l-16.1,9.3a1.58,1.58,0,0,0,0,2.74l16.11,9.07a3.3,3.3,0,0,0,3.25,0l16.12-9.07a1.58,1.58,0,0,0,0-2.74l-16.1-9.3A3.32,3.32,0,0,0,105.85,147.43Z"/><path class="cls-80" d="M105.86,147.48l-16,9.25a1.57,1.57,0,0,0,0,2.73l16,9a3.26,3.26,0,0,0,3.23,0l16-9a1.57,1.57,0,0,0,0-2.73l-16-9.25A3.33,3.33,0,0,0,105.86,147.48Z"/><path class="cls-81" d="M105.87,147.53l-15.94,9.21a1.56,1.56,0,0,0,0,2.71l16,9a3.28,3.28,0,0,0,3.21,0l16-9a1.56,1.56,0,0,0,0-2.71l-16-9.21A3.29,3.29,0,0,0,105.87,147.53Z"/><path class="cls-82" d="M105.88,147.59,90,156.75a1.55,1.55,0,0,0,0,2.7l15.88,8.94a3.26,3.26,0,0,0,3.2,0L125,159.45a1.55,1.55,0,0,0,0-2.7l-15.86-9.16A3.22,3.22,0,0,0,105.88,147.59Z"/><path class="cls-83" d="M105.89,147.64,90.1,156.75a1.55,1.55,0,0,0,0,2.69l15.81,8.9a3.27,3.27,0,0,0,3.18,0l15.8-8.9a1.55,1.55,0,0,0,0-2.69l-15.79-9.11A3.23,3.23,0,0,0,105.89,147.64Z"/><path class="cls-84" d="M105.89,147.69l-15.71,9.07a1.54,1.54,0,0,0,0,2.67l15.72,8.86a3.25,3.25,0,0,0,3.17,0l15.73-8.86a1.54,1.54,0,0,0,0-2.67l-15.71-9.07A3.22,3.22,0,0,0,105.89,147.69Z"/><path class="cls-85" d="M105.9,147.74l-15.63,9a1.54,1.54,0,0,0,0,2.67l15.65,8.81a3.21,3.21,0,0,0,3.15,0l15.65-8.81a1.54,1.54,0,0,0,0-2.67l-15.63-9A3.23,3.23,0,0,0,105.9,147.74Z"/><path class="cls-86" d="M105.91,147.79l-15.55,9a1.52,1.52,0,0,0,0,2.65l15.57,8.76a3.18,3.18,0,0,0,3.13,0l15.57-8.76a1.53,1.53,0,0,0,0-2.65l-15.56-9A3.19,3.19,0,0,0,105.91,147.79Z"/><path class="cls-87" d="M105.92,147.84l-15.48,8.94a1.51,1.51,0,0,0,0,2.63L106,168.13a3.16,3.16,0,0,0,3.12,0l15.49-8.72a1.51,1.51,0,0,0,0-2.63l-15.47-8.94A3.17,3.17,0,0,0,105.92,147.84Z"/><path class="cls-88" d="M105.93,147.89l-15.4,8.89a1.51,1.51,0,0,0,0,2.62L106,168.08a3.17,3.17,0,0,0,3.1,0l15.41-8.68a1.51,1.51,0,0,0,0-2.62l-15.4-8.89A3.18,3.18,0,0,0,105.93,147.89Z"/><path class="cls-89" d="M105.93,147.94l-15.32,8.85a1.51,1.51,0,0,0,0,2.61L106,168a3.15,3.15,0,0,0,3.09,0l15.34-8.63a1.5,1.5,0,0,0,0-2.61l-15.32-8.85A3.16,3.16,0,0,0,105.93,147.94Z"/><path class="cls-90" d="M105.94,148,90.7,156.79a1.5,1.5,0,0,0,0,2.6L106,168a3.11,3.11,0,0,0,3.07,0l15.26-8.59a1.49,1.49,0,0,0,0-2.6L109.07,148A3.13,3.13,0,0,0,105.94,148Z"/><path class="cls-91" d="M106,148.05,90.79,156.8a1.48,1.48,0,0,0,0,2.58L106,167.93a3.14,3.14,0,0,0,3.06,0l15.17-8.55a1.48,1.48,0,0,0,0-2.58l-15.17-8.75A3.09,3.09,0,0,0,106,148.05Z"/><path class="cls-92" d="M106,148.1l-15.09,8.71a1.47,1.47,0,0,0,0,2.56l15.1,8.51a3.1,3.1,0,0,0,3,0l15.1-8.51a1.47,1.47,0,0,0,0-2.56l-15.08-8.71A3.07,3.07,0,0,0,106,148.1Z"/><path class="cls-93" d="M106,148.15l-15,8.66a1.47,1.47,0,0,0,0,2.56l15,8.46a3.12,3.12,0,0,0,3,0l15-8.46a1.48,1.48,0,0,0,0-2.56l-15-8.66A3.08,3.08,0,0,0,106,148.15Z"/><path class="cls-94" d="M106,148.2,91,156.82a1.46,1.46,0,0,0,0,2.54L106,167.77a3,3,0,0,0,3,0L124,159.36a1.46,1.46,0,0,0,0-2.54L109,148.2A3.06,3.06,0,0,0,106,148.2Z"/><path class="cls-95" d="M106,148.25l-14.85,8.58a1.45,1.45,0,0,0,0,2.52L106,167.72a3,3,0,0,0,3,0l14.87-8.37a1.45,1.45,0,0,0,0-2.52L109,148.25A3.07,3.07,0,0,0,106,148.25Z"/><path class="cls-96" d="M106,148.3l-14.77,8.53a1.45,1.45,0,0,0,0,2.52L106,167.67a3,3,0,0,0,3,0l14.78-8.32a1.45,1.45,0,0,0,0-2.52L109,148.3A3,3,0,0,0,106,148.3Z"/><path class="cls-97" d="M106,148.35l-14.7,8.49a1.44,1.44,0,0,0,0,2.5L106,167.62a3,3,0,0,0,3,0l14.71-8.28a1.44,1.44,0,0,0,0-2.5L109,148.35A3,3,0,0,0,106,148.35Z"/><path class="cls-98" d="M106,148.4l-14.62,8.44a1.44,1.44,0,0,0,0,2.49L106,167.57a3,3,0,0,0,3,0l14.63-8.24a1.43,1.43,0,0,0,0-2.49L109,148.4A3,3,0,0,0,106,148.4Z"/><path class="cls-99" d="M106,148.46l-14.54,8.39a1.42,1.42,0,0,0,0,2.47l14.55,8.2a3,3,0,0,0,2.93,0l14.56-8.2a1.42,1.42,0,0,0,0-2.47L109,148.46A3,3,0,0,0,106,148.46Z"/><path class="cls-100" d="M106,148.51l-14.46,8.35a1.42,1.42,0,0,0,0,2.46l14.48,8.15a3,3,0,0,0,2.91,0l14.48-8.15a1.41,1.41,0,0,0,0-2.46L109,148.51A3,3,0,0,0,106,148.51Z"/><path class="cls-101" d="M106,148.56l-14.38,8.3a1.41,1.41,0,0,0,0,2.45l14.4,8.11a3,3,0,0,0,2.9,0l14.39-8.11a1.41,1.41,0,0,0,0-2.45L109,148.56A2.94,2.94,0,0,0,106,148.56Z"/><path class="cls-102" d="M106,148.61l-14.31,8.26a1.4,1.4,0,0,0,0,2.43l14.32,8.06a2.9,2.9,0,0,0,2.88,0l14.32-8.06a1.4,1.4,0,0,0,0-2.43L109,148.61A2.92,2.92,0,0,0,106,148.61Z"/><path class="cls-103" d="M106.05,148.66l-14.23,8.21a1.4,1.4,0,0,0,0,2.43l14.24,8a2.93,2.93,0,0,0,2.87,0l14.24-8a1.4,1.4,0,0,0,0-2.43L109,148.66A2.93,2.93,0,0,0,106.05,148.66Z"/><path class="cls-104" d="M106.05,148.71l-14.14,8.17a1.39,1.39,0,0,0,0,2.41l14.16,8a2.89,2.89,0,0,0,2.85,0l14.17-8a1.39,1.39,0,0,0,0-2.41L109,148.71A2.91,2.91,0,0,0,106.05,148.71Z"/><path class="cls-105" d="M106.06,148.76,92,156.89a1.38,1.38,0,0,0,0,2.39l14.09,7.93a2.88,2.88,0,0,0,2.84,0L123,159.28a1.37,1.37,0,0,0,0-2.39L109,148.76A2.92,2.92,0,0,0,106.06,148.76Z"/><path class="cls-106" d="M106.07,148.81l-14,8.08a1.37,1.37,0,0,0,0,2.38l14,7.89a2.89,2.89,0,0,0,2.82,0l14-7.89a1.37,1.37,0,0,0,0-2.38l-14-8.08A2.88,2.88,0,0,0,106.07,148.81Z"/><path class="cls-107" d="M106.08,148.86l-13.92,8a1.37,1.37,0,0,0,0,2.37l13.93,7.84a2.85,2.85,0,0,0,2.8,0l13.93-7.84a1.36,1.36,0,0,0,0-2.37l-13.91-8A2.86,2.86,0,0,0,106.08,148.86Z"/><path class="cls-108" d="M106.09,148.92l-13.84,8a1.36,1.36,0,0,0,0,2.36l13.85,7.8a2.88,2.88,0,0,0,2.79,0l13.85-7.8a1.36,1.36,0,0,0,0-2.36l-13.84-8A2.83,2.83,0,0,0,106.09,148.92Z"/><path class="cls-109" d="M106.09,149l-13.75,7.94a1.34,1.34,0,0,0,0,2.34L106.12,167a2.84,2.84,0,0,0,2.77,0l13.78-7.76a1.35,1.35,0,0,0,0-2.34L108.92,149A2.81,2.81,0,0,0,106.09,149Z"/><path class="cls-110" d="M106.1,149l-13.68,7.9a1.33,1.33,0,0,0,0,2.32l13.7,7.71a2.77,2.77,0,0,0,2.76,0l13.69-7.71a1.33,1.33,0,0,0,0-2.32L108.91,149A2.82,2.82,0,0,0,106.1,149Z"/><path class="cls-111" d="M106.11,149.07l-13.6,7.85a1.33,1.33,0,0,0,0,2.32l13.62,7.66a2.79,2.79,0,0,0,2.74,0l13.61-7.66a1.34,1.34,0,0,0,0-2.32l-13.61-7.85A2.78,2.78,0,0,0,106.11,149.07Z"/><path class="cls-112" d="M106.12,149.12l-13.53,7.81a1.32,1.32,0,0,0,0,2.3l13.53,7.62a2.77,2.77,0,0,0,2.73,0l13.54-7.62a1.32,1.32,0,0,0,0-2.3l-13.52-7.81A2.76,2.76,0,0,0,106.12,149.12Z"/><path class="cls-113" d="M106.13,149.17l-13.45,7.76a1.32,1.32,0,0,0,0,2.29l13.46,7.58a2.78,2.78,0,0,0,2.71,0l13.46-7.58a1.32,1.32,0,0,0,0-2.29l-13.44-7.76A2.77,2.77,0,0,0,106.13,149.17Z"/><path class="cls-114" d="M106.13,149.22l-13.36,7.72a1.31,1.31,0,0,0,0,2.28l13.38,7.53a2.74,2.74,0,0,0,2.69,0l13.39-7.53a1.31,1.31,0,0,0,0-2.28l-13.37-7.72A2.76,2.76,0,0,0,106.13,149.22Z"/><path class="cls-115" d="M106.14,149.27,92.85,157a1.3,1.3,0,0,0,0,2.26l13.31,7.49a2.72,2.72,0,0,0,2.68,0l13.3-7.49a1.3,1.3,0,0,0,0-2.26l-13.29-7.68A2.77,2.77,0,0,0,106.14,149.27Z"/><path class="cls-116" d="M106.15,149.32,92.94,157a1.3,1.3,0,0,0,0,2.25l13.23,7.45a2.74,2.74,0,0,0,2.66,0l13.22-7.45a1.3,1.3,0,0,0,0-2.25l-13.22-7.63A2.73,2.73,0,0,0,106.15,149.32Z"/><path class="cls-117" d="M106.16,149.38,93,157a1.28,1.28,0,0,0,0,2.23l13.14,7.41a2.72,2.72,0,0,0,2.65,0L122,159.19a1.28,1.28,0,0,0,0-2.23l-13.13-7.58A2.66,2.66,0,0,0,106.16,149.38Z"/><path class="cls-118" d="M106.17,149.43,93.11,157a1.29,1.29,0,0,0,0,2.23l13.07,7.35a2.68,2.68,0,0,0,2.63,0l13.07-7.35a1.28,1.28,0,0,0,0-2.23l-13.05-7.53A2.67,2.67,0,0,0,106.17,149.43Z"/><path class="cls-119" d="M106.17,149.48,93.2,157a1.27,1.27,0,0,0,0,2.21l13,7.31a2.66,2.66,0,0,0,2.62,0l13-7.31a1.28,1.28,0,0,0,0-2.21l-13-7.49A2.66,2.66,0,0,0,106.17,149.48Z"/><path class="cls-120" d="M106.18,149.53,93.28,157a1.26,1.26,0,0,0,0,2.19l12.92,7.27a2.62,2.62,0,0,0,2.6,0l12.91-7.27a1.26,1.26,0,0,0,0-2.19l-12.9-7.45A2.67,2.67,0,0,0,106.18,149.53Z"/><path class="cls-121" d="M106.19,149.58,93.37,157a1.26,1.26,0,0,0,0,2.19l12.84,7.22a2.63,2.63,0,0,0,2.58,0l12.83-7.22a1.26,1.26,0,0,0,0-2.19l-12.83-7.4A2.63,2.63,0,0,0,106.19,149.58Z"/><path class="cls-122" d="M106.2,149.63,93.45,157a1.25,1.25,0,0,0,0,2.17l12.75,7.18a2.62,2.62,0,0,0,2.57,0l12.76-7.18a1.25,1.25,0,0,0,0-2.17l-12.74-7.36A2.61,2.61,0,0,0,106.2,149.63Z"/><path class="cls-123" d="M106.21,149.68,93.54,157a1.25,1.25,0,0,0,0,2.16l12.68,7.14a2.63,2.63,0,0,0,2.55,0l12.68-7.14a1.23,1.23,0,0,0,0-2.15l-12.66-7.32A2.62,2.62,0,0,0,106.21,149.68Z"/><path class="cls-124" d="M106.21,149.73,93.63,157a1.23,1.23,0,0,0,0,2.14l12.6,7.1a2.61,2.61,0,0,0,2.54,0l12.6-7.1a1.23,1.23,0,0,0,0-2.14l-12.59-7.27A2.6,2.6,0,0,0,106.21,149.73Z"/><path class="cls-125" d="M106.22,149.78,93.71,157a1.23,1.23,0,0,0,0,2.13l12.53,7.05a2.57,2.57,0,0,0,2.52,0l12.52-7.05a1.23,1.23,0,0,0,0-2.13l-12.51-7.23A2.61,2.61,0,0,0,106.22,149.78Z"/><path class="cls-126" d="M106.23,149.84,93.8,157a1.22,1.22,0,0,0,0,2.12l12.44,7a2.6,2.6,0,0,0,2.51,0l12.44-7a1.22,1.22,0,0,0,0-2.12l-12.44-7.17A2.53,2.53,0,0,0,106.23,149.84Z"/><path class="cls-127" d="M106.24,149.89,93.89,157a1.2,1.2,0,0,0,0,2.1l12.36,7a2.51,2.51,0,0,0,2.49,0l12.37-7a1.21,1.21,0,0,0,0-2.1l-12.35-7.13A2.51,2.51,0,0,0,106.24,149.89Z"/><path class="cls-128" d="M106.25,149.94,94,157a1.19,1.19,0,0,0,0,2.08L106.27,166a2.53,2.53,0,0,0,2.47,0L121,159.11a1.19,1.19,0,0,0,0-2.08l-12.27-7.09A2.52,2.52,0,0,0,106.25,149.94Z"/><path class="cls-129" d="M106.25,150l-12.19,7a1.2,1.2,0,0,0,0,2.08L106.28,166a2.51,2.51,0,0,0,2.46,0L121,159.11a1.2,1.2,0,0,0,0-2.08l-12.2-7A2.5,2.5,0,0,0,106.25,150Z"/><path class="cls-45" d="M106.26,150l-12.12,7a1.19,1.19,0,0,0,0,2.06l12.14,6.83a2.47,2.47,0,0,0,2.44,0l12.13-6.83a1.18,1.18,0,0,0,0-2.06l-12.12-7A2.51,2.51,0,0,0,106.26,150Z"/></g><path class="cls-130" d="M106.09,148.69,91.66,155.2v2.39a1.54,1.54,0,0,0,.79,1.36l13.67,7.78a2.79,2.79,0,0,0,2.77,0l13.63-7.68a1.56,1.56,0,0,0,.8-1.37v-2.2l-14.4-6.79A2.81,2.81,0,0,0,106.09,148.69Z"/><path class="cls-49" d="M106.09,146.07l-13.76,8a1.35,1.35,0,0,0,0,2.34l13.77,7.76a2.84,2.84,0,0,0,2.77,0l13.78-7.76a1.34,1.34,0,0,0,0-2.34l-13.76-8A2.86,2.86,0,0,0,106.09,146.07Z"/><path class="cls-131" d="M122.68,154l-13.76-8a2.86,2.86,0,0,0-2.83,0l-2.94,1.67,17.16,9.9,2.36-1.28A1.34,1.34,0,0,0,122.68,154Z"/><polygon class="cls-50" points="102.8 154.11 106.03 152.25 102.8 150.39 99.58 152.25 102.8 154.11"/><polygon class="cls-50" points="107.51 156.88 110.73 155.02 107.51 153.16 104.28 155.02 107.51 156.88"/><polygon class="cls-50" points="112.21 159.66 115.44 157.8 112.21 155.94 108.99 157.8 112.21 159.66"/><polygon class="cls-50" points="98.45 156.88 101.67 155.02 98.45 153.16 95.23 155.02 98.45 156.88"/><polygon class="cls-50" points="103.16 159.66 106.38 157.8 103.16 155.94 99.93 157.8 103.16 159.66"/><polygon class="cls-50" points="107.86 162.44 111.08 160.58 107.86 158.72 104.64 160.58 107.86 162.44"/><path class="cls-132" d="M124.74,136.36c5.37-3.1,14.15-3.1,19.52,0s5.37,8.17,0,11.26-14.15,3.1-19.52,0S119.38,139.46,124.74,136.36Z"/><path class="cls-133" d="M144.18,137.87h-1.1a7.08,7.08,0,0,0-1.78-1.4,15.46,15.46,0,0,0-14,0,7.46,7.46,0,0,0-1.78,1.4h-1.1v2.61h0c0,1.47,1,2.94,2.88,4.05a15.46,15.46,0,0,0,14,0c1.93-1.11,2.89-2.58,2.88-4.05h0Z"/><path class="cls-134" d="M127.34,133.84a15.46,15.46,0,0,1,14,0c3.84,2.22,3.84,5.85,0,8.06a15.46,15.46,0,0,1-14,0C123.5,139.69,123.5,136.06,127.34,133.84Z"/><path class="cls-49" d="M128.06,134.26a13.87,13.87,0,0,1,12.52,0c3.45,2,3.45,5.24,0,7.23a13.87,13.87,0,0,1-12.52,0C124.61,139.5,124.61,136.25,128.06,134.26Z"/><path class="cls-45" d="M134.54,138.38a.49.49,0,0,1-.25-.91l3.85-2.22a.48.48,0,0,1,.67.18.49.49,0,0,1-.18.66l-3.85,2.22A.44.44,0,0,1,134.54,138.38Z"/><path class="cls-57" d="M139.31,140.92a.41.41,0,0,1-.19,0l-4.6-2.66a.37.37,0,0,1-.14-.5.35.35,0,0,1,.5-.13l4.61,2.66a.36.36,0,0,1,.13.49A.37.37,0,0,1,139.31,140.92Z"/><path class="cls-45" d="M133.41,137.24a2.48,2.48,0,0,1,2.25,0,.69.69,0,0,1,0,1.3,2.48,2.48,0,0,1-2.25,0A.69.69,0,0,1,133.41,137.24Z"/><ellipse class="cls-45" cx="139.67" cy="134.81" rx="0.56" ry="0.33"/><ellipse class="cls-45" cx="129.31" cy="134.81" rx="0.56" ry="0.33"/><path class="cls-45" d="M128.35,140.69a.87.87,0,0,1,.8,0c.22.12.22.33,0,.46a.93.93,0,0,1-.8,0C128.13,141,128.13,140.81,128.35,140.69Z"/><ellipse class="cls-45" cx="139.99" cy="141.24" rx="0.56" ry="0.33"/></g></g></g></svg>