<svg xmlns="http://www.w3.org/2000/svg" xmlns:xlink="http://www.w3.org/1999/xlink" viewBox="0 0 182.18 171.36"><defs><style>.cls-1{isolation:isolate;}.cls-2{fill:url(#linear-gradient);}.cls-3,.cls-79{mix-blend-mode:multiply;}.cls-3{fill:url(#radial-gradient);}.cls-11,.cls-12,.cls-13,.cls-14,.cls-15,.cls-16,.cls-17,.cls-18,.cls-19,.cls-20,.cls-21,.cls-22,.cls-23,.cls-24,.cls-25,.cls-26,.cls-27,.cls-28,.cls-29,.cls-30,.cls-31,.cls-32,.cls-33,.cls-34,.cls-35,.cls-36,.cls-37,.cls-38,.cls-39,.cls-4,.cls-40,.cls-41,.cls-42,.cls-43,.cls-44,.cls-45,.cls-46,.cls-47,.cls-48,.cls-49,.cls-50,.cls-51,.cls-59,.cls-67,.cls-90{fill:#3c5185;}.cls-5{fill:#2842a2;}.cls-6{opacity:0.83;fill:url(#linear-gradient-2);}.cls-7{fill:#fff;}.cls-8{fill:#6e84b5;opacity:0.49;}.cls-9{fill:url(#linear-gradient-3);}.cls-10{opacity:0.7;}.cls-11{opacity:0;}.cls-12{opacity:0.02;}.cls-13{opacity:0.05;}.cls-14{opacity:0.07;}.cls-15{opacity:0.1;}.cls-16{opacity:0.12;}.cls-17{opacity:0.15;}.cls-18{opacity:0.17;}.cls-19{opacity:0.2;}.cls-20{opacity:0.22;}.cls-21{opacity:0.24;}.cls-22{opacity:0.27;}.cls-23{opacity:0.29;}.cls-24{opacity:0.32;}.cls-25{opacity:0.34;}.cls-26{opacity:0.37;}.cls-27{opacity:0.39;}.cls-28{opacity:0.41;}.cls-29{opacity:0.44;}.cls-30{opacity:0.46;}.cls-31{opacity:0.49;}.cls-32{opacity:0.51;}.cls-33{opacity:0.54;}.cls-34{opacity:0.56;}.cls-35{opacity:0.59;}.cls-36{opacity:0.61;}.cls-37{opacity:0.63;}.cls-38{opacity:0.66;}.cls-39{opacity:0.68;}.cls-40{opacity:0.71;}.cls-41{opacity:0.73;}.cls-42{opacity:0.76;}.cls-43{opacity:0.78;}.cls-44{opacity:0.8;}.cls-45{opacity:0.83;}.cls-46{opacity:0.85;}.cls-47{opacity:0.88;}.cls-48{opacity:0.9;}.cls-49{opacity:0.93;}.cls-50{opacity:0.95;}.cls-51{opacity:0.98;}.cls-52{fill:url(#linear-gradient-4);}.cls-53{fill:#edf3fa;}.cls-54{fill:url(#linear-gradient-5);}.cls-55{fill:#d1e1f2;}.cls-56{fill:url(#linear-gradient-6);}.cls-57{fill:#7ea7df;}.cls-58{fill:#e3edf7;}.cls-59{opacity:0.15;}.cls-60{fill:url(#linear-gradient-7);}.cls-61{fill:#ffc107;}.cls-62{fill:url(#linear-gradient-8);}.cls-63{fill:#f2b1b5;}.cls-64{fill:url(#linear-gradient-9);}.cls-65{fill:url(#linear-gradient-10);}.cls-66{fill:url(#linear-gradient-11);}.cls-67{opacity:0.2;}.cls-68{fill:url(#linear-gradient-12);}.cls-69{fill:url(#linear-gradient-13);}.cls-70{fill:url(#linear-gradient-14);}.cls-71{fill:#4a65a3;}.cls-72{opacity:0.32;}.cls-73{fill:#231f20;}.cls-74{fill:#ebe9ec;}.cls-75{fill:url(#linear-gradient-15);}.cls-76{fill:url(#linear-gradient-16);}.cls-77{fill:url(#linear-gradient-17);}.cls-78{fill:url(#linear-gradient-18);}.cls-79{fill:url(#radial-gradient-2);}.cls-80{opacity:0.4;}.cls-81{fill:url(#linear-gradient-19);}.cls-82{fill:#f6f9fc;}.cls-83{fill:url(#linear-gradient-20);}.cls-84{fill:url(#linear-gradient-21);}.cls-85{fill:url(#linear-gradient-22);}.cls-86{fill:url(#linear-gradient-23);}.cls-87{fill:url(#linear-gradient-24);}.cls-88{fill:url(#linear-gradient-25);}.cls-89{fill:url(#linear-gradient-26);}.cls-90{opacity:0.3;}.cls-91{fill:url(#linear-gradient-27);}.cls-92{fill:url(#linear-gradient-28);}.cls-93{fill:url(#linear-gradient-29);}.cls-94{fill:url(#linear-gradient-30);}.cls-95{fill:url(#linear-gradient-31);}.cls-96{fill:url(#linear-gradient-32);}.cls-97{fill:url(#linear-gradient-33);}</style><linearGradient id="linear-gradient" x1="105.41" y1="171.59" x2="59.22" y2="20.98" gradientUnits="userSpaceOnUse"><stop offset="0.14" stop-color="#fff"/><stop offset="1" stop-color="#e1ebf7"/></linearGradient><radialGradient id="radial-gradient" cx="39.94" cy="7598.59" r="13.11" gradientTransform="translate(0 -3852.02) scale(1 0.52)" gradientUnits="userSpaceOnUse"><stop offset="0" stop-color="#3c5185"/><stop offset="0.05" stop-color="#596b97"/><stop offset="0.14" stop-color="#8592b3"/><stop offset="0.23" stop-color="#abb4ca"/><stop offset="0.33" stop-color="#c9cfdd"/><stop offset="0.43" stop-color="#e1e4ec"/><stop offset="0.54" stop-color="#f2f3f7"/><stop offset="0.66" stop-color="#fcfcfd"/><stop offset="0.8" stop-color="#fff"/></radialGradient><linearGradient id="linear-gradient-2" x1="30.43" y1="61.27" x2="49.5" y2="61.27" gradientUnits="userSpaceOnUse"><stop offset="0.02" stop-color="#ffc107"/><stop offset="0.14" stop-color="#ffbc06"/><stop offset="1" stop-color="#ff9800"/></linearGradient><linearGradient id="linear-gradient-3" x1="24.28" y1="48.27" x2="55.75" y2="48.27" xlink:href="#linear-gradient-2"/><linearGradient id="linear-gradient-4" x1="66.85" y1="62.8" x2="139.67" y2="62.8" gradientUnits="userSpaceOnUse"><stop offset="0" stop-color="#fff"/><stop offset="0.4" stop-color="#d5e7f8"/><stop offset="0.79" stop-color="#b2d3f1"/><stop offset="1" stop-color="#a5cbef"/></linearGradient><linearGradient id="linear-gradient-5" x1="18.8" y1="107.23" x2="137.68" y2="107.23" gradientUnits="userSpaceOnUse"><stop offset="0" stop-color="#a5cbef"/><stop offset="0.21" stop-color="#b2d3f1"/><stop offset="0.6" stop-color="#d5e7f8"/><stop offset="1" stop-color="#fff"/></linearGradient><linearGradient id="linear-gradient-6" x1="74.55" y1="51.26" x2="128.17" y2="51.26" xlink:href="#linear-gradient-4"/><linearGradient id="linear-gradient-7" x1="86.98" y1="61.78" x2="100.6" y2="61.78" gradientUnits="userSpaceOnUse"><stop offset="0" stop-color="#fff"/><stop offset="0.36" stop-color="#e8f2fb"/><stop offset="1" stop-color="#c2dcf4"/></linearGradient><linearGradient id="linear-gradient-8" x1="251.12" y1="131.6" x2="342.59" y2="131.6" gradientTransform="translate(-162.25)" gradientUnits="userSpaceOnUse"><stop offset="0" stop-color="#ff9800"/><stop offset="1" stop-color="#ffc107"/></linearGradient><linearGradient id="linear-gradient-9" x1="70.97" y1="80.97" x2="82.76" y2="80.97" gradientUnits="userSpaceOnUse"><stop offset="0" stop-color="#a8d9fb"/><stop offset="1" stop-color="#fff"/></linearGradient><linearGradient id="linear-gradient-10" x1="75.82" y1="66.72" x2="82.15" y2="73.22" xlink:href="#linear-gradient-9"/><linearGradient id="linear-gradient-11" x1="69.14" y1="64.03" x2="81.01" y2="64.03" gradientTransform="matrix(1, 0, 0, 1, 0, 0)" xlink:href="#linear-gradient-8"/><linearGradient id="linear-gradient-12" x1="118.55" y1="26.67" x2="132.62" y2="26.67" gradientUnits="userSpaceOnUse"><stop offset="0" stop-color="#fff"/><stop offset="1" stop-color="#ff9800"/></linearGradient><linearGradient id="linear-gradient-13" x1="117.92" y1="26.89" x2="131.99" y2="26.89" gradientTransform="matrix(1, 0, 0, 1, 0, 0)" xlink:href="#linear-gradient-8"/><linearGradient id="linear-gradient-14" x1="115.92" y1="50.03" x2="135.76" y2="50.03" gradientUnits="userSpaceOnUse"><stop offset="0" stop-color="#fff"/><stop offset="1" stop-color="#4a65a3"/></linearGradient><linearGradient id="linear-gradient-15" x1="137.84" y1="40.64" x2="147.01" y2="40.64" xlink:href="#linear-gradient-4"/><linearGradient id="linear-gradient-16" x1="146.31" y1="48.09" x2="137.88" y2="33.65" gradientUnits="userSpaceOnUse"><stop offset="0" stop-color="#5d7dbe"/><stop offset="1" stop-color="#a5cbef"/></linearGradient><linearGradient id="linear-gradient-17" x1="136.95" y1="25.26" x2="143.97" y2="25.26" gradientUnits="userSpaceOnUse"><stop offset="0" stop-color="#fff"/><stop offset="1" stop-color="#3c5185"/></linearGradient><linearGradient id="linear-gradient-18" x1="97.57" y1="21.45" x2="113.41" y2="21.45" xlink:href="#linear-gradient-17"/><radialGradient id="radial-gradient-2" cx="71.28" cy="7756.35" r="15.41" gradientTransform="translate(0 -3852.02) scale(1 0.52)" gradientUnits="userSpaceOnUse"><stop offset="0" stop-color="#3c5185"/><stop offset="0.06" stop-color="#506291"/><stop offset="0.25" stop-color="#8d9ab8"/><stop offset="0.43" stop-color="#bec5d7"/><stop offset="0.59" stop-color="#e2e5ed"/><stop offset="0.72" stop-color="#f7f8fa"/><stop offset="0.8" stop-color="#fff"/></radialGradient><linearGradient id="linear-gradient-19" x1="44.8" y1="154.23" x2="22.36" y2="110.19" gradientUnits="userSpaceOnUse"><stop offset="0" stop-color="#a5cbef"/><stop offset="0.02" stop-color="#a7ccef"/><stop offset="0.25" stop-color="#c1daf5"/><stop offset="0.49" stop-color="#d4e3f9"/><stop offset="0.73" stop-color="#dfe9fb"/><stop offset="1" stop-color="#e3ebfc"/></linearGradient><linearGradient id="linear-gradient-20" x1="9.95" y1="129.06" x2="40.91" y2="129.06" gradientUnits="userSpaceOnUse"><stop offset="0" stop-color="#3c5185"/><stop offset="0.13" stop-color="#41588e"/><stop offset="0.69" stop-color="#5573b1"/><stop offset="1" stop-color="#5d7dbe"/></linearGradient><linearGradient id="linear-gradient-21" x1="12.61" y1="128.11" x2="15.39" y2="128.11" gradientUnits="userSpaceOnUse"><stop offset="0" stop-color="#ff9800"/><stop offset="0.63" stop-color="#ffb004"/><stop offset="1" stop-color="#ffc107"/></linearGradient><linearGradient id="linear-gradient-22" x1="18.9" y1="133.42" x2="21.1" y2="133.42" xlink:href="#linear-gradient-21"/><linearGradient id="linear-gradient-23" x1="14.13" y1="132.34" x2="15.65" y2="132.34" xlink:href="#linear-gradient-21"/><linearGradient id="linear-gradient-24" x1="10.94" y1="134.53" x2="13.66" y2="134.53" xlink:href="#linear-gradient-21"/><linearGradient id="linear-gradient-25" x1="15.87" y1="138.9" x2="17.44" y2="138.9" xlink:href="#linear-gradient-21"/><linearGradient id="linear-gradient-26" x1="10.94" y1="137.95" x2="12.7" y2="137.95" xlink:href="#linear-gradient-21"/><linearGradient id="linear-gradient-27" x1="31.46" y1="117.27" x2="45.63" y2="117.27" xlink:href="#linear-gradient-20"/><linearGradient id="linear-gradient-28" x1="35.39" y1="119.53" x2="49.55" y2="119.53" xlink:href="#linear-gradient-20"/><linearGradient id="linear-gradient-29" x1="28.59" y1="119.15" x2="39.19" y2="119.15" xlink:href="#linear-gradient-20"/><linearGradient id="linear-gradient-30" x1="36.8" y1="107.85" x2="49.83" y2="107.85" xlink:href="#linear-gradient-5"/><linearGradient id="linear-gradient-31" x1="1590.93" y1="107.94" x2="1602.92" y2="107.94" gradientTransform="matrix(-1, 0, 0, 1, 1640.1, 0)" xlink:href="#linear-gradient-21"/><linearGradient id="linear-gradient-32" x1="29.98" y1="114.06" x2="46.77" y2="114.06" xlink:href="#linear-gradient-5"/><linearGradient id="linear-gradient-33" x1="29.95" y1="94.8" x2="39.4" y2="94.8" xlink:href="#linear-gradient-20"/></defs><title>webentwicklung_1</title><g class="cls-1"><g id="Ebene_2" data-name="Ebene 2"><g id="Web_Design" data-name="Web Design"><path class="cls-2" d="M166.21,99c0,42.45-41.91,72.35-84.36,72.35S0,141.46,0,99,40.41,17.16,82.85,17.16,166.21,56.57,166.21,99Z"/><ellipse class="cls-3" cx="39.94" cy="77.62" rx="12.98" ry="7.5"/><path class="cls-4" d="M42.63,76.78l-.52.44H37.54l-.5-.46a7.1,7.1,0,0,1-2.29-5.23v-2H45.18v1.79A7.1,7.1,0,0,1,42.63,76.78Z"/><path class="cls-4" d="M40.63,78.61h-1.7a1.52,1.52,0,0,1-1.52-1.51h4.74A1.52,1.52,0,0,1,40.63,78.61Z"/><path class="cls-5" d="M43.63,67.43a8.16,8.16,0,0,0-7.36,0c-2,1.16-2,3.08,0,4.25a8.16,8.16,0,0,0,7.36,0C45.66,70.51,45.66,68.59,43.63,67.43Z"/><path class="cls-6" d="M40,50a9.53,9.53,0,0,0-5.22,17.51v2.16h0a2.68,2.68,0,0,0,1.56,2,8.18,8.18,0,0,0,7.34,0,2.59,2.59,0,0,0,1.5-2h0V67.49A9.53,9.53,0,0,0,40,50Z"/><path class="cls-7" d="M34.64,60.55a6.23,6.23,0,0,1,6.23-6.23c3.19,0,2.94-2.66-1.12-2.66A7.35,7.35,0,0,0,32.39,59C32.39,61.59,34.64,62.74,34.64,60.55Z"/><path class="cls-8" d="M43.65,72.52a8.18,8.18,0,0,1-7.34,0,2.68,2.68,0,0,1-1.56-2v.71a2.68,2.68,0,0,0,1.56,2,8.18,8.18,0,0,0,7.34,0,2.6,2.6,0,0,0,1.5-2h0v-.71h0A2.62,2.62,0,0,1,43.65,72.52Z"/><path class="cls-8" d="M43.62,74.59a8.18,8.18,0,0,1-7.34,0A3.5,3.5,0,0,1,35,73.46a6.93,6.93,0,0,0,.52,1.33,4.16,4.16,0,0,0,.73.53,8.21,8.21,0,0,0,7.34,0q.33-.21.6-.42a7.24,7.24,0,0,0,.63-1.46A3.3,3.3,0,0,1,43.62,74.59Z"/><path class="cls-9" d="M39.93,49.19h0a.77.77,0,0,1-.77-.78l0-6a.78.78,0,0,1,.78-.77h0a.78.78,0,0,1,.77.78l0,5.95A.78.78,0,0,1,39.93,49.19Zm6.37,1.13,3-5.14A.79.79,0,0,0,49,44.11a.78.78,0,0,0-1.06.28l-3,5.14a.78.78,0,0,0,.28,1.07.76.76,0,0,0,.39.1A.8.8,0,0,0,46.3,50.32Zm3.88,4.44,5.18-2.94a.78.78,0,0,0-.77-1.35l-5.18,2.94a.78.78,0,0,0-.29,1.06.79.79,0,0,0,.68.39A.75.75,0,0,0,50.18,54.76Zm-19.34-.35a.78.78,0,0,0-.27-1.07l-5.11-3.05a.78.78,0,1,0-.8,1.33l5.11,3.06a.83.83,0,0,0,.4.11A.8.8,0,0,0,30.84,54.41Zm3.91-3.85a.77.77,0,0,0,.3-1.06l-2.89-5.2a.78.78,0,1,0-1.36.75l2.89,5.21a.8.8,0,0,0,.68.4A.75.75,0,0,0,34.75,50.56Z"/><g class="cls-10"><path class="cls-11" d="M62,73.93,16.2,100.12a1.48,1.48,0,0,0,0,2.58l71.33,41.18a5.9,5.9,0,0,0,5.89,0l45.82-26.19a1.49,1.49,0,0,0,0-2.58L67.91,73.94A5.9,5.9,0,0,0,62,73.93Z"/><path class="cls-12" d="M62.07,74,16.39,100.08a1.48,1.48,0,0,0,0,2.57L87.5,143.71a5.89,5.89,0,0,0,5.87,0l45.68-26.11a1.48,1.48,0,0,0,0-2.57L67.94,74A5.89,5.89,0,0,0,62.07,74Z"/><path class="cls-13" d="M62.11,74,16.58,100a1.48,1.48,0,0,0,0,2.57l70.9,40.93a5.87,5.87,0,0,0,5.86,0l45.53-26a1.47,1.47,0,0,0,0-2.56L68,74A5.89,5.89,0,0,0,62.11,74Z"/><path class="cls-14" d="M62.16,74.05l-45.4,26a1.47,1.47,0,0,0,0,2.55l70.68,40.81a5.86,5.86,0,0,0,5.84,0l45.4-25.95a1.47,1.47,0,0,0,0-2.55L68,74.07A5.86,5.86,0,0,0,62.16,74.05Z"/><path class="cls-15" d="M62.21,74.1,17,100a1.47,1.47,0,0,0,0,2.55L87.41,143.2a5.84,5.84,0,0,0,5.82,0l45.26-25.87a1.47,1.47,0,0,0,0-2.55L68,74.11A5.82,5.82,0,0,0,62.21,74.1Z"/><path class="cls-16" d="M62.26,74.14,17.14,99.93a1.46,1.46,0,0,0,0,2.54L87.38,143a5.81,5.81,0,0,0,5.8,0l45.12-25.79a1.46,1.46,0,0,0,0-2.54L68.06,74.15A5.83,5.83,0,0,0,62.26,74.14Z"/><path class="cls-17" d="M62.31,74.18l-45,25.71a1.47,1.47,0,0,0,0,2.54l70,40.43a5.79,5.79,0,0,0,5.78,0l45-25.71a1.46,1.46,0,0,0,0-2.53l-70-40.44A5.82,5.82,0,0,0,62.31,74.18Z"/><path class="cls-18" d="M62.35,74.22,17.51,99.86a1.45,1.45,0,0,0,0,2.52l69.81,40.31a5.8,5.8,0,0,0,5.77,0l44.84-25.63a1.46,1.46,0,0,0,0-2.53L68.12,74.24A5.8,5.8,0,0,0,62.35,74.22Z"/><path class="cls-19" d="M62.4,74.27,17.7,99.82a1.45,1.45,0,0,0,0,2.52l69.6,40.18a5.78,5.78,0,0,0,5.75,0L137.74,117a1.45,1.45,0,0,0,0-2.52L68.15,74.28A5.76,5.76,0,0,0,62.4,74.27Z"/><path class="cls-20" d="M62.45,74.31,17.89,99.78a1.45,1.45,0,0,0,0,2.51l69.38,40.06a5.75,5.75,0,0,0,5.73,0l44.56-25.47a1.45,1.45,0,0,0,0-2.51L68.18,74.32A5.75,5.75,0,0,0,62.45,74.31Z"/><path class="cls-21" d="M62.5,74.35,18.07,99.74a1.44,1.44,0,0,0,0,2.5l69.16,39.94a5.73,5.73,0,0,0,5.71,0l44.43-25.39a1.44,1.44,0,0,0,0-2.5L68.21,74.36A5.73,5.73,0,0,0,62.5,74.35Z"/><path class="cls-22" d="M62.54,74.39,18.26,99.71a1.44,1.44,0,0,0,0,2.49L87.2,142a5.74,5.74,0,0,0,5.7,0l44.28-25.31a1.45,1.45,0,0,0,0-2.5L68.24,74.41A5.72,5.72,0,0,0,62.54,74.39Z"/><path class="cls-23" d="M62.59,74.44,18.45,99.67a1.43,1.43,0,0,0,0,2.48l68.73,39.69a5.7,5.7,0,0,0,5.68,0L137,116.61a1.43,1.43,0,0,0,0-2.48L68.27,74.45A5.68,5.68,0,0,0,62.59,74.44Z"/><path class="cls-24" d="M62.64,74.48l-44,25.15a1.43,1.43,0,0,0,0,2.48l68.51,39.56a5.69,5.69,0,0,0,5.66,0l44-25.16a1.42,1.42,0,0,0,0-2.47L68.3,74.49A5.69,5.69,0,0,0,62.64,74.48Z"/><path class="cls-25" d="M62.69,74.52,18.82,99.6a1.41,1.41,0,0,0,0,2.46L87.11,141.5a5.68,5.68,0,0,0,5.64,0l43.87-25.08a1.42,1.42,0,0,0,0-2.47L68.33,74.53A5.68,5.68,0,0,0,62.69,74.52Z"/><path class="cls-26" d="M62.73,74.56,19,99.56A1.42,1.42,0,0,0,19,102l68.08,39.31a5.66,5.66,0,0,0,5.62,0l43.73-25a1.42,1.42,0,0,0,0-2.46L68.36,74.57A5.68,5.68,0,0,0,62.73,74.56Z"/><path class="cls-27" d="M62.78,74.61,19.2,99.52a1.41,1.41,0,0,0,0,2.45l67.86,39.19a5.64,5.64,0,0,0,5.61,0l43.58-24.92a1.41,1.41,0,0,0,0-2.45L68.39,74.62A5.62,5.62,0,0,0,62.78,74.61Z"/><path class="cls-28" d="M62.83,74.65,19.38,99.48a1.41,1.41,0,0,0,0,2.45L87,141a5.63,5.63,0,0,0,5.59,0l43.45-24.84a1.4,1.4,0,0,0,0-2.44L68.42,74.66A5.61,5.61,0,0,0,62.83,74.65Z"/><path class="cls-29" d="M62.88,74.69,19.57,99.45a1.4,1.4,0,0,0,0,2.43L87,140.82a5.62,5.62,0,0,0,5.57,0l43.31-24.76a1.41,1.41,0,0,0,0-2.44L68.44,74.7A5.58,5.58,0,0,0,62.88,74.69Z"/><path class="cls-30" d="M62.93,74.73,19.76,99.41a1.4,1.4,0,0,0,0,2.43L87,140.65a5.58,5.58,0,0,0,5.55,0L135.68,116a1.4,1.4,0,0,0,0-2.43L68.47,74.74A5.56,5.56,0,0,0,62.93,74.73Z"/><path class="cls-31" d="M63,74.78l-43,24.59a1.4,1.4,0,0,0,0,2.42l67,38.69a5.57,5.57,0,0,0,5.53,0l43-24.6a1.4,1.4,0,0,0,0-2.42l-67-38.68A5.54,5.54,0,0,0,63,74.78Z"/><path class="cls-32" d="M63,74.82,20.13,99.34a1.39,1.39,0,0,0,0,2.41L86.91,140.3a5.53,5.53,0,0,0,5.51,0l42.89-24.52a1.4,1.4,0,0,0,0-2.42L68.53,74.83A5.53,5.53,0,0,0,63,74.82Z"/><path class="cls-33" d="M63.07,74.86,20.32,99.3a1.38,1.38,0,0,0,0,2.4l66.57,38.43a5.49,5.49,0,0,0,5.49,0l42.75-24.44a1.39,1.39,0,0,0,0-2.41L68.56,74.87A5.52,5.52,0,0,0,63.07,74.86Z"/><path class="cls-34" d="M63.12,74.9,20.51,99.26a1.38,1.38,0,0,0,0,2.4L86.85,140a5.48,5.48,0,0,0,5.47,0l42.61-24.36a1.38,1.38,0,0,0,0-2.4L68.59,74.91A5.5,5.5,0,0,0,63.12,74.9Z"/><path class="cls-35" d="M63.16,75,20.69,99.22a1.38,1.38,0,0,0,0,2.39l66.13,38.18a5.47,5.47,0,0,0,5.45,0l42.48-24.28a1.38,1.38,0,0,0,0-2.39L68.62,75A5.46,5.46,0,0,0,63.16,75Z"/><path class="cls-36" d="M63.21,75,20.88,99.19a1.37,1.37,0,0,0,0,2.38l65.92,38.05a5.47,5.47,0,0,0,5.44,0l42.33-24.2a1.38,1.38,0,0,0,0-2.39L68.65,75A5.45,5.45,0,0,0,63.21,75Z"/><path class="cls-37" d="M63.26,75,21.07,99.15a1.37,1.37,0,0,0,0,2.37l65.7,37.93a5.41,5.41,0,0,0,5.42,0l42.19-24.11a1.37,1.37,0,0,0,0-2.38L68.68,75A5.44,5.44,0,0,0,63.26,75Z"/><path class="cls-38" d="M63.31,75.07l-42.06,24a1.37,1.37,0,0,0,0,2.37l65.48,37.8a5.4,5.4,0,0,0,5.4,0l42.06-24a1.36,1.36,0,0,0,0-2.36L68.71,75.08A5.42,5.42,0,0,0,63.31,75.07Z"/><path class="cls-39" d="M63.36,75.11l-41.92,24a1.35,1.35,0,0,0,0,2.35L86.7,139.11a5.39,5.39,0,0,0,5.38,0l41.92-24a1.36,1.36,0,0,0,0-2.36L68.74,75.13A5.39,5.39,0,0,0,63.36,75.11Z"/><path class="cls-40" d="M63.4,75.16,21.63,99a1.36,1.36,0,0,0,0,2.35l65.05,37.55A5.37,5.37,0,0,0,92,139l41.77-23.88a1.36,1.36,0,0,0,0-2.35l-65-37.55A5.39,5.39,0,0,0,63.4,75.16Z"/><path class="cls-41" d="M63.45,75.2,21.82,99a1.35,1.35,0,0,0,0,2.34l64.83,37.43a5.35,5.35,0,0,0,5.35,0L133.62,115a1.35,1.35,0,0,0,0-2.34L68.8,75.21A5.38,5.38,0,0,0,63.45,75.2Z"/><path class="cls-42" d="M63.5,75.24,22,99a1.35,1.35,0,0,0,0,2.34l64.61,37.3a5.34,5.34,0,0,0,5.33,0l41.5-23.72a1.34,1.34,0,0,0,0-2.33L68.83,75.25A5.36,5.36,0,0,0,63.5,75.24Z"/><path class="cls-43" d="M63.55,75.28,22.19,98.93a1.34,1.34,0,0,0,0,2.32l64.4,37.18a5.33,5.33,0,0,0,5.31,0l41.36-23.64a1.35,1.35,0,0,0,0-2.33L68.86,75.3A5.33,5.33,0,0,0,63.55,75.28Z"/><path class="cls-44" d="M63.59,75.33,22.38,98.89a1.34,1.34,0,0,0,0,2.32l64.18,37.05a5.31,5.31,0,0,0,5.3,0l41.21-23.56a1.34,1.34,0,0,0,0-2.32l-64.18-37A5.31,5.31,0,0,0,63.59,75.33Z"/><path class="cls-45" d="M63.64,75.37,22.56,98.85a1.33,1.33,0,0,0,0,2.31l64,36.93a5.3,5.3,0,0,0,5.28,0l41.08-23.48a1.33,1.33,0,0,0,0-2.31l-64-36.93A5.3,5.3,0,0,0,63.64,75.37Z"/><path class="cls-46" d="M63.69,75.41,22.75,98.81a1.33,1.33,0,0,0,0,2.31l63.74,36.8a5.28,5.28,0,0,0,5.26,0l40.94-23.4a1.33,1.33,0,0,0,0-2.31L69,75.42A5.28,5.28,0,0,0,63.69,75.41Z"/><path class="cls-47" d="M63.74,75.45,22.94,98.78a1.32,1.32,0,0,0,0,2.29l63.53,36.68a5.25,5.25,0,0,0,5.24,0l40.8-23.32a1.33,1.33,0,0,0,0-2.3L69,75.47A5.27,5.27,0,0,0,63.74,75.45Z"/><path class="cls-48" d="M63.79,75.5,23.12,98.74a1.32,1.32,0,0,0,0,2.29l63.31,36.55a5.23,5.23,0,0,0,5.22,0l40.66-23.24a1.32,1.32,0,0,0,0-2.29L69,75.51A5.23,5.23,0,0,0,63.79,75.5Z"/><path class="cls-49" d="M63.83,75.54,23.31,98.7a1.31,1.31,0,0,0,0,2.28L86.4,137.41a5.24,5.24,0,0,0,5.21,0l40.52-23.16a1.31,1.31,0,0,0,0-2.28L69,75.55A5.24,5.24,0,0,0,63.83,75.54Z"/><path class="cls-50" d="M63.88,75.58,23.5,98.67a1.31,1.31,0,0,0,0,2.27l62.88,36.3a5.2,5.2,0,0,0,5.19,0l40.38-23.08a1.32,1.32,0,0,0,0-2.28L69.07,75.59A5.22,5.22,0,0,0,63.88,75.58Z"/><path class="cls-51" d="M63.93,75.62l-40.24,23a1.3,1.3,0,0,0,0,2.26l62.66,36.18a5.19,5.19,0,0,0,5.17,0l40.24-23a1.31,1.31,0,0,0,0-2.27L69.1,75.64A5.19,5.19,0,0,0,63.93,75.62Z"/><path class="cls-4" d="M64,75.67,23.87,98.59a1.3,1.3,0,0,0,0,2.26L86.31,136.9a5.17,5.17,0,0,0,5.15,0L131.57,114a1.3,1.3,0,0,0,0-2.25l-62.44-36A5.15,5.15,0,0,0,64,75.67Z"/></g><path class="cls-52" d="M138.15,54.77,69,14.82A1.4,1.4,0,0,0,66.85,16V68.19a3.06,3.06,0,0,0,1.52,2.64l69.2,40a1.4,1.4,0,0,0,2.1-1.22V57.41A3.06,3.06,0,0,0,138.15,54.77Z"/><path class="cls-4" d="M137.25,55.37,68.05,15.42A1.4,1.4,0,0,0,66,16.63V68.78a3,3,0,0,0,1.52,2.64l69.2,40a1.41,1.41,0,0,0,2.11-1.22V58A3,3,0,0,0,137.25,55.37Z"/><polygon class="cls-53" points="134.68 58.66 69.56 20.85 69.56 68.56 134.68 106.37 134.68 58.66"/><path class="cls-54" d="M63.14,73.94,18.83,97.31s-.24,3.46.7,4l67.9,39.2a5.63,5.63,0,0,0,5.6,0l43.61-24.93c1.8-1.12.71-4,.71-4L68.75,74A5.62,5.62,0,0,0,63.14,73.94Z"/><path class="cls-7" d="M63.14,71.25,19.54,96.18a1.41,1.41,0,0,0,0,2.45l67.9,39.2a5.63,5.63,0,0,0,5.6,0l43.61-24.93a1.42,1.42,0,0,0,0-2.46L68.75,71.26A5.64,5.64,0,0,0,63.14,71.25Z"/><path class="cls-55" d="M59.28,103.53,47.79,110.1a.38.38,0,0,0,0,.65l17.9,10.33a1.5,1.5,0,0,0,1.48,0l11.49-6.57a.37.37,0,0,0,0-.64L60.76,103.53A1.5,1.5,0,0,0,59.28,103.53Z"/><path class="cls-55" d="M68,75.06l3.76,2.17a.23.23,0,0,1,0,.39l-1.87,1.07a.46.46,0,0,1-.48,0L65.6,76.52a.23.23,0,0,1,0-.39l1.87-1.07A.46.46,0,0,1,68,75.06Z"/><path class="cls-55" d="M73.46,78.34l3.76,2.17a.23.23,0,0,1,0,.39L75.35,82a.48.48,0,0,1-.49,0L71.11,79.8a.23.23,0,0,1,0-.39L73,78.34A.48.48,0,0,1,73.46,78.34Z"/><path class="cls-55" d="M79,81.45l3.76,2.16a.23.23,0,0,1,0,.39l-1.87,1.08a.51.51,0,0,1-.48,0l-3.76-2.17a.23.23,0,0,1,0-.39l1.87-1.07A.46.46,0,0,1,79,81.45Z"/><path class="cls-55" d="M84.68,84.65l3.75,2.17a.23.23,0,0,1,0,.39l-1.86,1.07a.48.48,0,0,1-.49,0l-3.76-2.17a.23.23,0,0,1,0-.39l1.86-1.07A.53.53,0,0,1,84.68,84.65Z"/><path class="cls-55" d="M90.14,87.7l3.76,2.17a.23.23,0,0,1,0,.39L92,91.33a.46.46,0,0,1-.48,0l-3.76-2.17a.23.23,0,0,1,0-.39l1.87-1.07A.46.46,0,0,1,90.14,87.7Z"/><path class="cls-55" d="M95.46,91l3.76,2.17a.23.23,0,0,1,0,.39l-1.87,1.07a.46.46,0,0,1-.48,0l-3.76-2.17a.23.23,0,0,1,0-.39L95,91A.46.46,0,0,1,95.46,91Z"/><path class="cls-55" d="M101,94.05l3.75,2.17a.23.23,0,0,1,0,.39l-1.86,1.07a.53.53,0,0,1-.49,0l-3.76-2.17a.23.23,0,0,1,0-.39l1.86-1.07A.48.48,0,0,1,101,94.05Z"/><path class="cls-55" d="M106.51,97.31l3.75,2.17a.23.23,0,0,1,0,.39l-1.86,1.07a.48.48,0,0,1-.49,0l-3.75-2.17a.23.23,0,0,1,0-.39L106,97.31A.53.53,0,0,1,106.51,97.31Z"/><path class="cls-55" d="M111.9,100.49l3.76,2.17a.23.23,0,0,1,0,.39l-1.87,1.07a.46.46,0,0,1-.48,0L109.55,102a.22.22,0,0,1,0-.38l1.87-1.08A.51.51,0,0,1,111.9,100.49Z"/><path class="cls-55" d="M117.58,103.77l3.76,2.17a.23.23,0,0,1,0,.39l-1.87,1.07a.48.48,0,0,1-.48,0l-3.76-2.17a.23.23,0,0,1,0-.39l1.87-1.07A.46.46,0,0,1,117.58,103.77Z"/><path class="cls-55" d="M123.1,106.87l3.76,2.17a.22.22,0,0,1,0,.38L125,110.5a.51.51,0,0,1-.48,0l-3.76-2.17a.23.23,0,0,1,0-.39l1.87-1.07A.46.46,0,0,1,123.1,106.87Z"/><path class="cls-55" d="M60.31,79.15l2.55-1.49a1.05,1.05,0,0,1,1.07,0l2.48,1.44a.53.53,0,0,1,0,.91L64,81.52a1.06,1.06,0,0,1-1.09,0l-2.55-1.47A.53.53,0,0,1,60.31,79.15Z"/><path class="cls-55" d="M66,82.43l2.55-1.49a1.05,1.05,0,0,1,1.07,0l2.48,1.44a.53.53,0,0,1,0,.91L69.65,84.8a1.06,1.06,0,0,1-1.09,0L66,83.34A.53.53,0,0,1,66,82.43Z"/><path class="cls-55" d="M71.54,85.53,74.09,84a1.08,1.08,0,0,1,1.07,0l2.49,1.43a.53.53,0,0,1,0,.91L75.19,87.9a1.07,1.07,0,0,1-1.09,0l-2.55-1.47A.53.53,0,0,1,71.54,85.53Z"/><path class="cls-55" d="M77.43,88.74,80,87.25a1.05,1.05,0,0,1,1.07,0l2.48,1.43a.53.53,0,0,1,0,.91l-2.47,1.52a1.06,1.06,0,0,1-1.09,0l-2.55-1.47A.53.53,0,0,1,77.43,88.74Z"/><path class="cls-55" d="M82.62,91.79l2.54-1.49a1.05,1.05,0,0,1,1.07,0l2.49,1.44a.53.53,0,0,1,0,.91l-2.47,1.52a1.06,1.06,0,0,1-1.09,0L82.62,92.7A.53.53,0,0,1,82.62,91.79Z"/><path class="cls-55" d="M87.89,95.05l2.54-1.49a1.05,1.05,0,0,1,1.07,0L94,95a.53.53,0,0,1,0,.91l-2.47,1.52a1.07,1.07,0,0,1-1.09,0L87.89,96A.52.52,0,0,1,87.89,95.05Z"/><path class="cls-55" d="M93.52,98.13l2.54-1.49a1.08,1.08,0,0,1,1.07,0l2.49,1.44a.53.53,0,0,1,0,.91l-2.47,1.51a1.07,1.07,0,0,1-1.09,0l-2.55-1.47A.53.53,0,0,1,93.52,98.13Z"/><path class="cls-55" d="M99,101.26l2.54-1.49a1.05,1.05,0,0,1,1.07,0l2.49,1.44a.53.53,0,0,1,0,.91l-2.47,1.52a1.06,1.06,0,0,1-1.09,0L99,102.17A.53.53,0,0,1,99,101.26Z"/><path class="cls-55" d="M104.44,104.58l2.55-1.49a1.08,1.08,0,0,1,1.07,0l2.49,1.43a.53.53,0,0,1,0,.91L108.09,107a1.09,1.09,0,0,1-1.09,0l-2.55-1.47A.53.53,0,0,1,104.44,104.58Z"/><path class="cls-55" d="M110.35,108.06l2.54-1.49a1.05,1.05,0,0,1,1.07,0l2.49,1.44a.53.53,0,0,1,0,.91L114,110.43a1.06,1.06,0,0,1-1.09,0L110.35,109A.53.53,0,0,1,110.35,108.06Z"/><path class="cls-55" d="M115.68,111l2.55-1.49a1.08,1.08,0,0,1,1.07,0l2.49,1.44a.52.52,0,0,1,0,.9l-2.47,1.52a1.07,1.07,0,0,1-1.09,0l-2.55-1.47A.53.53,0,0,1,115.68,111Z"/><path class="cls-55" d="M54.64,82.23l2.55-1.49a1.08,1.08,0,0,1,1.07,0l2.48,1.43a.53.53,0,0,1,0,.91L58.28,84.6a1.07,1.07,0,0,1-1.09,0l-2.55-1.47A.53.53,0,0,1,54.64,82.23Z"/><path class="cls-55" d="M60.34,85.51,62.88,84A1.08,1.08,0,0,1,64,84l2.49,1.43a.53.53,0,0,1,0,.91L64,87.88a1.07,1.07,0,0,1-1.09,0l-2.55-1.47A.53.53,0,0,1,60.34,85.51Z"/><path class="cls-55" d="M65.87,88.62l2.55-1.49a1.05,1.05,0,0,1,1.07,0L72,88.56a.53.53,0,0,1,0,.91L69.51,91a1,1,0,0,1-1.08,0l-2.55-1.47A.52.52,0,0,1,65.87,88.62Z"/><path class="cls-55" d="M71.76,91.82l2.54-1.49a1.08,1.08,0,0,1,1.07,0l2.49,1.43a.53.53,0,0,1,0,.91L75.4,94.19a1.07,1.07,0,0,1-1.09,0l-2.55-1.47A.53.53,0,0,1,71.76,91.82Z"/><path class="cls-55" d="M76.94,94.87l2.55-1.49a1.08,1.08,0,0,1,1.07,0l2.49,1.43a.53.53,0,0,1,0,.91l-2.47,1.52a1.09,1.09,0,0,1-1.09,0L77,95.79A.53.53,0,0,1,76.94,94.87Z"/><path class="cls-55" d="M82.21,98.13l2.55-1.49a1.08,1.08,0,0,1,1.07,0l2.49,1.43a.53.53,0,0,1,0,.91l-2.47,1.52a1.07,1.07,0,0,1-1.09,0l-2.55-1.47A.53.53,0,0,1,82.21,98.13Z"/><path class="cls-55" d="M87.84,101.22l2.55-1.49a1.05,1.05,0,0,1,1.07,0L94,101.16a.53.53,0,0,1,0,.91l-2.47,1.52a1.07,1.07,0,0,1-1.09,0l-2.55-1.47A.53.53,0,0,1,87.84,101.22Z"/><path class="cls-55" d="M93.35,104.34l2.55-1.49a1.08,1.08,0,0,1,1.07,0l2.49,1.43a.53.53,0,0,1,0,.91L97,106.71a1.07,1.07,0,0,1-1.09,0l-2.55-1.47A.53.53,0,0,1,93.35,104.34Z"/><path class="cls-55" d="M98.77,107.67l2.55-1.5a1.08,1.08,0,0,1,1.07,0l2.48,1.44a.53.53,0,0,1,0,.91L102.41,110a1,1,0,0,1-1.08,0l-2.55-1.47A.52.52,0,0,1,98.77,107.67Z"/><path class="cls-55" d="M104.68,111.14l2.54-1.49a1.08,1.08,0,0,1,1.07,0l2.49,1.43a.53.53,0,0,1,0,.91l-2.47,1.52a1.07,1.07,0,0,1-1.09,0l-2.55-1.47A.53.53,0,0,1,104.68,111.14Z"/><path class="cls-55" d="M110,114l2.55-1.49a1.05,1.05,0,0,1,1.07,0l2.48,1.44a.53.53,0,0,1,0,.91l-2.48,1.52a1,1,0,0,1-1.08,0L110,115A.52.52,0,0,1,110,114Z"/><path class="cls-55" d="M49,85.32l2.54-1.49a1.05,1.05,0,0,1,1.07,0l2.49,1.44a.53.53,0,0,1,0,.91l-2.47,1.52a1.06,1.06,0,0,1-1.09,0L49,86.23A.53.53,0,0,1,49,85.32Z"/><path class="cls-55" d="M54.67,88.6l2.54-1.49a1.05,1.05,0,0,1,1.07,0l2.49,1.44a.53.53,0,0,1,0,.91L58.31,91a1.07,1.07,0,0,1-1.09,0l-2.55-1.47A.53.53,0,0,1,54.67,88.6Z"/><path class="cls-55" d="M60.2,91.7l2.55-1.49a1.08,1.08,0,0,1,1.07,0l2.48,1.43a.53.53,0,0,1,0,.91l-2.48,1.52a1.09,1.09,0,0,1-1.09,0L60.2,92.62A.53.53,0,0,1,60.2,91.7Z"/><path class="cls-55" d="M66.09,94.91l2.54-1.49a1.05,1.05,0,0,1,1.07,0l2.49,1.44a.53.53,0,0,1,0,.91l-2.47,1.52a1.06,1.06,0,0,1-1.09,0l-2.55-1.47A.53.53,0,0,1,66.09,94.91Z"/><path class="cls-55" d="M71.27,98l2.55-1.49a1.08,1.08,0,0,1,1.07,0l2.49,1.44a.53.53,0,0,1,0,.91l-2.47,1.51a1.07,1.07,0,0,1-1.09,0l-2.55-1.47A.53.53,0,0,1,71.27,98Z"/><path class="cls-55" d="M76.54,101.22l2.55-1.49a1.05,1.05,0,0,1,1.07,0l2.48,1.44a.53.53,0,0,1,0,.91l-2.48,1.52a1,1,0,0,1-1.08,0l-2.55-1.47A.52.52,0,0,1,76.54,101.22Z"/><path class="cls-55" d="M82.17,104.3l2.55-1.49a1.08,1.08,0,0,1,1.07,0l2.49,1.43a.53.53,0,0,1,0,.91l-2.48,1.52a1,1,0,0,1-1.08,0l-2.55-1.47A.53.53,0,0,1,82.17,104.3Z"/><path class="cls-55" d="M87.68,107.43l2.55-1.49a1.05,1.05,0,0,1,1.07,0l2.49,1.44a.53.53,0,0,1,0,.91l-2.47,1.52a1.07,1.07,0,0,1-1.09,0l-2.55-1.47A.52.52,0,0,1,87.68,107.43Z"/><path class="cls-55" d="M93.1,110.75l2.55-1.49a1.05,1.05,0,0,1,1.07,0l2.48,1.43a.53.53,0,0,1,0,.91l-2.48,1.52a1.06,1.06,0,0,1-1.09,0l-2.55-1.47A.53.53,0,0,1,93.1,110.75Z"/><path class="cls-55" d="M99,114.23l2.55-1.49a1.05,1.05,0,0,1,1.07,0l2.49,1.44a.53.53,0,0,1,0,.91l-2.47,1.51a1.07,1.07,0,0,1-1.09,0L99,115.14A.52.52,0,0,1,99,114.23Z"/><path class="cls-55" d="M104.34,117.12l2.55-1.49a1.08,1.08,0,0,1,1.07,0l2.48,1.43a.53.53,0,0,1,0,.91L108,119.49a1.09,1.09,0,0,1-1.09,0L104.34,118A.53.53,0,0,1,104.34,117.12Z"/><path class="cls-55" d="M43.3,88.4l2.54-1.49a1.08,1.08,0,0,1,1.07,0l2.49,1.43a.53.53,0,0,1,0,.91l-2.47,1.52a1.06,1.06,0,0,1-1.09,0L43.3,89.32A.53.53,0,0,1,43.3,88.4Z"/><path class="cls-55" d="M49,91.68l2.54-1.49a1.05,1.05,0,0,1,1.07,0l2.49,1.43a.53.53,0,0,1,0,.91l-2.47,1.52a1.06,1.06,0,0,1-1.09,0L49,92.6A.53.53,0,0,1,49,91.68Z"/><path class="cls-55" d="M54.53,94.78l2.55-1.49a1.08,1.08,0,0,1,1.07,0l2.48,1.44a.53.53,0,0,1,0,.91l-2.47,1.51a1.07,1.07,0,0,1-1.09,0L54.53,95.7A.53.53,0,0,1,54.53,94.78Z"/><path class="cls-55" d="M60.42,98,63,96.5a1.08,1.08,0,0,1,1.07,0l2.49,1.43a.53.53,0,0,1,0,.91l-2.47,1.52a1.09,1.09,0,0,1-1.09,0l-2.55-1.47A.53.53,0,0,1,60.42,98Z"/><path class="cls-55" d="M66.09,101.38l2.54-1.49a1.05,1.05,0,0,1,1.07,0l12.94,7.48a.53.53,0,0,1,0,.91l-2.48,1.51a1,1,0,0,1-1.08,0l-13-7.51A.53.53,0,0,1,66.09,101.38Z"/><path class="cls-55" d="M82,110.51,84.56,109a1.08,1.08,0,0,1,1.07,0l2.48,1.43a.53.53,0,0,1,0,.91l-2.48,1.52a1.07,1.07,0,0,1-1.08,0L82,111.43A.53.53,0,0,1,82,110.51Z"/><path class="cls-55" d="M87.43,113.83,90,112.34a1.08,1.08,0,0,1,1.07,0l2.48,1.43a.53.53,0,0,1,0,.91l-2.47,1.52a1.07,1.07,0,0,1-1.09,0l-2.55-1.47A.53.53,0,0,1,87.43,113.83Z"/><path class="cls-55" d="M93.33,117.31l2.55-1.49a1.05,1.05,0,0,1,1.07,0l2.48,1.43a.53.53,0,0,1,0,.91L97,119.68a1,1,0,0,1-1.08,0l-2.55-1.46A.53.53,0,0,1,93.33,117.31Z"/><path class="cls-55" d="M98.67,120.21l2.55-1.49a1.05,1.05,0,0,1,1.07,0l2.48,1.44a.53.53,0,0,1,0,.91l-2.47,1.51a1.07,1.07,0,0,1-1.09,0l-2.55-1.47A.53.53,0,0,1,98.67,120.21Z"/><path class="cls-56" d="M128.17,31.71a2.83,2.83,0,0,0-1.27-2.2L76.28.13a1,1,0,0,0-1,0l-.78.41.36,68.9a2.85,2.85,0,0,0,1.26,2.21l51.21,30.44.79.46Z"/><path class="cls-7" d="M127.38,32.29a2.82,2.82,0,0,0-1.26-2.2L75.39.63c-.7-.4-1.27-.08-1.27.73V71.15l53.26,30.92Z"/><path class="cls-57" d="M126.12,30.09,75.39.63c-.7-.4-1.27-.08-1.27.73V4.67L127.38,35.6V32.29A2.82,2.82,0,0,0,126.12,30.09Z"/><path class="cls-7" d="M76.94,3.41c-.23-.13-.42,0-.42.24a.93.93,0,0,0,.42.72c.22.13.41,0,.41-.24A.94.94,0,0,0,76.94,3.41Z"/><path class="cls-7" d="M78.74,4.48c-.23-.13-.42,0-.42.24a.94.94,0,0,0,.42.72c.23.13.41,0,.41-.24A.93.93,0,0,0,78.74,4.48Z"/><path class="cls-7" d="M80.54,5.55c-.23-.13-.41,0-.41.24a.9.9,0,0,0,.41.71c.23.14.41,0,.41-.24A.9.9,0,0,0,80.54,5.55Z"/><polygon class="cls-58" points="78.31 12.71 78.31 32.87 122.77 58.46 122.77 38.43 78.31 12.71"/><polygon class="cls-7" points="93.59 24.38 93.59 25.92 120.77 41.67 120.77 40.14 93.59 24.38"/><polygon class="cls-53" points="78.24 58.49 78.24 60.04 122.77 85.91 122.77 84.37 78.24 58.49"/><polygon class="cls-53" points="78.24 62.68 78.24 64.22 122.77 90.09 122.77 88.56 78.24 62.68"/><polygon class="cls-53" points="78.24 67.08 78.24 68.62 122.77 94.49 122.77 92.96 78.24 67.08"/><polygon class="cls-7" points="93.59 28.56 93.59 30.11 120.77 45.86 120.77 44.33 93.59 28.56"/><polygon class="cls-7" points="93.59 32.75 93.59 34.3 120.77 50.05 120.77 48.51 93.59 32.75"/><polygon class="cls-7" points="93.59 36.94 93.59 38.49 106.32 45.86 106.32 44.33 93.59 36.94"/><polygon class="cls-53" points="78.31 35.58 78.31 51.66 91.09 59.19 91.09 43.22 78.31 35.58"/><polygon class="cls-53" points="109.99 54.22 109.99 70.3 122.77 77.83 122.77 61.86 109.99 54.22"/><path class="cls-7" d="M85.29,19.9c-3.23-1.87-5.88-.34-5.88,3.42a13.07,13.07,0,0,0,5.9,10.22c3.25,1.88,5.9.34,5.89-3.42A13.13,13.13,0,0,0,85.29,19.9Z"/><polygon class="cls-7" points="84.97 47.45 91.09 43.46 91.09 43.22 90.88 43.1 84.77 47.08 78.66 35.8 78.31 35.58 78.31 36.02 84.42 47.31 78.31 51.29 78.31 51.66 78.41 51.72 84.62 47.68 90.73 58.98 91.09 59.19 91.09 58.76 84.97 47.45"/><polygon class="cls-7" points="122.77 61.86 122.72 61.83 116.5 65.88 110.28 54.39 109.99 54.22 109.99 54.74 116.14 66.11 109.99 70.12 109.99 70.3 110.25 70.45 116.34 66.48 122.35 77.58 122.77 77.83 122.77 77.48 116.7 66.25 122.77 62.29 122.77 61.86"/><polygon class="cls-59" points="94.78 45.69 94.78 61.76 107.56 69.3 107.56 53.32 94.78 45.69"/><polygon class="cls-59" points="91.52 46.73 91.52 62.81 104.3 70.34 104.3 54.37 91.52 46.73"/><polygon class="cls-60" points="87.81 49.88 86.97 50.08 87.81 65.95 99.76 73.69 100.6 73.48 100.6 57.51 87.81 49.88"/><polygon class="cls-58" points="86.97 50.08 86.97 66.16 99.76 73.69 99.76 57.72 86.97 50.08"/><path class="cls-58" d="M86.33,26.53a1.13,1.13,0,0,0,.36-.93A3.39,3.39,0,0,0,85.17,23c-.83-.48-1.51-.08-1.51.88a3.32,3.32,0,0,0,.78,2A2.43,2.43,0,0,0,83,28v.6l4.52,2.64V30.06A5.65,5.65,0,0,0,86.33,26.53Z"/><g class="cls-10"><path class="cls-11" d="M88.72,155.59c-1.53-.87-1.54-2.31,0-3.19L168,106.6a6.07,6.07,0,0,1,5.55,0l7.47,4.46c1.52.9,1.5,2.37,0,3.25L102,160a6.21,6.21,0,0,1-5.57,0Z"/><path class="cls-12" d="M88.81,155.55c-1.53-.87-1.54-2.3,0-3.18L168,106.63a6,6,0,0,1,5.52,0l7.44,4.44c1.51.9,1.5,2.36,0,3.24l-78.89,45.56a6.22,6.22,0,0,1-5.56,0Z"/><path class="cls-13" d="M88.89,155.51c-1.52-.87-1.52-2.29,0-3.17L168,106.66a6,6,0,0,1,5.5,0l7.42,4.42c1.5.9,1.49,2.36,0,3.23l-78.76,45.51a6.21,6.21,0,0,1-5.54,0Z"/><path class="cls-14" d="M89,155.47c-1.52-.86-1.52-2.29,0-3.16l78.95-45.62a6,6,0,0,1,5.48,0l7.39,4.41c1.5.89,1.49,2.34,0,3.21L102.12,159.8a6.17,6.17,0,0,1-5.51,0Z"/><path class="cls-15" d="M89.07,155.43c-1.52-.86-1.52-2.28,0-3.15l78.82-45.56a6,6,0,0,1,5.46,0l7.36,4.39c1.5.89,1.49,2.33,0,3.2l-78.52,45.39a6.13,6.13,0,0,1-5.49,0Z"/><path class="cls-16" d="M89.15,155.39c-1.51-.86-1.51-2.27,0-3.14l78.71-45.5a5.94,5.94,0,0,1,5.44,0l7.33,4.37c1.49.89,1.48,2.33,0,3.2l-78.4,45.33a6.12,6.12,0,0,1-5.47,0Z"/><path class="cls-17" d="M89.24,155.35c-1.5-.85-1.51-2.26,0-3.12l78.58-45.45a5.92,5.92,0,0,1,5.42,0l7.3,4.36c1.49.88,1.48,2.31,0,3.18l-78.28,45.27a6.11,6.11,0,0,1-5.45,0Z"/><path class="cls-18" d="M89.32,155.31c-1.49-.85-1.5-2.25,0-3.11l78.46-45.39a5.91,5.91,0,0,1,5.4,0l7.28,4.34c1.47.88,1.46,2.31,0,3.17l-78.15,45.21a6.07,6.07,0,0,1-5.43,0Z"/><path class="cls-19" d="M89.41,155.27c-1.49-.85-1.49-2.24,0-3.1l78.33-45.33a5.87,5.87,0,0,1,5.38,0l7.25,4.32c1.47.88,1.46,2.3,0,3.16l-78,45.16a6.06,6.06,0,0,1-5.41,0Z"/><path class="cls-20" d="M89.5,155.23c-1.49-.85-1.49-2.24,0-3.09l78.2-45.27a5.83,5.83,0,0,1,5.36,0l7.22,4.3c1.47.88,1.46,2.3,0,3.15l-77.91,45.1a6,6,0,0,1-5.39,0Z"/><path class="cls-21" d="M89.58,155.19c-1.48-.84-1.48-2.23,0-3.08l78.09-45.21a5.8,5.8,0,0,1,5.33,0l7.2,4.29c1.46.87,1.45,2.28,0,3.13l-77.79,45a6,6,0,0,1-5.37,0Z"/><path class="cls-22" d="M89.67,155.15c-1.48-.84-1.48-2.22,0-3.07l78-45.15a5.81,5.81,0,0,1,5.32,0l7.16,4.27c1.46.87,1.45,2.27,0,3.12l-77.67,45a6,6,0,0,1-5.34,0Z"/><path class="cls-23" d="M89.75,155.11c-1.46-.84-1.47-2.21,0-3.06L167.58,107a5.77,5.77,0,0,1,5.3,0l7.14,4.25c1.45.87,1.44,2.27,0,3.11l-77.54,44.93a6,6,0,0,1-5.33,0Z"/><path class="cls-24" d="M89.84,155.07c-1.46-.83-1.47-2.2,0-3l77.71-45a5.76,5.76,0,0,1,5.28,0l7.11,4.24c1.44.86,1.43,2.25,0,3.09l-77.42,44.87a5.94,5.94,0,0,1-5.31,0Z"/><path class="cls-25" d="M89.92,155c-1.45-.83-1.46-2.19,0-3l77.59-45a5.75,5.75,0,0,1,5.25,0l7.08,4.23c1.44.86,1.43,2.25,0,3.08l-77.3,44.82a5.91,5.91,0,0,1-5.28,0Z"/><path class="cls-26" d="M90,155c-1.45-.83-1.45-2.19,0-3l77.47-44.92a5.71,5.71,0,0,1,5.23,0l7.06,4.21c1.43.86,1.42,2.24,0,3.08l-77.18,44.75a5.92,5.92,0,0,1-5.27,0Z"/><path class="cls-27" d="M90.1,155c-1.45-.82-1.45-2.18,0-3l77.34-44.86a5.72,5.72,0,0,1,5.22,0l7,4.2c1.43.85,1.42,2.23,0,3.06L102.6,159.06a5.88,5.88,0,0,1-5.25,0Z"/><path class="cls-28" d="M90.18,154.91c-1.44-.82-1.44-2.17,0-3l77.22-44.8a5.71,5.71,0,0,1,5.2,0l7,4.18c1.42.85,1.41,2.22,0,3.05L102.63,159a5.85,5.85,0,0,1-5.22,0Z"/><path class="cls-29" d="M90.27,154.87c-1.44-.82-1.44-2.16,0-3l77.1-44.74a5.65,5.65,0,0,1,5.17,0l7,4.16c1.42.85,1.41,2.21,0,3L102.67,159a5.8,5.8,0,0,1-5.2,0Z"/><path class="cls-30" d="M90.35,154.83c-1.42-.82-1.43-2.15,0-3l77-44.69a5.61,5.61,0,0,1,5.15,0l6.94,4.15c1.42.84,1.41,2.2,0,3l-76.68,44.52a5.78,5.78,0,0,1-5.19,0Z"/><path class="cls-31" d="M90.44,154.79c-1.42-.81-1.43-2.14,0-3l76.85-44.63a5.6,5.6,0,0,1,5.13,0l6.92,4.13c1.4.84,1.39,2.19,0,3l-76.57,44.47a5.75,5.75,0,0,1-5.16,0Z"/><path class="cls-32" d="M90.53,154.75c-1.42-.81-1.42-2.14,0-2.95l76.72-44.57a5.58,5.58,0,0,1,5.11,0l6.89,4.11c1.4.84,1.39,2.19,0,3l-76.44,44.41a5.74,5.74,0,0,1-5.14,0Z"/><path class="cls-33" d="M90.61,154.71c-1.41-.81-1.41-2.13,0-2.94l76.61-44.51a5.54,5.54,0,0,1,5.09,0l6.86,4.09c1.39.84,1.38,2.18,0,3l-76.32,44.35a5.72,5.72,0,0,1-5.13,0Z"/><path class="cls-34" d="M90.7,154.67c-1.41-.8-1.41-2.12,0-2.93l76.48-44.46a5.56,5.56,0,0,1,5.07,0l6.83,4.08c1.39.83,1.38,2.16,0,3l-76.2,44.3a5.69,5.69,0,0,1-5.1,0Z"/><path class="cls-35" d="M90.78,154.63c-1.4-.8-1.4-2.11,0-2.92l76.36-44.4a5.55,5.55,0,0,1,5.05,0l6.81,4.06c1.38.83,1.37,2.16,0,3l-76.07,44.24a5.68,5.68,0,0,1-5.08,0Z"/><path class="cls-36" d="M90.87,154.59c-1.39-.8-1.4-2.1,0-2.91l76.23-44.34a5.51,5.51,0,0,1,5,0l6.78,4c1.38.83,1.37,2.15,0,3l-75.95,44.17a5.63,5.63,0,0,1-5.06,0Z"/><path class="cls-37" d="M91,154.55c-1.38-.8-1.39-2.09,0-2.89l76.11-44.29a5.48,5.48,0,0,1,5,0l6.75,4c1.37.81,1.37,2.14,0,2.94L103,158.5a5.62,5.62,0,0,1-5,0Z"/><path class="cls-38" d="M91,154.5c-1.38-.78-1.39-2.08,0-2.87l76-44.23a5.46,5.46,0,0,1,5,0l6.72,4c1.36.81,1.35,2.13,0,2.93L103,158.44a5.61,5.61,0,0,1-5,0Z"/><path class="cls-39" d="M91.13,154.46c-1.38-.78-1.38-2.07,0-2.86L167,107.43a5.45,5.45,0,0,1,5,0l6.69,4c1.36.81,1.35,2.13,0,2.92l-75.59,44a5.55,5.55,0,0,1-5,0Z"/><path class="cls-40" d="M91.21,154.42c-1.37-.78-1.37-2.06,0-2.85l75.74-44.11a5.4,5.4,0,0,1,4.95,0l6.67,4c1.35.8,1.34,2.11,0,2.9l-75.46,44a5.54,5.54,0,0,1-5,0Z"/><path class="cls-41" d="M91.3,154.38c-1.37-.77-1.37-2,0-2.84l75.61-44a5.39,5.39,0,0,1,4.93,0l6.64,4c1.35.8,1.34,2.1,0,2.89l-75.34,43.89a5.55,5.55,0,0,1-5,0Z"/><path class="cls-42" d="M91.38,154.34c-1.36-.77-1.36-2,0-2.83l75.49-44a5.36,5.36,0,0,1,4.9,0l6.61,3.94c1.35.8,1.34,2.1,0,2.88l-75.22,43.84a5.52,5.52,0,0,1-4.93,0Z"/><path class="cls-43" d="M91.47,154.3c-1.35-.77-1.36-2,0-2.81l75.37-43.94a5.32,5.32,0,0,1,4.88,0l6.59,3.93c1.34.79,1.33,2.08,0,2.86l-75.1,43.78a5.48,5.48,0,0,1-4.91,0Z"/><path class="cls-44" d="M91.56,154.26c-1.35-.76-1.36-2,0-2.8l75.24-43.88a5.33,5.33,0,0,1,4.87,0l6.55,3.91a1.51,1.51,0,0,1,0,2.85l-75,43.72a5.49,5.49,0,0,1-4.9,0Z"/><path class="cls-45" d="M91.64,154.22c-1.34-.76-1.34-2,0-2.79l75.12-43.82a5.32,5.32,0,0,1,4.85,0l6.53,3.89a1.51,1.51,0,0,1,0,2.84l-74.86,43.67a5.45,5.45,0,0,1-4.87,0Z"/><path class="cls-46" d="M91.73,154.18c-1.34-.76-1.34-2,0-2.78l75-43.76a5.26,5.26,0,0,1,4.82,0l6.5,3.87a1.51,1.51,0,0,1,0,2.84L103.29,158a5.41,5.41,0,0,1-4.85,0Z"/><path class="cls-47" d="M91.81,154.14c-1.33-.76-1.33-2,0-2.77l74.87-43.7a5.25,5.25,0,0,1,4.8,0l6.47,3.86c1.32.78,1.31,2.05,0,2.82l-74.6,43.54a5.4,5.4,0,0,1-4.83,0Z"/><path class="cls-48" d="M91.9,154.1c-1.33-.75-1.33-2,0-2.76l74.75-43.64a5.2,5.2,0,0,1,4.78,0l6.45,3.84c1.31.78,1.3,2,0,2.81l-74.49,43.49a5.39,5.39,0,0,1-4.81,0Z"/><path class="cls-49" d="M92,154.06c-1.32-.75-1.33-2,0-2.74l74.62-43.59a5.19,5.19,0,0,1,4.76,0l6.42,3.82a1.49,1.49,0,0,1,0,2.8L103.4,157.82a5.32,5.32,0,0,1-4.79,0Z"/><path class="cls-50" d="M92.07,154c-1.31-.75-1.32-2,0-2.73l74.51-43.53a5.21,5.21,0,0,1,4.74,0l6.39,3.82a1.48,1.48,0,0,1,0,2.78l-74.24,43.37a5.31,5.31,0,0,1-4.77,0Z"/><path class="cls-51" d="M92.16,154c-1.31-.74-1.31-2,0-2.72l74.38-43.47a5.17,5.17,0,0,1,4.72,0l6.36,3.8a1.47,1.47,0,0,1,0,2.77l-74.12,43.32a5.3,5.3,0,0,1-4.75,0Z"/><path class="cls-4" d="M92.24,153.94c-1.3-.74-1.3-2,0-2.71l74.26-43.41a5.16,5.16,0,0,1,4.7,0l6.33,3.78a1.47,1.47,0,0,1,0,2.76l-74,43.26a5.25,5.25,0,0,1-4.73,0Z"/></g><path class="cls-61" d="M90,153.94c-1.49-.85-1.49-2.24,0-3.09l76.69-44.28a5.86,5.86,0,0,1,5.36,0l7.22,4.31c1.47.87,1.46,2.29,0,3.14l-76.39,44.11a6,6,0,0,1-5.39,0Z"/><path class="cls-62" d="M90,153.16c-1.49-.84-1.49-2.23,0-3.09l76.69-44.27a5.86,5.86,0,0,1,5.36,0l7.22,4.31c1.47.88,1.46,2.29,0,3.15l-76.39,44.1a6,6,0,0,1-5.39,0Z"/><polygon class="cls-4" points="92.68 148.6 97.58 151.45 98.68 150.82 93.82 147.95 92.68 148.6"/><polygon class="cls-4" points="98.65 145.15 101.98 147.07 103.07 146.43 99.79 144.5 98.65 145.15"/><polygon class="cls-4" points="104.62 141.69 107.95 143.61 109.04 142.98 105.76 141.04 104.62 141.69"/><polygon class="cls-4" points="110.59 138.23 113.92 140.15 115.01 139.52 111.73 137.58 110.59 138.23"/><polygon class="cls-4" points="116.56 134.78 121.47 137.62 122.56 136.99 117.7 134.13 116.56 134.78"/><polygon class="cls-4" points="122.53 131.32 125.86 133.24 126.95 132.61 123.67 130.67 122.53 131.32"/><polygon class="cls-4" points="128.5 127.86 131.83 129.78 132.92 129.15 129.64 127.21 128.5 127.86"/><polygon class="cls-4" points="134.47 124.41 137.8 126.33 138.9 125.69 135.61 123.76 134.47 124.41"/><polygon class="cls-4" points="140.44 120.95 145.35 123.8 146.44 123.17 141.58 120.3 140.44 120.95"/><polygon class="cls-4" points="146.41 117.49 149.74 119.41 150.84 118.78 147.55 116.84 146.41 117.49"/><polygon class="cls-4" points="152.38 114.04 155.71 115.96 156.81 115.33 153.52 113.39 152.38 114.04"/><polygon class="cls-4" points="158.35 110.58 161.68 112.5 162.78 111.87 159.49 109.93 158.35 110.58"/><polygon class="cls-4" points="164.32 107.13 169.23 109.97 170.32 109.34 165.46 106.48 164.32 107.13"/><path class="cls-63" d="M75.48,68.25a1.22,1.22,0,0,1-.43-2.37l6.06-2.26a1.35,1.35,0,0,0,.67-.53l3.38-5.31a1.23,1.23,0,0,1,1.69-.38c.57.36.45.77.09,1.34l-3.39,5.31a3.8,3.8,0,0,1-1.87,1.51L75.9,68.17A1.25,1.25,0,0,1,75.48,68.25Z"/><path class="cls-63" d="M87,55.87c-.33-.19-2,.92-1.76,1.75a1.55,1.55,0,0,0,1.85,1.16c.82-.18.7-.48.05-1C86.8,57.46,87,55.87,87,55.87Z"/><rect class="cls-63" x="86.04" y="57.78" width="2.41" height="0.92" rx="0.44" transform="translate(192.12 56.27) rotate(145.2)"/><path class="cls-4" d="M74.7,111.31l5.15-2.66a.69.69,0,0,0,0-1.24l-.08,0a3.76,3.76,0,0,0-2.87-.18l-3.84,1a.94.94,0,0,0-.77.93v.86a1,1,0,0,0,.49.85l.89.51A1.08,1.08,0,0,0,74.7,111.31Z"/><path class="cls-63" d="M74,109.7c-1.08,0-1-.57-1.09-1.15l.18-12.29-.64-12.84a2,2,0,0,1,2-2,2.32,2.32,0,0,1,2.11,2.21L75.31,108C75.32,108.84,74.7,109.7,74,109.7Z"/><path class="cls-4" d="M79.53,114.93l5.15-2.66a.7.7,0,0,0,0-1.24l-.08,0a3.76,3.76,0,0,0-2.87-.18l-3.84,1a.94.94,0,0,0-.77.93v.86a1,1,0,0,0,.49.85l.88.51A1.1,1.1,0,0,0,79.53,114.93Z"/><path class="cls-63" d="M78.81,113.32c-1.08,0-1-.57-1.09-1.15l.18-12.29L77.26,87a2,2,0,0,1,1.95-2,2.33,2.33,0,0,1,2.12,2.21l-1.19,24.32C80.15,112.46,79.53,113.32,78.81,113.32Z"/><path class="cls-64" d="M80.83,69.08l.49,1.4a5.71,5.71,0,0,1,.12,3.42l-.69,1.66-.19,5.13,2.2,17C80.39,99.08,72.34,98.34,71,96l1.61-15.7L71.37,66.12a2.57,2.57,0,0,1,3.86-2.22l3.91,2.25A3.38,3.38,0,0,1,80.83,69.08Z"/><path class="cls-4" d="M80.8,82.58l-.24-1.89V80.6a16.89,16.89,0,0,1-8-1.12l.07.79-.12,1.21A16.91,16.91,0,0,0,80.8,82.58Z"/><path class="cls-63" d="M73.58,57.53H79.9a0,0,0,0,1,0,0v3.35a4,4,0,0,1-4,4h-.21a2.1,2.1,0,0,1-2.1-2.1V57.53A0,0,0,0,1,73.58,57.53Z"/><path class="cls-63" d="M74.69,61.65h2A.31.31,0,0,1,77,62V65.7A1.28,1.28,0,0,1,75.74,67h-.09a1.28,1.28,0,0,1-1.28-1.28V62A.31.31,0,0,1,74.69,61.65Z"/><path class="cls-63" d="M81.26,76.2l-4.12-7.07a1.23,1.23,0,0,1,2.12-1.23l3.1,6L88.48,76a1.23,1.23,0,0,1,1.44,1c.13.66-.37.86-1,1Z"/><path class="cls-65" d="M78.49,72l-1.58-2.71a1.43,1.43,0,0,1,.19-1.73,1.38,1.38,0,0,1,2.18.29l1.5,2.88a1.31,1.31,0,0,1-.65,1.81h0A1.3,1.3,0,0,1,78.49,72Z"/><path class="cls-63" d="M90.84,76.78c.14.71-.8,1.42-1.52,1.42A1.31,1.31,0,0,1,88,76.89c0-.72.19-1.42.92-1.42A2.43,2.43,0,0,1,90.84,76.78Z"/><path class="cls-63" d="M88.55,75.61a.65.65,0,0,1-.65.65.65.65,0,1,1,0-1.3A.65.65,0,0,1,88.55,75.61Z"/><path class="cls-66" d="M81,56.58s0-.07,0-.11a2.18,2.18,0,0,0-1.08-1.06c-.93-.43-1.87,0-2.79.21a11.32,11.32,0,0,0-3.84,1.7,4.31,4.31,0,0,0-1.26,1.22c-1.15,1.83.14,4.4-.84,6.33-.47.94-1.44,1.6-1.79,2.59a3.39,3.39,0,0,0-.17,1.34,4.75,4.75,0,0,0,1.06,2.9A3.12,3.12,0,0,0,73,72.79a1.45,1.45,0,0,0,.64-.26A1.49,1.49,0,0,0,74,72a6,6,0,0,0,.31-2.87A4.25,4.25,0,0,1,75,66.34a10.83,10.83,0,0,1,.91-.88,4.68,4.68,0,0,0,1.3-3.17c0-.47-.11-.93-.09-1.39a1.44,1.44,0,0,1,.6-1.2,2.55,2.55,0,0,1,.67-.24,4.48,4.48,0,0,0,2.31-1.87C81,57.24,81.1,57,81,56.58Z"/><path class="cls-67" d="M126.9,29.51l-10.48-6.08v6.08a4.55,4.55,0,0,0,2.06,3.56l9.69,5.6v-7A2.83,2.83,0,0,0,126.9,29.51Z"/><path class="cls-68" d="M118.9,15.55l-.35.26V28.26a4.54,4.54,0,0,0,2,3.56L131.26,38l.84-.42a.9.9,0,0,0,.52-.82V24.89a4.52,4.52,0,0,0-2.07-3.55l-10.26-5.85A1.29,1.29,0,0,0,118.9,15.55Z"/><path class="cls-69" d="M120,16c-1.13-.65-2.06-.1-2.06,1.2V28.51A4.55,4.55,0,0,0,120,32.07l10,5.75c1.13.66,2.05.12,2.05-1.18V25.14a4.54,4.54,0,0,0-2.06-3.55Z"/><path class="cls-7" d="M121.53,26.4a1.11,1.11,0,0,0,1.08.15l.62.86a1.7,1.7,0,0,1-1.6-.23,4.91,4.91,0,0,1-1.6-1.41,3.17,3.17,0,0,1-.7-1.68c0-.54.14-.87.54-1a1.9,1.9,0,0,1,1.49.32A5.27,5.27,0,0,1,123.1,25l-.54.26a3.12,3.12,0,0,0-1.11-1.09,1.21,1.21,0,0,0-.86-.2c-.23.06-.34.26-.32.6a2,2,0,0,0,.4,1A3,3,0,0,0,121.53,26.4Z"/><path class="cls-7" d="M124.76,28.36l-.06-.94-1-.57,0-.64,1,.57-.06-.93.81.45.06.94,1,.58,0,.64-1-.58.06.94Z"/><path class="cls-7" d="M128.19,30.29l-.06-.94-1-.57,0-.64,1,.57-.06-.93.81.45.06.94,1,.58,0,.64-1-.58.06.94Z"/><path class="cls-67" d="M128.17,43.27l-12.3-7a1.81,1.81,0,0,0-2,.1l-.5.35h0a2,2,0,0,0-.88,1.89v16a6.43,6.43,0,0,0,2.89,5L128.17,67Z"/><path class="cls-70" d="M116.42,34.36l-.5.35V52.28a6.4,6.4,0,0,0,2.9,5l15,8.75,1.19-.58a1.29,1.29,0,0,0,.73-1.16V47.51a6.34,6.34,0,0,0-2.91-5l-14.48-8.26A1.81,1.81,0,0,0,116.42,34.36Z"/><path class="cls-71" d="M118,34.91c-1.61-.91-2.91-.14-2.91,1.7v16a6.43,6.43,0,0,0,2.89,5l14,8.11c1.59.92,2.89.16,2.89-1.68V47.87a6.38,6.38,0,0,0-2.91-5Z"/><g class="cls-72"><path class="cls-73" d="M122.25,45.45,122,45.3c-.32-.19-.48-.13-.48.16v2.35c0,.4-.13.61-.4.64a1.72,1.72,0,0,1,.4,1.1V52c0,.25.23.51.7.79v1.37l-.59-.35A2.89,2.89,0,0,1,120,51.24v-2.3a.64.64,0,0,0-.25-.61l-.5-.29V46.66l.5.3c.17.1.25,0,.25-.33V44.37c0-1.07.55-1.29,1.63-.65l.6.36Z"/><path class="cls-73" d="M126.88,55.53l.22.14q.48.28.48-.15V53.17c0-.4.14-.61.41-.64a1.75,1.75,0,0,1-.41-1.11V49c0-.25-.24-.51-.71-.79V46.81l.6.36a2.88,2.88,0,0,1,1.63,2.56V52a.65.65,0,0,0,.25.6l.5.3v1.37l-.5-.29c-.16-.1-.25,0-.25.32V56.6c0,1.07-.54,1.29-1.63.65l-.6-.35Z"/></g><path class="cls-74" d="M120.68,45.05l-.79.4.08,2c0,.39-.13.61-.4.64a1.75,1.75,0,0,1,.4,1.1v2.45c0,.25.23.51.7.79v1.37l-.78.39c-1.09-.64-1.44-2.24-1.44-3.31v-2.3a.64.64,0,0,0-.25-.61l-.5-.3V46.27l.5.3c.17.09.25,0,.25-.33V44c0-1.07.54-1.29,1.63-.65l.6.35Z"/><path class="cls-74" d="M125.3,55.13l.23.15c.32.19.48.14.48-.16V52.77c0-.39.14-.61.4-.64A1.75,1.75,0,0,1,126,51V48.58c0-.25-.23-.51-.7-.79l-.79-1,.79-.39.6.35a2.88,2.88,0,0,1,1.62,2.57v2.3a.67.67,0,0,0,.25.61l.5.3v1.37l-.78.39c-.17-.1,0,1.9,0,1.9,0,1.07-1.44,1.4-1.44,1.4l-.79-1.1Z"/><polygon class="cls-74" points="116.91 46.66 118.09 46.66 118.09 47.47 117.13 47.27 116.91 46.66"/><path class="cls-7" d="M119.89,45.45l-.23-.15c-.31-.19-.47-.13-.47.16v2.35c0,.4-.13.61-.4.64a1.72,1.72,0,0,1,.4,1.1V52c0,.25.24.51.71.79v1.37l-.6-.35a2.89,2.89,0,0,1-1.63-2.57v-2.3a.64.64,0,0,0-.25-.61l-.5-.29V46.66l.5.3c.17.1.25,0,.25-.33V44.37c0-1.07.54-1.29,1.62-.65l.6.36Z"/><path class="cls-7" d="M124.52,55.53l.23.14q.48.28.48-.15V53.17c0-.4.13-.61.4-.64a1.74,1.74,0,0,1-.4-1.11V49c0-.25-.24-.51-.71-.79V46.81l.6.36a2.87,2.87,0,0,1,1.63,2.56V52c0,.3.08.51.25.6l.5.3v1.37L127,54c-.17-.1-.25,0-.25.32V56.6c0,1.07-.55,1.29-1.63.65l-.6-.35Z"/><path class="cls-75" d="M138.08,33.39l-.24.17v8.11A3,3,0,0,0,139.18,44l6.95,4,.55-.27a.6.6,0,0,0,.33-.54V39.47a2.94,2.94,0,0,0-1.34-2.31L139,33.35A.82.82,0,0,0,138.08,33.39Z"/><path class="cls-76" d="M138.78,33.65c-.74-.42-1.35-.07-1.35.78v7.41a3,3,0,0,0,1.34,2.32l6.5,3.75c.73.42,1.34.07,1.34-.78V39.64a3,3,0,0,0-1.35-2.31Z"/><path class="cls-7" d="M140.2,39a1.63,1.63,0,0,1,.24.94c0,.35-.09.56-.27.62s-.43,0-.78-.21l-.32-.18V41l-.53-.31,0-2.86.84.48A2.24,2.24,0,0,1,140.2,39Zm-.4.9a.4.4,0,0,0,.1-.32.74.74,0,0,0-.12-.42,1.15,1.15,0,0,0-.38-.33l-.31-.18v1l.36.2C139.61,40,139.73,40,139.8,39.92Z"/><path class="cls-7" d="M142.34,40l.53.31,0,2.86-.53-.3,0-1.13-.95-.55v1.13l-.53-.31,0-2.87.53.31,0,1.2,1,.55Z"/><path class="cls-7" d="M145.09,41.87a1.74,1.74,0,0,1,.24.93q0,.53-.27.63a1.07,1.07,0,0,1-.79-.21L144,43l0,.8-.53-.31.05-2.86.84.49A2.23,2.23,0,0,1,145.09,41.87Zm-.41.9c.07-.05.1-.16.1-.32a.63.63,0,0,0-.12-.43,1.15,1.15,0,0,0-.38-.33l-.3-.17,0,1,.36.21C144.5,42.79,144.62,42.82,144.68,42.77Z"/><path class="cls-77" d="M137.13,19.72l-.18.12v6.22a2.25,2.25,0,0,0,1,1.77l5.32,3.1.42-.21a.47.47,0,0,0,.25-.41V24.37a2.26,2.26,0,0,0-1-1.77l-5.12-2.92A.64.64,0,0,0,137.13,19.72Z"/><path class="cls-4" d="M137.67,19.91c-.57-.32-1-.05-1,.6v5.67a2.28,2.28,0,0,0,1,1.78l5,2.87c.57.32,1,.05,1-.6V24.5a2.25,2.25,0,0,0-1-1.77Z"/><path class="cls-7" d="M138.16,23.35l.32.19v1.69l-.33-.19v-.66l-.59-.35v.67l-.33-.19V22.82l.33.19v.7l.58.35Z"/><path class="cls-7" d="M139.46,24.45v1.36l-.32-.19V24.25l-.42-.24v-.33l1.16.68v.33Z"/><path class="cls-7" d="M141.43,25.9l-.4.69-.2-.11-.38-1.16v1.06l-.33-.19V24.5l.45.26.37,1.15.38-.7.45.26,0,1.69-.33-.2Z"/><path class="cls-7" d="M142.11,27.37l0-1.69.33.19,0,1.35.63.37v.34Z"/><path class="cls-67" d="M97.18,29l11.21,6.47a1.69,1.69,0,0,0,1.48.22h0l.13-.06h0l.81-.39a1,1,0,0,0,.57-.93V20.94a3.37,3.37,0,0,0,0-.44l-16.2-9.4a1.89,1.89,0,0,0-.32,1.13V25A5.16,5.16,0,0,0,97.18,29Z"/><path class="cls-78" d="M98,8.93l-.4.29v14a5.15,5.15,0,0,0,2.31,4l12,7,1-.46a1,1,0,0,0,.57-.93V19.44a5.08,5.08,0,0,0-2.32-4L99.53,8.86A1.47,1.47,0,0,0,98,8.93Z"/><path class="cls-4" d="M99.19,9.38c-1.28-.73-2.33-.12-2.33,1.35v12.8a5.16,5.16,0,0,0,2.32,4L110.39,34c1.28.74,2.32.14,2.32-1.33V19.73a5.11,5.11,0,0,0-2.33-4Z"/><path class="cls-7" d="M101.4,18.37v-.94l2.6,1.49v3.21c0,.59-.16.94-.46,1.06a1.48,1.48,0,0,1-1.19-.24,4.68,4.68,0,0,1-1.57-1.59l.58-.46a2.77,2.77,0,0,0,.94,1,.42.42,0,0,0,.41,0c.11,0,.17-.2.17-.44V19.22Z"/><path class="cls-7" d="M106.35,21.25c-.11,0-.16.11-.16.25a.74.74,0,0,0,.2.46,7.87,7.87,0,0,0,.9.82,5.38,5.38,0,0,1,1.11,1.15,2.14,2.14,0,0,1,.39,1.23c0,.44-.17.7-.5.79A2,2,0,0,1,107,25.6a6.49,6.49,0,0,1-2.13-2.09l.66-.42A5.28,5.28,0,0,0,107,24.64a.78.78,0,0,0,.49.14c.11,0,.17-.1.17-.25a.77.77,0,0,0-.18-.46,6.21,6.21,0,0,0-.74-.68,7.27,7.27,0,0,1-1.28-1.26,2.12,2.12,0,0,1-.4-1.26c0-.47.17-.74.51-.79a2,2,0,0,1,1.28.35,5.7,5.7,0,0,1,1,.74,6.17,6.17,0,0,1,.87,1l-.57.48a4.6,4.6,0,0,0-1.34-1.26A.61.61,0,0,0,106.35,21.25Z"/><path class="cls-79" d="M60.49,153c5.94-3.43,15.65-3.43,21.58,0s5.94,9,0,12.46-15.64,3.42-21.58,0S54.55,156.4,60.49,153Z"/><path class="cls-4" d="M86,154c0-.32-.44-.57-1-.57h-2.1c-.35,0-.93.37-1,.26s-.09-.4.16-.54l1.49-.86c.38-.22-2.07-.12-2.45-.34l0-1.85a1.49,1.49,0,0,0-1.39,0l-1.5.86a1.36,1.36,0,0,1-.9.1l-.64-.15c-.32-.07-.52-.25-.52-.44v-1.22c0-.31-.44-.57-1-.57H71.78c-.55,0-1,.26-1,.57v1.21c0,.2-.23.37-.55.44l-.61.15a1.36,1.36,0,0,1-.94-.09l-1.49-.85a1.55,1.55,0,0,0-1.39,0l-.18,2c-.38.22-2.62,0-2.24.18l1.51.86c.23.14.3.34.17.52s-.68-.24-1-.24H61.93c-.55,0-1,.26-1,.57v2.88c0,.31.45.57,1,.57h1.24l0,2.38a.28.28,0,0,0,0,.13h0a.5.5,0,0,0,.28.34l2.43,1.4a1.51,1.51,0,0,0,.86.14h0a1.21,1.21,0,0,0,.51-.15l1.5-.86a1.22,1.22,0,0,1,.89-.1l.65.15c.31.07.51.24.51.43v1.23c0,.31.44.56,1,.56h3.42c.55,0,1-.25,1-.57v-1.21c0-.2.22-.37.55-.44l.58-.14a1.23,1.23,0,0,1,.93.09l1.49.85a1.44,1.44,0,0,0,.51.15h0a1.46,1.46,0,0,0,.86-.15l2.42-1.4a.48.48,0,0,0,.27-.32h0v-.08l0-2.43h1.22c.54,0,1-.25,1-.56Zm-7.76,2.4c-.57,1.74-3.71,2.73-6.53,2.1-2.15-.47-3.46-1.81-3-3.11.57-1.74,3.71-2.73,6.53-2.1C77.39,153.8,78.69,155.13,78.27,156.43Z"/><path class="cls-4" d="M83.86,150.75V149.2H81.63l-.49-.29a1.55,1.55,0,0,0-1.39,0l-.5.29H76.19v-1.13c0-.32-.44-.57-1-.57H71.78c-.55,0-1,.25-1,.57v1.13H67.68l-.48-.27a1.55,1.55,0,0,0-1.39,0l-.47.27H63.1v1.51a.49.49,0,0,0,.29.42l1.51.86,17.18,0,1.49-.86a.53.53,0,0,0,.28-.36Z"/><path class="cls-71" d="M82.36,154.75h2.69c.54,0,1-.25,1-.57v-2c0-.31-.44-.57-1-.57h-2.1a.94.94,0,0,1-.77-.31c-.08-.12-.16-.23-.25-.34s-.09-.39.16-.54l1.49-.85a.42.42,0,0,0,0-.8l-2.43-1.4a1.55,1.55,0,0,0-1.39,0l-1.5.86a1.25,1.25,0,0,1-.9.1l-.64-.15c-.32-.07-.52-.24-.52-.43v-1.23c0-.31-.44-.56-1-.56H71.78c-.55,0-1,.25-1,.56v1.21c0,.21-.23.38-.55.45l-.61.14a1.3,1.3,0,0,1-.94-.08l-1.49-.86a1.55,1.55,0,0,0-1.39,0l-2.42,1.4a.43.43,0,0,0,0,.81l1.51.86c.23.13.3.34.17.51l-.26.37a.92.92,0,0,1-.75.3H61.93c-.55,0-1,.26-1,.57v2c0,.31.45.56,1,.56h2.11a.92.92,0,0,1,.77.32,3.43,3.43,0,0,0,.24.33c.15.18.09.4-.15.54l-1.49.86c-.38.22-.38.58,0,.8L65.86,159a1.55,1.55,0,0,0,1.39,0l1.5-.87a1.33,1.33,0,0,1,.89-.1l.65.15c.31.07.51.25.51.44v1.22c0,.32.44.57,1,.57h3.42c.55,0,1-.26,1-.57v-1.21c0-.2.22-.38.55-.45l.58-.14a1.33,1.33,0,0,1,.93.09l1.49.86a1.57,1.57,0,0,0,1.4,0l2.42-1.4a.42.42,0,0,0,0-.8l-1.51-.86c-.23-.14-.3-.34-.17-.52S82.35,154.77,82.36,154.75ZM68.71,152.7c.57-1.75,3.71-2.73,6.53-2.11,2.15.48,3.45,1.82,3,3.12-.57,1.74-3.71,2.73-6.53,2.1C69.59,155.33,68.28,154,68.71,152.7Z"/><g class="cls-80"><path class="cls-11" d="M55.91,145,27.56,128.94A7.2,7.2,0,0,0,21,129L8.56,136.42c-1.19.69-1.57,1.67-1.19,2.56-.38.9,0,1.88,1.2,2.57l28.37,16.16a7.15,7.15,0,0,0,6.54,0l12.46-7.51c1.18-.7,1.56-1.68,1.18-2.57C57.5,146.7,57.11,145.71,55.91,145Z"/><path class="cls-12" d="M55.81,145,27.56,129a7.14,7.14,0,0,0-6.52,0L8.66,136.44c-1.17.69-1.56,1.67-1.18,2.55-.38.89,0,1.87,1.2,2.56l28.26,16.1a7.15,7.15,0,0,0,6.51,0l12.39-7.47c1.17-.7,1.55-1.67,1.17-2.56C57.39,146.69,57,145.71,55.81,145Z"/><path class="cls-13" d="M55.7,145l-28.14-16a7.17,7.17,0,0,0-6.49,0l-12.3,7.35c-1.17.69-1.55,1.66-1.17,2.54-.38.89,0,1.86,1.19,2.54l28.14,16a7.09,7.09,0,0,0,6.48,0l12.32-7.42c1.17-.7,1.54-1.67,1.17-2.55C57.27,146.69,56.89,145.71,55.7,145Z"/><path class="cls-14" d="M55.59,145l-28-15.89a7.11,7.11,0,0,0-6.46,0l-12.23,7.3c-1.17.69-1.55,1.66-1.17,2.53-.38.88,0,1.85,1.19,2.53l28,16a7.09,7.09,0,0,0,6.45,0l12.24-7.38c1.16-.69,1.54-1.66,1.17-2.53C57.16,146.68,56.77,145.71,55.59,145Z"/><path class="cls-15" d="M55.49,145,27.57,129.21a7.08,7.08,0,0,0-6.43,0L9,136.5c-1.16.69-1.54,1.65-1.17,2.52-.37.88,0,1.84,1.18,2.52l27.93,15.91a7.06,7.06,0,0,0,6.42,0l12.16-7.34c1.16-.68,1.53-1.64,1.16-2.51C57.05,146.68,56.66,145.71,55.49,145Z"/><path class="cls-16" d="M55.38,145,27.57,129.27a7,7,0,0,0-6.4,0L9.09,136.53c-1.15.68-1.53,1.63-1.16,2.5-.37.87,0,1.83,1.18,2.51l27.82,15.84a7,7,0,0,0,6.38,0l12.1-7.3c1.15-.68,1.52-1.64,1.15-2.5C56.93,146.67,56.55,145.71,55.38,145Z"/><path class="cls-17" d="M55.27,145l-27.7-15.7a7,7,0,0,0-6.36,0l-12,7.18c-1.15.67-1.52,1.63-1.15,2.49-.37.87,0,1.82,1.17,2.49l27.71,15.79a7,7,0,0,0,6.35,0l12-7.25c1.14-.68,1.51-1.63,1.15-2.49C56.82,146.67,56.43,145.71,55.27,145Z"/><path class="cls-18" d="M55.16,145.05,27.57,129.4a7,7,0,0,0-6.33,0L9.31,136.57c-1.15.67-1.52,1.62-1.15,2.48-.37.86,0,1.81,1.16,2.48l27.6,15.72a6.93,6.93,0,0,0,6.33,0L55.19,150c1.14-.68,1.51-1.63,1.14-2.48C56.7,146.66,56.32,145.71,55.16,145.05Z"/><path class="cls-19" d="M55.06,145.05,27.57,129.47a7,7,0,0,0-6.3,0L9.42,136.59c-1.14.67-1.51,1.62-1.15,2.47-.36.86,0,1.8,1.16,2.47l27.49,15.66a6.93,6.93,0,0,0,6.3,0L55.08,150c1.14-.68,1.5-1.62,1.14-2.47C56.59,146.66,56.21,145.71,55.06,145.05Z"/><path class="cls-20" d="M55,145.05,27.58,129.53a7,7,0,0,0-6.28,0l-11.78,7c-1.13.67-1.5,1.61-1.13,2.46-.37.85,0,1.8,1.15,2.45l27.38,15.6a6.85,6.85,0,0,0,6.26,0L55,150c1.12-.67,1.49-1.61,1.13-2.46C56.47,146.65,56.1,145.71,55,145.05Z"/><path class="cls-21" d="M54.84,145.06,27.58,129.6a6.9,6.9,0,0,0-6.24,0l-11.71,7c-1.13.66-1.49,1.59-1.13,2.44-.36.85,0,1.79,1.15,2.44l27.27,15.54a6.84,6.84,0,0,0,6.23,0l11.72-7.08c1.12-.66,1.48-1.6,1.12-2.44C56.36,146.65,56,145.71,54.84,145.06Z"/><path class="cls-22" d="M54.74,145.06,27.58,129.67a6.83,6.83,0,0,0-6.21,0l-11.63,7c-1.12.66-1.49,1.59-1.13,2.43-.36.85,0,1.78,1.14,2.43L36.92,157a6.78,6.78,0,0,0,6.2,0l11.64-7c1.12-.66,1.48-1.59,1.12-2.43C56.24,146.64,55.87,145.71,54.74,145.06Z"/><path class="cls-23" d="M54.63,145.06,27.58,129.73a6.8,6.8,0,0,0-6.18,0L9.84,136.68c-1.11.66-1.47,1.58-1.11,2.42-.36.84,0,1.77,1.13,2.42l27.06,15.4a6.73,6.73,0,0,0,6.16,0l11.57-7c1.12-.66,1.48-1.58,1.12-2.42C56.13,146.64,55.76,145.71,54.63,145.06Z"/><path class="cls-24" d="M54.52,145.07,27.58,129.8a6.75,6.75,0,0,0-6.14,0L10,136.7c-1.11.65-1.47,1.57-1.11,2.41-.36.84,0,1.76,1.13,2.4l26.94,15.35a6.72,6.72,0,0,0,6.14,0l11.5-6.94c1.1-.66,1.46-1.58,1.11-2.41C56,146.63,55.64,145.71,54.52,145.07Z"/><path class="cls-25" d="M54.41,145.07,27.59,129.86a6.74,6.74,0,0,0-6.12,0l-11.41,6.82c-1.1.65-1.46,1.57-1.11,2.4-.35.83,0,1.75,1.13,2.39l26.83,15.28a6.72,6.72,0,0,0,6.11,0l11.42-6.9c1.1-.65,1.46-1.57,1.1-2.4C55.9,146.63,55.53,145.71,54.41,145.07Z"/><path class="cls-26" d="M54.31,145.07,27.59,129.93a6.71,6.71,0,0,0-6.09,0l-11.33,6.79c-1.1.64-1.46,1.55-1.11,2.38-.35.83,0,1.74,1.12,2.38l26.73,15.22a6.66,6.66,0,0,0,6.07,0l11.35-6.85c1.1-.65,1.45-1.56,1.1-2.39C55.78,146.62,55.42,145.71,54.31,145.07Z"/><path class="cls-27" d="M54.2,145.07,27.59,130a6.68,6.68,0,0,0-6.05,0l-11.27,6.74c-1.09.64-1.44,1.55-1.09,2.37-.35.82,0,1.73,1.11,2.37l26.62,15.15a6.6,6.6,0,0,0,6,0l11.27-6.8c1.09-.65,1.45-1.56,1.1-2.37C55.67,146.62,55.3,145.71,54.2,145.07Z"/><path class="cls-28" d="M54.09,145.08l-26.5-15a6.65,6.65,0,0,0-6,0l-11.19,6.7c-1.09.64-1.44,1.54-1.09,2.36-.35.82,0,1.72,1.11,2.35l26.51,15.1a6.6,6.6,0,0,0,6,0l11.2-6.77c1.08-.64,1.43-1.54,1.08-2.35C55.55,146.61,55.19,145.71,54.09,145.08Z"/><path class="cls-29" d="M54,145.08l-26.39-15a6.59,6.59,0,0,0-6,0l-11.11,6.65c-1.08.64-1.43,1.53-1.09,2.35-.34.81,0,1.71,1.1,2.34l26.41,15a6.52,6.52,0,0,0,6,0L54,149.77c1.08-.64,1.43-1.53,1.08-2.34C55.44,146.61,55.08,145.71,54,145.08Z"/><path class="cls-30" d="M53.88,145.08,27.59,130.19a6.57,6.57,0,0,0-5.95,0l-11,6.61c-1.08.64-1.43,1.53-1.08,2.33-.35.82,0,1.71,1.09,2.34l26.29,15a6.51,6.51,0,0,0,6,0l11-6.68c1.07-.64,1.42-1.53,1.08-2.33C55.32,146.6,55,145.71,53.88,145.08Z"/><path class="cls-31" d="M53.77,145.09,27.6,130.26a6.53,6.53,0,0,0-5.93,0l-11,6.56c-1.07.63-1.41,1.52-1.07,2.32-.34.81,0,1.7,1.09,2.32L36.9,156.4a6.5,6.5,0,0,0,5.92,0l11-6.63c1.06-.63,1.41-1.52,1.06-2.32C55.21,146.6,54.85,145.71,53.77,145.09Z"/><path class="cls-32" d="M53.66,145.09,27.6,130.32a6.49,6.49,0,0,0-5.9,0l-10.89,6.52c-1.06.62-1.41,1.51-1.07,2.3-.34.81,0,1.69,1.09,2.31L36.9,156.33a6.45,6.45,0,0,0,5.88,0l10.91-6.59c1.06-.63,1.4-1.51,1.06-2.31C55.09,146.59,54.74,145.71,53.66,145.09Z"/><path class="cls-33" d="M53.56,145.09l-26-14.7a6.44,6.44,0,0,0-5.86,0L10.92,136.9c-1.06.62-1.4,1.5-1.06,2.29-.34.8,0,1.68,1.07,2.3l26,14.78a6.42,6.42,0,0,0,5.85,0l10.83-6.54c1.06-.63,1.4-1.51,1.06-2.3C55,146.59,54.63,145.71,53.56,145.09Z"/><path class="cls-34" d="M53.45,145.1,27.6,130.45a6.44,6.44,0,0,0-5.83,0L11,136.92c-1.06.62-1.4,1.49-1.06,2.28-.34.8,0,1.67,1.07,2.29L36.9,156.2a6.39,6.39,0,0,0,5.82,0l10.75-6.51c1.05-.62,1.39-1.49,1.05-2.28C54.86,146.58,54.51,145.71,53.45,145.1Z"/><path class="cls-35" d="M53.34,145.1,27.6,130.52a6.41,6.41,0,0,0-5.8,0l-10.67,6.39c-1,.62-1.38,1.49-1.05,2.27-.33.79,0,1.66,1.07,2.27l25.74,14.66a6.36,6.36,0,0,0,5.79,0l10.69-6.46c1-.62,1.38-1.48,1-2.27C54.75,146.58,54.4,145.71,53.34,145.1Z"/><path class="cls-36" d="M53.23,145.1,27.6,130.59a6.32,6.32,0,0,0-5.76,0L11.24,137c-1,.62-1.38,1.48-1.05,2.26-.33.79,0,1.65,1.06,2.26l25.64,14.59a6.29,6.29,0,0,0,5.76,0l10.61-6.41c1-.61,1.37-1.48,1-2.26C54.63,146.57,54.29,145.71,53.23,145.1Z"/><path class="cls-37" d="M53.13,145.11,27.61,130.65a6.34,6.34,0,0,0-5.74,0L11.35,137c-1,.61-1.37,1.46-1,2.24-.33.78,0,1.64,1,2.25L36.89,156a6.26,6.26,0,0,0,5.73,0l10.53-6.37c1-.61,1.37-1.47,1-2.25C54.52,146.57,54.17,145.71,53.13,145.11Z"/><path class="cls-38" d="M53,145.11,27.61,130.72a6.28,6.28,0,0,0-5.71,0L11.45,137c-1,.6-1.36,1.46-1,2.23-.33.78,0,1.64,1.05,2.24l25.42,14.46a6.21,6.21,0,0,0,5.69,0L53,149.58c1-.61,1.36-1.46,1-2.24C54.4,146.56,54.06,145.71,53,145.11Z"/><path class="cls-39" d="M52.91,145.11l-25.3-14.33a6.26,6.26,0,0,0-5.67,0L11.56,137c-1,.6-1.35,1.45-1,2.22-.33.77,0,1.63,1.05,2.22l25.31,14.4a6.21,6.21,0,0,0,5.66,0l10.39-6.28c1-.61,1.35-1.46,1-2.22C54.29,146.56,54,145.71,52.91,145.11Z"/><path class="cls-40" d="M52.81,145.12l-25.2-14.27a6.2,6.2,0,0,0-5.64,0l-10.3,6.17c-1,.6-1.35,1.45-1,2.21-.33.77,0,1.62,1,2.21l25.21,14.34a6.18,6.18,0,0,0,5.63,0l10.31-6.23c1-.61,1.34-1.45,1-2.21C54.17,146.55,53.84,145.71,52.81,145.12Z"/><path class="cls-41" d="M52.7,145.12,27.61,130.91A6.2,6.2,0,0,0,22,131l-10.22,6.12c-1,.6-1.34,1.44-1,2.2-.33.77,0,1.61,1,2.2l25.09,14.27a6.14,6.14,0,0,0,5.6,0l10.24-6.2c1-.59,1.34-1.43,1-2.19C54.06,146.55,53.72,145.71,52.7,145.12Z"/><path class="cls-42" d="M52.59,145.12,27.62,131A6.16,6.16,0,0,0,22,131L11.88,137.1c-1,.59-1.33,1.42-1,2.18-.32.76,0,1.6,1,2.18l25,14.22a6.11,6.11,0,0,0,5.57,0l10.16-6.15c1-.59,1.33-1.43,1-2.18C53.94,146.54,53.61,145.71,52.59,145.12Z"/><path class="cls-43" d="M52.48,145.13,27.62,131.05a6.1,6.1,0,0,0-5.55,0l-10.08,6c-1,.59-1.33,1.42-1,2.17-.33.76,0,1.59,1,2.17l24.87,14.15a6.08,6.08,0,0,0,5.54,0l10.09-6.11c1-.59,1.32-1.42,1-2.17C53.83,146.54,53.5,145.71,52.48,145.13Z"/><path class="cls-44" d="M52.38,145.13l-24.76-14a6.1,6.1,0,0,0-5.52,0l-10,6c-1,.59-1.32,1.41-1,2.16-.32.75,0,1.58,1,2.16l24.77,14.08a6,6,0,0,0,5.5,0l10-6.06c1-.59,1.31-1.41,1-2.16C53.71,146.53,53.38,145.71,52.38,145.13Z"/><path class="cls-45" d="M52.27,145.13,27.62,131.18a6,6,0,0,0-5.48,0l-9.93,5.95c-1,.58-1.32,1.41-1,2.15-.32.75,0,1.57,1,2.15l24.66,14a6,6,0,0,0,5.47,0l9.94-6c1-.59,1.31-1.41,1-2.15C53.6,146.53,53.27,145.71,52.27,145.13Z"/><path class="cls-46" d="M52.16,145.13,27.62,131.24a6,6,0,0,0-5.45,0l-9.86,5.91c-1,.58-1.3,1.4-1,2.14-.32.74,0,1.56,1,2.13l24.54,14a6,6,0,0,0,5.45,0l9.87-6c1-.59,1.29-1.4,1-2.14C53.48,146.52,53.16,145.71,52.16,145.13Z"/><path class="cls-47" d="M52.05,145.14,27.62,131.31a6,6,0,0,0-5.42,0l-9.78,5.87c-1,.57-1.3,1.38-1,2.12-.32.74,0,1.55,1,2.12l24.44,13.9a5.93,5.93,0,0,0,5.41,0l9.8-5.92c1-.58,1.29-1.39,1-2.13C53.37,146.52,53.05,145.71,52.05,145.14Z"/><path class="cls-48" d="M52,145.14,27.63,131.37a6,6,0,0,0-5.39,0l-9.71,5.83c-1,.57-1.29,1.38-1,2.11-.31.73,0,1.54,1,2.11l24.33,13.83a5.9,5.9,0,0,0,5.38,0L52,149.36c1-.57,1.28-1.38,1-2.11C53.25,146.52,52.93,145.71,52,145.14Z"/><path class="cls-49" d="M51.84,145.14l-24.21-13.7a5.89,5.89,0,0,0-5.36,0l-9.64,5.78c-1,.57-1.28,1.37-1,2.1-.31.73,0,1.53,1,2.1l24.22,13.77a5.87,5.87,0,0,0,5.35,0l9.64-5.84c1-.57,1.28-1.37,1-2.1C53.14,146.51,52.82,145.71,51.84,145.14Z"/><path class="cls-50" d="M51.73,145.15l-24.1-13.64a5.86,5.86,0,0,0-5.33,0l-9.56,5.73c-1,.57-1.27,1.36-1,2.09-.31.72,0,1.52,1,2.08l24.11,13.71a5.82,5.82,0,0,0,5.31,0l9.58-5.8c1-.57,1.26-1.37,1-2.09C53,146.51,52.71,145.71,51.73,145.15Z"/><path class="cls-51" d="M51.63,145.15l-24-13.58a5.84,5.84,0,0,0-5.29,0l-9.49,5.69c-1,.57-1.27,1.36-1,2.08-.31.72,0,1.51,1,2.07l24,13.64a5.76,5.76,0,0,0,5.28,0l9.5-5.75c1-.57,1.26-1.36,1-2.07C52.91,146.5,52.59,145.71,51.63,145.15Z"/><path class="cls-4" d="M51.52,145.15,27.63,131.64a5.77,5.77,0,0,0-5.26,0L13,137.31c-1,.56-1.26,1.35-1,2.07-.3.71,0,1.5,1,2.06L36.86,155a5.77,5.77,0,0,0,5.26,0l9.42-5.71c1-.56,1.25-1.35,1-2.06C52.8,146.5,52.48,145.71,51.52,145.15Z"/></g><path class="cls-81" d="M10,121.94s.2-3.5.31-3.57L22,111.6a3.81,3.81,0,0,1,3.81,0l27.53,15.92a2.31,2.31,0,0,1,1,1.79v17.32a3.12,3.12,0,0,1-1.55,2.68l-12.39,7.15L14.34,138.55Z"/><path class="cls-82" d="M10,119c0-.66.47-.93,1-.6l28.88,16.68a2.31,2.31,0,0,1,1,1.79v18.73a.94.94,0,0,1-1.41.81L11.06,140A2.24,2.24,0,0,1,10,138.11Z"/><path class="cls-83" d="M39.87,135.12,11,118.44c-.57-.33-1-.06-1,.6v2.9l31,17.88v-2.91A2.31,2.31,0,0,0,39.87,135.12Z"/><path class="cls-7" d="M11.4,120.41c-.25-.15-.46,0-.46.26a1,1,0,0,0,.46.81c.26.15.47,0,.47-.27A1,1,0,0,0,11.4,120.41Z"/><path class="cls-7" d="M13.09,121.32c-.26-.15-.46,0-.46.27a1,1,0,0,0,.46.8c.26.15.47,0,.47-.27A1,1,0,0,0,13.09,121.32Z"/><path class="cls-7" d="M14.78,122.23c-.26-.15-.47,0-.47.27a1,1,0,0,0,.47.8c.25.15.46,0,.46-.27A1,1,0,0,0,14.78,122.23Z"/><polygon class="cls-4" points="14.87 126.45 24.62 132.08 24.62 132.72 14.87 127.09 14.87 126.45"/><polygon class="cls-4" points="10.94 124.18 14.29 126.13 14.29 126.77 10.94 124.82 10.94 124.18"/><polygon class="cls-84" points="12.61 126.98 15.39 128.59 15.39 129.23 12.61 127.62 12.61 126.98"/><polygon class="cls-4" points="15.87 128.84 19.66 131.05 19.66 131.69 15.87 129.48 15.87 128.84"/><polygon class="cls-4" points="21.98 134.24 39.92 144.6 39.92 145.24 21.98 134.88 21.98 134.24"/><polygon class="cls-85" points="18.9 132.47 21.1 133.73 21.1 134.37 18.9 133.1 18.9 132.47"/><polygon class="cls-4" points="10.94 127.88 17.9 131.9 17.9 132.54 10.94 128.52 10.94 127.88"/><polygon class="cls-4" points="16.07 132.72 22.85 136.63 22.85 137.27 16.07 133.36 16.07 132.72"/><polygon class="cls-86" points="14.13 131.58 15.65 132.47 15.65 133.1 14.13 132.22 14.13 131.58"/><polygon class="cls-4" points="16.88 135 38.45 147.43 38.45 148.07 16.88 135.63 16.88 135"/><polygon class="cls-4" points="11.89 132.15 16.3 134.68 16.3 135.31 11.89 132.79 11.89 132.15"/><polygon class="cls-4" points="19.25 138.24 39.92 150.15 39.92 150.79 19.25 138.88 19.25 138.24"/><polygon class="cls-4" points="14.09 135.28 18.67 137.92 18.67 138.56 14.09 135.92 14.09 135.28"/><polygon class="cls-87" points="10.94 133.43 13.66 135 13.66 135.63 10.94 134.07 10.94 133.43"/><polygon class="cls-88" points="15.87 138.13 17.44 139.03 17.44 139.67 15.87 138.77 15.87 138.13"/><polygon class="cls-4" points="13.88 136.96 15.39 137.81 15.39 138.45 13.88 137.59 13.88 136.96"/><polygon class="cls-4" points="19.75 142.18 39.92 153.85 39.92 154.49 19.75 142.82 19.75 142.18"/><polygon class="cls-4" points="15.02 139.47 18.38 141.41 18.38 142.05 15.02 140.11 15.02 139.47"/><polygon class="cls-89" points="10.94 137.13 12.7 138.13 12.7 138.77 10.94 137.77 10.94 137.13"/><path class="cls-90" d="M40.35,122.66a8.18,8.18,0,0,1-1.52.87l-.12.07v0c-4.14,1.68-7.92-1.47-7.92-1.47-.8-.72-1.08-2.58-1-3.88-.08-.29-.17-.64-.27-1.08a17.56,17.56,0,0,1-.38-3.73L45.71,123v.28l-3.22-1.85Z"/><path class="cls-91" d="M33.63,120.4,41.3,116v4.72l4.33,2.5v-8a3.88,3.88,0,0,0-5.82-3.36l-8.35,4.8Z"/><path class="cls-92" d="M37.55,122.72l7.68-4.4v4.59l4.32,2.5v-7.87a3.88,3.88,0,0,0-5.81-3.36L35.39,119Z"/><path class="cls-93" d="M39.19,121.78c-4.74,3.5-9.57-.54-9.57-.54-1-.93-1.2-3.75-.87-4.82l1.31-1.32,6.77,3.76Z"/><path class="cls-94" d="M49.62,106.65,39.84,101a.19.19,0,0,0-.29.17l-2.75,7.49A.44.44,0,0,0,37,109l9.78,5.64c.13.08.22,0,.3-.17L49.83,107A.44.44,0,0,0,49.62,106.65Z"/><path class="cls-4" d="M49.49,106.74l-9.77-5.65c-.13-.07-.25,0-.3.17l-2.75,7.49a.42.42,0,0,0,.22.37l9.77,5.65c.14.07.22,0,.3-.17l2.75-7.49A.41.41,0,0,0,49.49,106.74Z"/><polygon class="cls-95" points="49.18 107.1 39.69 101.74 37.18 108.72 46.63 114.15 49.18 107.1"/><path class="cls-96" d="M36.24,109.36,30,112.66s0,.49.1.57l9.59,5.54a.8.8,0,0,0,.79,0l6.16-3.52c.25-.16.1-.57.1-.57L37,109.36A.8.8,0,0,0,36.24,109.36Z"/><path class="cls-7" d="M36.24,109l-6.16,3.52a.21.21,0,0,0,0,.35l9.59,5.54a.8.8,0,0,0,.79,0l6.16-3.52a.21.21,0,0,0,0-.35L37,109A.8.8,0,0,0,36.24,109Z"/><path class="cls-55" d="M35.69,113.54l-1.62.93a0,0,0,0,0,0,.09L36.6,116a.2.2,0,0,0,.21,0l1.62-.93a.06.06,0,0,0,0-.09l-2.53-1.46A.2.2,0,0,0,35.69,113.54Z"/><path class="cls-55" d="M36.92,109.52l.53.31a0,0,0,0,1,0,0l-.26.15a.08.08,0,0,1-.07,0l-.53-.3s0,0,0-.06l.26-.15Z"/><path class="cls-55" d="M37.7,110l.53.31a0,0,0,0,1,0,0l-.27.16a.08.08,0,0,1-.07,0l-.53-.31s0,0,0-.06l.27-.15A.08.08,0,0,1,37.7,110Z"/><path class="cls-55" d="M38.48,110.42l.53.31a0,0,0,0,1,0,0l-.27.15a0,0,0,0,1-.06,0l-.54-.3a0,0,0,0,1,0-.06l.27-.15A.09.09,0,0,1,38.48,110.42Z"/><path class="cls-55" d="M39.28,110.87l.53.31s0,0,0,.06l-.26.15a.09.09,0,0,1-.07,0l-.53-.31a0,0,0,0,1,0,0l.26-.16A.09.09,0,0,1,39.28,110.87Z"/><path class="cls-55" d="M40.05,111.3l.53.31s0,0,0,.06l-.26.15a.09.09,0,0,1-.07,0l-.53-.31a0,0,0,0,1,0-.05l.26-.16Z"/><path class="cls-55" d="M40.8,111.77l.53.3s0,.05,0,.06l-.26.15a.09.09,0,0,1-.07,0l-.53-.31a0,0,0,0,1,0,0l.27-.15Z"/><path class="cls-55" d="M41.59,112.2l.53.31a0,0,0,0,1,0,0l-.26.15a0,0,0,0,1-.07,0l-.53-.3a0,0,0,0,1,0-.06l.26-.15A.09.09,0,0,1,41.59,112.2Z"/><path class="cls-55" d="M42.36,112.66l.53.31s0,0,0,0l-.26.16h-.07l-.53-.31s0,0,0-.06l.27-.15Z"/><path class="cls-55" d="M43.13,113.11l.53.31a0,0,0,0,1,0,0l-.27.15s0,0-.07,0l-.53-.3s0,0,0-.06l.27-.15A.08.08,0,0,1,43.13,113.11Z"/><path class="cls-55" d="M43.93,113.57l.53.31s0,0,0,.06l-.26.15h-.07l-.53-.31a0,0,0,0,1,0,0l.26-.16Z"/><path class="cls-55" d="M44.71,114l.53.31a0,0,0,0,1,0,.05l-.26.15s0,0-.07,0l-.53-.3s0,0,0-.06l.26-.15A.09.09,0,0,1,44.71,114Z"/><path class="cls-55" d="M35.84,110.1l.36-.21a.14.14,0,0,1,.15,0l.35.2a.08.08,0,0,1,0,.13l-.35.21a.14.14,0,0,1-.15,0l-.36-.2A.08.08,0,0,1,35.84,110.1Z"/><path class="cls-55" d="M36.64,110.56l.36-.21a.14.14,0,0,1,.15,0l.36.2a.08.08,0,0,1,0,.13l-.35.21a.18.18,0,0,1-.16,0l-.36-.21A.08.08,0,0,1,36.64,110.56Z"/><path class="cls-55" d="M37.43,111l.36-.21a.14.14,0,0,1,.15,0l.35.2a.08.08,0,0,1,0,.13l-.35.21a.16.16,0,0,1-.15,0l-.36-.21A.08.08,0,0,1,37.43,111Z"/><path class="cls-55" d="M38.26,111.45l.36-.21a.14.14,0,0,1,.15,0l.35.2a.08.08,0,0,1,0,.13l-.35.22a.16.16,0,0,1-.15,0l-.36-.21A.08.08,0,0,1,38.26,111.45Z"/><path class="cls-55" d="M39,111.88l.36-.21a.14.14,0,0,1,.15,0l.35.2a.08.08,0,0,1,0,.13l-.35.22a.14.14,0,0,1-.15,0L39,112A.08.08,0,0,1,39,111.88Z"/><path class="cls-55" d="M39.73,112.34l.36-.21a.14.14,0,0,1,.15,0l.36.2a.08.08,0,0,1,0,.13l-.35.22a.15.15,0,0,1-.16,0l-.36-.21A.08.08,0,0,1,39.73,112.34Z"/><path class="cls-55" d="M40.53,112.78l.36-.21a.14.14,0,0,1,.15,0l.35.2a.08.08,0,0,1,0,.13l-.35.21a.16.16,0,0,1-.15,0l-.36-.21A.08.08,0,0,1,40.53,112.78Z"/><path class="cls-55" d="M41.31,113.22l.36-.21a.14.14,0,0,1,.15,0l.35.2a.08.08,0,0,1,0,.13l-.35.21a.16.16,0,0,1-.15,0l-.36-.21A.08.08,0,0,1,41.31,113.22Z"/><path class="cls-55" d="M42.07,113.69l.36-.21a.14.14,0,0,1,.15,0l.35.2a.08.08,0,0,1,0,.13l-.35.21a.18.18,0,0,1-.16,0l-.36-.21A.08.08,0,0,1,42.07,113.69Z"/><path class="cls-55" d="M42.91,114.18l.36-.21a.14.14,0,0,1,.15,0l.35.2a.08.08,0,0,1,0,.13l-.35.21a.16.16,0,0,1-.15,0l-.36-.21A.08.08,0,0,1,42.91,114.18Z"/><path class="cls-55" d="M43.66,114.59l.36-.21a.14.14,0,0,1,.15,0l.35.2a.08.08,0,0,1,0,.13l-.35.21a.16.16,0,0,1-.15,0l-.36-.21A.08.08,0,0,1,43.66,114.59Z"/><path class="cls-55" d="M35,110.53l.36-.21a.14.14,0,0,1,.15,0l.35.2a.08.08,0,0,1,0,.13l-.35.22a.14.14,0,0,1-.15,0l-.36-.21A.08.08,0,0,1,35,110.53Z"/><path class="cls-55" d="M35.84,111l.36-.22a.19.19,0,0,1,.15,0l.35.21a.08.08,0,0,1,0,.13l-.35.21a.15.15,0,0,1-.16,0l-.36-.21A.07.07,0,0,1,35.84,111Z"/><path class="cls-55" d="M36.62,111.43l.36-.21a.22.22,0,0,1,.16,0l.35.21a.07.07,0,0,1,0,.12l-.35.22a.14.14,0,0,1-.15,0l-.37-.21A.08.08,0,0,1,36.62,111.43Z"/><path class="cls-55" d="M37.46,111.89l.36-.21a.14.14,0,0,1,.15,0l.35.2a.08.08,0,0,1,0,.13l-.35.21a.14.14,0,0,1-.15,0l-.36-.2A.08.08,0,0,1,37.46,111.89Z"/><path class="cls-55" d="M38.19,112.32l.36-.21a.14.14,0,0,1,.15,0l.35.2a.08.08,0,0,1,0,.13l-.35.21a.14.14,0,0,1-.15,0l-.36-.2A.08.08,0,0,1,38.19,112.32Z"/><path class="cls-55" d="M38.93,112.78l.36-.21a.14.14,0,0,1,.15,0l.35.2a.08.08,0,0,1,0,.13l-.35.21a.18.18,0,0,1-.16,0l-.36-.21A.08.08,0,0,1,38.93,112.78Z"/><path class="cls-55" d="M39.73,113.21l.36-.21a.19.19,0,0,1,.15,0l.35.21a.07.07,0,0,1,0,.12l-.35.22a.14.14,0,0,1-.15,0l-.36-.21A.08.08,0,0,1,39.73,113.21Z"/><path class="cls-55" d="M40.51,113.66l.36-.22a.19.19,0,0,1,.15,0l.35.21a.08.08,0,0,1,0,.13L41,114a.14.14,0,0,1-.15,0l-.36-.21A.07.07,0,0,1,40.51,113.66Z"/><path class="cls-55" d="M41.27,114.12l.36-.21a.19.19,0,0,1,.15,0l.35.21a.08.08,0,0,1,0,.13l-.35.21a.15.15,0,0,1-.16,0l-.36-.21A.07.07,0,0,1,41.27,114.12Z"/><path class="cls-55" d="M42.11,114.62l.35-.21a.18.18,0,0,1,.16,0l.35.21a.08.08,0,0,1,0,.13l-.35.21a.14.14,0,0,1-.15,0l-.36-.2A.07.07,0,0,1,42.11,114.62Z"/><path class="cls-55" d="M42.86,115l.36-.21a.2.2,0,0,1,.15,0l.35.21a.07.07,0,0,1,0,.13l-.35.21a.14.14,0,0,1-.15,0l-.36-.21A.07.07,0,0,1,42.86,115Z"/><path class="cls-55" d="M34.24,111l.36-.21a.14.14,0,0,1,.15,0l.35.2a.08.08,0,0,1,0,.13l-.35.21a.14.14,0,0,1-.15,0l-.36-.2A.08.08,0,0,1,34.24,111Z"/><path class="cls-55" d="M35,111.43l.36-.21a.14.14,0,0,1,.15,0l.35.2a.08.08,0,0,1,0,.13l-.35.22a.18.18,0,0,1-.16,0l-.36-.21A.08.08,0,0,1,35,111.43Z"/><path class="cls-55" d="M35.82,111.87l.36-.21a.14.14,0,0,1,.15,0l.36.2a.08.08,0,0,1,0,.13l-.35.21a.18.18,0,0,1-.16,0l-.36-.21A.08.08,0,0,1,35.82,111.87Z"/><path class="cls-55" d="M36.65,112.32l.36-.21a.15.15,0,0,1,.16,0l.35.2a.08.08,0,0,1,0,.13l-.35.22a.14.14,0,0,1-.15,0l-.36-.21A.08.08,0,0,1,36.65,112.32Z"/><path class="cls-55" d="M37.39,112.75l.36-.21a.19.19,0,0,1,.15,0l.35.2a.08.08,0,0,1,0,.13l-.35.22a.14.14,0,0,1-.15,0l-.36-.21A.08.08,0,0,1,37.39,112.75Z"/><path class="cls-55" d="M38.13,113.21l.36-.21a.19.19,0,0,1,.15,0l.35.21a.07.07,0,0,1,0,.12l-.35.22a.15.15,0,0,1-.16,0l-.36-.21A.08.08,0,0,1,38.13,113.21Z"/><path class="cls-55" d="M38.93,113.65l.36-.21a.14.14,0,0,1,.15,0l.35.2a.08.08,0,0,1,0,.13l-.35.21a.16.16,0,0,1-.15,0l-.36-.21A.08.08,0,0,1,38.93,113.65Z"/><path class="cls-55" d="M39.71,114.09l.35-.21a.15.15,0,0,1,.16,0l.35.2a.08.08,0,0,1,0,.13l-.35.22a.16.16,0,0,1-.15,0l-.36-.21A.08.08,0,0,1,39.71,114.09Z"/><path class="cls-55" d="M40.47,114.56l.36-.21a.14.14,0,0,1,.15,0l.35.2a.08.08,0,0,1,0,.13l-.34.22a.22.22,0,0,1-.16,0l-.36-.21A.08.08,0,0,1,40.47,114.56Z"/><path class="cls-55" d="M41.3,115.05l.36-.21a.15.15,0,0,1,.16,0l.35.2a.08.08,0,0,1,0,.13l-.35.22a.18.18,0,0,1-.16,0l-.36-.21A.08.08,0,0,1,41.3,115.05Z"/><path class="cls-55" d="M42.06,115.46l.36-.21a.14.14,0,0,1,.15,0l.35.2a.08.08,0,0,1,0,.13l-.35.22a.19.19,0,0,1-.15,0l-.36-.21A.08.08,0,0,1,42.06,115.46Z"/><path class="cls-55" d="M33.44,111.4l.36-.21a.19.19,0,0,1,.15,0l.35.21a.07.07,0,0,1,0,.12l-.35.22a.14.14,0,0,1-.15,0l-.36-.21A.08.08,0,0,1,33.44,111.4Z"/><path class="cls-55" d="M34.24,111.87l.36-.21a.14.14,0,0,1,.15,0l.35.2a.08.08,0,0,1,0,.13l-.34.21a.15.15,0,0,1-.16,0l-.36-.2A.08.08,0,0,1,34.24,111.87Z"/><path class="cls-55" d="M35,112.31l.36-.22a.19.19,0,0,1,.15,0l.35.21a.08.08,0,0,1,0,.13l-.35.21a.15.15,0,0,1-.16,0l-.36-.21A.07.07,0,0,1,35,112.31Z"/><path class="cls-55" d="M35.85,112.76l.36-.21a.14.14,0,0,1,.15,0l.36.2a.08.08,0,0,1,0,.13l-.35.21a.18.18,0,0,1-.16,0l-.36-.21A.08.08,0,0,1,35.85,112.76Z"/><path class="cls-55" d="M36.65,113.24,37,113a.15.15,0,0,1,.16,0l1.82,1a.08.08,0,0,1,0,.13l-.35.21a.18.18,0,0,1-.16,0l-1.83-1.06A.08.08,0,0,1,36.65,113.24Z"/><path class="cls-55" d="M38.9,114.53l.36-.21a.14.14,0,0,1,.15,0l.36.2a.08.08,0,0,1,0,.13l-.35.21a.15.15,0,0,1-.16,0l-.36-.2A.08.08,0,0,1,38.9,114.53Z"/><path class="cls-55" d="M39.67,115l.36-.21a.14.14,0,0,1,.15,0l.35.2a.08.08,0,0,1,0,.13l-.35.21a.14.14,0,0,1-.15,0l-.36-.2A.08.08,0,0,1,39.67,115Z"/><path class="cls-55" d="M40.5,115.49l.36-.21a.14.14,0,0,1,.15,0l.36.2a.08.08,0,0,1,0,.13l-.35.21a.15.15,0,0,1-.16,0l-.36-.2A.08.08,0,0,1,40.5,115.49Z"/><path class="cls-55" d="M41.26,115.9l.36-.21a.14.14,0,0,1,.15,0l.35.2a.08.08,0,0,1,0,.13l-.35.21a.14.14,0,0,1-.15,0l-.36-.2A.08.08,0,0,1,41.26,115.9Z"/><path class="cls-63" d="M34.14,117.43a1,1,0,0,1-.51-.21L28.53,113a4.94,4.94,0,0,1-1.33-5.89l2.45-5.27a.95.95,0,0,1,1.72.8l-2.45,5.27a3,3,0,0,0,.82,3.63l5.11,4.22a1,1,0,0,1-.71,1.68Z"/><path class="cls-7" d="M27.69,108.84a1.78,1.78,0,0,1-.5-.14,1.58,1.58,0,0,1-.77-2.1L29,101a1.58,1.58,0,1,1,2.86,1.33l-2.59,5.58A1.59,1.59,0,0,1,27.69,108.84Z"/><path class="cls-7" d="M38.25,106.41a8.26,8.26,0,0,0-.78-4.14,8,8,0,0,0-3.06-3.19l-1.24-.71c-1.58-.92-2.72.43-3.56,2.06-3,5.82-.18,13.93-1.83,19.39,0,0,5.74,2.71,7.31,2.72,2.24,0,5.71-.6,5.38-1.49C37.79,113.9,38,110.79,38.25,106.41Z"/><rect class="cls-63" x="32.82" y="96.1" width="2.13" height="4.5" rx="0.96" transform="translate(67.78 196.7) rotate(180)"/><path class="cls-63" d="M42.07,116.68c-.48,0-1.64,0-1.86-.45l-3.18.41a1.24,1.24,0,0,1-1.31-.78,16.59,16.59,0,0,1-1.19-6.9l.22-5.21a1.3,1.3,0,0,1,1.34-1.23,1.28,1.28,0,0,1,1.22,1.34l-.22,5.21c-.09,2.26-.21,2.4.77,4.44L42.47,115c.65,0,1.2.74,1.11,1S42.25,116.68,42.07,116.68Z"/><path class="cls-7" d="M35.8,111.77h-.06a1.46,1.46,0,0,1-1.41-1.52l.24-6.5a1.45,1.45,0,0,1,1.51-1.41,1.47,1.47,0,0,1,1.42,1.52l-.24,6.5A1.46,1.46,0,0,1,35.8,111.77Z"/><path class="cls-63" d="M31.32,92.11h6.37a0,0,0,0,1,0,0v2.26a5.09,5.09,0,0,1-5.09,5.09H31.32a0,0,0,0,1,0,0V92.11A0,0,0,0,1,31.32,92.11Z"/><path class="cls-63" d="M41.53,115.53l2.49,0a.3.3,0,0,0,.3-.29h0A.3.3,0,0,0,44,115l-2.5,0a.28.28,0,0,0-.29.28h0A.29.29,0,0,0,41.53,115.53Z"/><path class="cls-63" d="M40.27,115.37l2.44-.53a.28.28,0,0,0,.22-.35h0a.29.29,0,0,0-.34-.22l-2.44.53a.3.3,0,0,0-.23.35h0A.3.3,0,0,0,40.27,115.37Z"/><path class="cls-97" d="M38.87,90.14A2.36,2.36,0,0,0,36.93,90c-.6.19-1.15.51-1.74.71a3,3,0,0,1-1.56-.1,2.61,2.61,0,0,0-1.59,0A1,1,0,0,0,31.51,92,2.65,2.65,0,0,0,30.1,93.5a1.92,1.92,0,0,0,0,1A6.17,6.17,0,0,1,30,95.77c-.12,1.26-.26,2.3.59,3.34a1.85,1.85,0,0,0,2.19.44,1.52,1.52,0,0,0,.4-.32A2.57,2.57,0,0,0,33.85,98c.06-.23.08-.47.16-.69a.67.67,0,0,1,.51-.44c.4,0,.86.58,1.25.25a.52.52,0,0,0,0-.65,3.93,3.93,0,0,0-.54-.61.83.83,0,0,1-.23-.74c.17-.54,1.15-.83,1.6-1a6.1,6.1,0,0,0,2-1.21,2.43,2.43,0,0,0,.8-1.66A1.3,1.3,0,0,0,38.87,90.14Z"/></g></g></g></svg>