<?xml version="1.0" standalone="no"?>
<!DOCTYPE svg PUBLIC "-//W3C//DTD SVG 20010904//EN"
 "http://www.w3.org/TR/2001/REC-SVG-20010904/DTD/svg10.dtd">
<svg version="1.0" xmlns="http://www.w3.org/2000/svg"
 width="670.000000pt" height="670.000000pt" viewBox="0 0 670.000000 670.000000"
 preserveAspectRatio="xMidYMid meet">
<metadata>
Created by potrace 1.11, written by Peter Selinger 2001-2013
</metadata>
<g transform="translate(0.000000,670.000000) scale(0.100000,-0.100000)"
fill="#000000" stroke="none">
<path d="M3365 5739 c-77 -110 -178 -253 -225 -319 -47 -66 -141 -200 -210
-297 -68 -98 -215 -306 -325 -463 -297 -421 -339 -480 -355 -503 -13 -19 -110
-157 -238 -337 -21 -30 -103 -147 -182 -260 -79 -113 -157 -224 -174 -247 -17
-23 -62 -86 -99 -140 -38 -54 -145 -206 -238 -338 -93 -132 -174 -247 -179
-255 -6 -8 -72 -103 -148 -210 -76 -107 -311 -440 -522 -740 -210 -300 -400
-569 -422 -598 -21 -28 -33 -52 -27 -52 12 0 507 126 1044 265 336 87 491 127
505 130 8 2 76 19 150 39 74 19 222 58 329 85 106 27 194 51 196 53 3 3 53
171 60 201 4 19 49 171 64 222 5 17 15 50 22 75 7 25 14 50 15 55 2 6 8 26 13
45 5 19 21 73 34 120 84 287 331 1143 342 1185 8 28 26 91 40 140 15 50 35
119 45 155 10 36 39 137 65 225 26 88 48 167 50 175 2 8 29 103 61 210 31 107
65 224 75 260 9 36 38 135 62 220 25 85 84 290 132 455 48 165 98 338 111 385
14 47 34 117 44 156 11 39 22 79 26 88 3 9 5 16 3 16 -2 -1 -67 -91 -144 -201z"/>
<path d="M3696 5929 c-2 -8 -32 -140 -66 -294 -34 -154 -72 -325 -85 -380 -13
-55 -26 -113 -29 -130 -3 -16 -10 -48 -15 -70 -5 -22 -12 -51 -15 -65 -2 -14
-25 -116 -50 -227 -25 -111 -47 -212 -47 -225 -1 -28 -4 -16 66 -268 106 -385
208 -755 230 -840 21 -78 45 -162 94 -340 32 -115 73 -264 82 -300 5 -19 11
-42 14 -50 2 -8 51 -188 110 -399 58 -212 110 -390 116 -397 6 -7 21 -16 32
-20 12 -4 58 -24 102 -44 44 -21 106 -49 138 -64 116 -53 174 -80 276 -127 57
-27 105 -49 106 -49 2 0 56 -25 120 -55 63 -30 117 -55 119 -55 2 0 50 -22
107 -49 57 -27 190 -88 294 -136 105 -48 232 -107 283 -131 52 -24 95 -44 97
-44 2 0 47 -21 102 -46 82 -39 430 -200 668 -309 113 -52 145 -64 145 -57 0 5
-4 12 -9 17 -5 6 -18 26 -29 45 -10 19 -58 102 -106 183 -47 82 -86 151 -86
154 0 3 -9 17 -19 32 -11 14 -30 47 -43 71 -13 25 -49 88 -79 140 -81 138
-249 429 -272 470 -10 19 -53 94 -95 165 -61 106 -186 323 -282 490 -119 208
-407 707 -421 730 -11 17 -22 37 -26 45 -4 8 -20 38 -36 65 -28 46 -549 952
-712 1235 -40 69 -97 168 -127 220 -30 52 -125 217 -210 365 -86 149 -213 369
-283 490 -70 121 -134 231 -141 244 -9 18 -14 21 -18 10z"/>
<path d="M3880 1629 c-113 -27 -216 -50 -230 -53 -22 -5 -148 -33 -495 -112
-60 -14 -119 -27 -130 -30 -20 -4 -677 -152 -705 -159 -8 -2 -89 -20 -180 -40
-91 -20 -210 -47 -265 -60 -55 -13 -111 -26 -125 -28 -25 -5 -160 -35 -275
-62 -55 -13 -320 -73 -355 -80 -8 -1 -33 -8 -55 -13 -22 -6 -51 -13 -65 -16
-14 -2 -77 -16 -140 -30 -63 -15 -124 -28 -135 -30 -11 -2 -51 -12 -90 -21
-38 -9 -81 -19 -95 -21 -14 -3 -50 -11 -80 -19 -30 -8 -66 -16 -80 -19 -26 -5
-226 -49 -320 -71 -45 -11 483 -13 2960 -13 l3015 -1 -95 46 c-92 45 -259 125
-445 213 -49 23 -144 68 -210 100 -205 98 -496 237 -640 305 -49 23 -148 71
-220 105 -169 82 -295 140 -320 149 -12 5 -102 -12 -225 -40z"/>
</g>
</svg>
